<?xml version="1.0" encoding="UTF-8"?>
<svg xmlns="http://www.w3.org/2000/svg" width="865.76" height="682.89" viewBox="0 0 865.76 682.89">
  <rect x="294.72" y="56.92" width="240.82" height="325.66" fill="#f58f74"></rect>
  <path d="M536,383.07H294.22V56.42H536Zm-240.82-1H535V57.42H295.22Z" fill="#231f20"></path>
  <rect x="315.61" y="76.54" width="199.05" height="286.41" fill="#fff"></rect>
  <path d="M515.16,363.45h-200V76h200Zm-199-1h198V77h-198Z" fill="#231f20"></path>
  <path d="M379.55,26.3h64.88a7.29,7.29,0,0,1,7.29,7.29V55.25a0,0,0,0,1,0,0H372.27a0,0,0,0,1,0,0V33.59A7.29,7.29,0,0,1,379.55,26.3Z" fill="#fff"></path>
  <path d="M452.22,55.75H371.77V33.59a7.79,7.79,0,0,1,7.78-7.79h64.89a7.79,7.79,0,0,1,7.78,7.79Zm-79.45-1h78.45V33.59a6.79,6.79,0,0,0-6.78-6.79H379.55a6.79,6.79,0,0,0-6.78,6.79Z" fill="#231f20"></path>
  <rect x="337.13" y="134.85" width="27.85" height="28.39" fill="#f58f74"></rect>
  <path d="M365.48,163.74H336.63V134.35h28.85Zm-27.85-1h26.85V135.35H337.63Z" fill="#231f20"></path>
  <rect x="386.46" y="141.62" width="107.03" height="5.2" rx="2.43" fill="#f58f74"></rect>
  <path d="M491.06,147.32H388.89a2.93,2.93,0,0,1-2.93-2.93v-.33a2.94,2.94,0,0,1,2.93-2.94H491.06a2.94,2.94,0,0,1,2.93,2.94v.33A2.93,2.93,0,0,1,491.06,147.32Zm-102.17-5.2a1.93,1.93,0,0,0-1.93,1.94v.33a1.93,1.93,0,0,0,1.93,1.93H491.06a1.94,1.94,0,0,0,1.93-1.93v-.33a1.94,1.94,0,0,0-1.93-1.94Z" fill="#231f20"></path>
  <rect x="386.46" y="151.27" width="62.27" height="5.2" rx="2.43" fill="#f58f74"></rect>
  <path d="M446.29,157h-57.4A2.93,2.93,0,0,1,386,154v-.33a2.94,2.94,0,0,1,2.93-2.94h57.4a2.94,2.94,0,0,1,2.94,2.94V154A2.94,2.94,0,0,1,446.29,157Zm-57.4-5.2a1.93,1.93,0,0,0-1.93,1.94V154a1.93,1.93,0,0,0,1.93,1.93h57.4a1.94,1.94,0,0,0,1.94-1.93v-.33a1.94,1.94,0,0,0-1.94-1.94Z" fill="#231f20"></path>
  <path d="M347.42,156.67a1.51,1.51,0,0,1-1.28-.71l-5.48-8.78a1.5,1.5,0,0,1,2.55-1.59l4.63,7.43,23.37-16.64a1.5,1.5,0,0,1,1.74,2.45l-24.66,17.56A1.55,1.55,0,0,1,347.42,156.67Z" fill="#231f20"></path>
  <rect x="337.13" y="188.89" width="27.85" height="28.39" fill="#f58f74"></rect>
  <path d="M365.48,217.78H336.63V188.39h28.85Zm-27.85-1h26.85V189.39H337.63Z" fill="#231f20"></path>
  <rect x="386.46" y="195.66" width="107.03" height="5.2" rx="2.43" fill="#f58f74"></rect>
  <path d="M491.06,201.36H388.89a2.94,2.94,0,0,1-2.93-2.94v-.33a2.93,2.93,0,0,1,2.93-2.93H491.06a2.94,2.94,0,0,1,2.93,2.93v.33A2.94,2.94,0,0,1,491.06,201.36Zm-102.17-5.2a1.93,1.93,0,0,0-1.93,1.93v.33a1.93,1.93,0,0,0,1.93,1.94H491.06a1.94,1.94,0,0,0,1.93-1.94v-.33a1.94,1.94,0,0,0-1.93-1.93Z" fill="#231f20"></path>
  <rect x="386.46" y="205.31" width="62.27" height="5.2" rx="2.43" fill="#f58f74"></rect>
  <path d="M446.29,211h-57.4a2.94,2.94,0,0,1-2.93-2.94v-.33a2.93,2.93,0,0,1,2.93-2.93h57.4a2.94,2.94,0,0,1,2.94,2.93v.33A2.94,2.94,0,0,1,446.29,211Zm-57.4-5.2a1.93,1.93,0,0,0-1.93,1.93v.33a1.93,1.93,0,0,0,1.93,1.94h57.4a1.94,1.94,0,0,0,1.94-1.94v-.33a1.94,1.94,0,0,0-1.94-1.93Z" fill="#231f20"></path>
  <path d="M347.42,210.7l-.3,0a1.56,1.56,0,0,1-1-.68l-5.48-8.78a1.5,1.5,0,0,1,2.55-1.59l4.63,7.43,23.37-16.64a1.5,1.5,0,1,1,1.74,2.44l-24.66,17.57A1.54,1.54,0,0,1,347.42,210.7Z" fill="#231f20"></path>
  <rect x="337.13" y="243.89" width="27.85" height="28.39" fill="#f58f74"></rect>
  <path d="M365.48,272.78H336.63V243.39h28.85Zm-27.85-1h26.85V244.39H337.63Z" fill="#231f20"></path>
  <rect x="386.46" y="250.66" width="107.03" height="5.2" rx="2.43" fill="#f58f74"></rect>
  <path d="M491.06,256.36H388.89a2.93,2.93,0,0,1-2.93-2.93v-.34a2.93,2.93,0,0,1,2.93-2.93H491.06a2.94,2.94,0,0,1,2.93,2.93v.34A2.94,2.94,0,0,1,491.06,256.36Zm-102.17-5.2a1.93,1.93,0,0,0-1.93,1.93v.34a1.93,1.93,0,0,0,1.93,1.93H491.06a1.94,1.94,0,0,0,1.93-1.93v-.34a1.94,1.94,0,0,0-1.93-1.93Z" fill="#231f20"></path>
  <rect x="386.46" y="260.31" width="62.27" height="5.2" rx="2.43" fill="#f58f74"></rect>
  <path d="M446.29,266h-57.4a2.94,2.94,0,0,1-2.93-2.94v-.33a2.93,2.93,0,0,1,2.93-2.93h57.4a2.94,2.94,0,0,1,2.94,2.93v.33A2.94,2.94,0,0,1,446.29,266Zm-57.4-5.2a1.93,1.93,0,0,0-1.93,1.93v.33a1.93,1.93,0,0,0,1.93,1.94h57.4a1.94,1.94,0,0,0,1.94-1.94v-.33a1.94,1.94,0,0,0-1.94-1.93Z" fill="#231f20"></path>
  <path d="M347.42,265.71l-.3,0a1.56,1.56,0,0,1-1-.68l-5.48-8.78a1.5,1.5,0,0,1,2.55-1.59l4.63,7.43,23.37-16.64a1.5,1.5,0,0,1,1.74,2.45l-24.66,17.56A1.55,1.55,0,0,1,347.42,265.71Z" fill="#231f20"></path>
  <rect x="337.13" y="297.93" width="27.85" height="28.39" fill="#f58f74"></rect>
  <path d="M365.48,326.82H336.63V297.43h28.85Zm-27.85-1h26.85V298.43H337.63Z" fill="#231f20"></path>
  <rect x="386.46" y="304.7" width="107.03" height="5.2" rx="2.43" fill="#f58f74"></rect>
  <path d="M491.06,310.39H388.89a2.93,2.93,0,0,1-2.93-2.93v-.33a2.93,2.93,0,0,1,2.93-2.93H491.06a2.93,2.93,0,0,1,2.93,2.93v.33A2.93,2.93,0,0,1,491.06,310.39ZM388.89,305.2a1.92,1.92,0,0,0-1.93,1.93v.33a1.92,1.92,0,0,0,1.93,1.93H491.06a1.93,1.93,0,0,0,1.93-1.93v-.33a1.93,1.93,0,0,0-1.93-1.93Z" fill="#231f20"></path>
  <rect x="386.46" y="314.35" width="62.27" height="5.2" rx="2.43" fill="#f58f74"></rect>
  <path d="M446.29,320h-57.4a2.93,2.93,0,0,1-2.93-2.93v-.33a2.93,2.93,0,0,1,2.93-2.93h57.4a2.94,2.94,0,0,1,2.94,2.93v.33A2.94,2.94,0,0,1,446.29,320Zm-57.4-5.19a1.92,1.92,0,0,0-1.93,1.93v.33a1.92,1.92,0,0,0,1.93,1.93h57.4a1.93,1.93,0,0,0,1.94-1.93v-.33a1.93,1.93,0,0,0-1.94-1.93Z" fill="#231f20"></path>
  <path d="M347.42,319.74a1.53,1.53,0,0,1-.3,0,1.51,1.51,0,0,1-1-.67l-5.48-8.78a1.5,1.5,0,0,1,2.55-1.59l4.63,7.42,23.37-16.63A1.5,1.5,0,1,1,373,301.9l-24.66,17.56A1.48,1.48,0,0,1,347.42,319.74Z" fill="#231f20"></path>
  <rect x="362.98" y="46.9" width="98.84" height="39.52" rx="7.34" fill="#f58f74"></rect>
  <path d="M454.48,86.92H370.33a7.85,7.85,0,0,1-7.85-7.84V54.24a7.85,7.85,0,0,1,7.85-7.84h84.15a7.84,7.84,0,0,1,7.84,7.84V79.08A7.85,7.85,0,0,1,454.48,86.92ZM370.33,47.4a6.85,6.85,0,0,0-6.85,6.84V79.08a6.85,6.85,0,0,0,6.85,6.84h84.15a6.85,6.85,0,0,0,6.84-6.84V54.24a6.85,6.85,0,0,0-6.84-6.84Z" fill="#231f20"></path>
  <path d="M352.91,97.06V114.8h-2.85V97.06Z" fill="#4a696c"></path>
  <path d="M371,114.8h-2.85l-8.59-13.25V114.8h-2.86V97h2.86l8.59,13.23V97H371Z" fill="#4a696c"></path>
  <path d="M377.31,114.35a5.2,5.2,0,0,1-2.21-1.77,4.61,4.61,0,0,1-.8-2.68h3.06a2.81,2.81,0,0,0,.89,1.89,3.11,3.11,0,0,0,2.21.74,3.37,3.37,0,0,0,2.31-.73,2.38,2.38,0,0,0,.82-1.88,2.07,2.07,0,0,0-.51-1.45,3.31,3.31,0,0,0-1.28-.87,20.48,20.48,0,0,0-2.11-.66,20.59,20.59,0,0,1-2.77-.93,4.68,4.68,0,0,1-1.82-1.47,4.33,4.33,0,0,1-.75-2.66,4.66,4.66,0,0,1,2.86-4.44,7.47,7.47,0,0,1,3.13-.61,6.44,6.44,0,0,1,4.14,1.29,4.74,4.74,0,0,1,1.79,3.53h-3.15a2.34,2.34,0,0,0-.91-1.66A3.26,3.26,0,0,0,380,99.3a3.1,3.1,0,0,0-2,.64,2.24,2.24,0,0,0-.77,1.84,1.88,1.88,0,0,0,.49,1.34A3.3,3.3,0,0,0,379,104a18.92,18.92,0,0,0,2.06.66,23.1,23.1,0,0,1,2.82,1,4.84,4.84,0,0,1,1.85,1.5,4.34,4.34,0,0,1,.76,2.69,5,5,0,0,1-.71,2.55,5.19,5.19,0,0,1-2.08,1.93,6.69,6.69,0,0,1-3.22.73A7.57,7.57,0,0,1,377.31,114.35Z" fill="#4a696c"></path>
  <path d="M392.68,97.06v11.31a4.08,4.08,0,0,0,1,3,4.61,4.61,0,0,0,5.81,0,4.08,4.08,0,0,0,1-3V97.06h2.86v11.26a6.85,6.85,0,0,1-.93,3.67,5.73,5.73,0,0,1-2.48,2.25,8.3,8.3,0,0,1-6.85,0,5.58,5.58,0,0,1-2.44-2.25,7,7,0,0,1-.9-3.67V97.06Z" fill="#4a696c"></path>
  <path d="M416.17,114.8l-4-7.1H410v7.1h-2.86V97.06h6a7.46,7.46,0,0,1,3.4.71,5,5,0,0,1,2.08,1.92,5.26,5.26,0,0,1,.68,2.68,5.44,5.44,0,0,1-1,3.15,5,5,0,0,1-3.05,1.93l4.31,7.35ZM410,105.38h3.15a3.25,3.25,0,0,0,2.42-.82,3,3,0,0,0,.81-2.19,2.85,2.85,0,0,0-.8-2.16,3.35,3.35,0,0,0-2.43-.78H410Z" fill="#4a696c"></path>
  <path d="M433.45,111.18h-7.28l-1.26,3.62h-3L428.17,97h3.31l6.23,17.77h-3Zm-.8-2.38-2.83-8.25L427,108.8Z" fill="#4a696c"></path>
  <path d="M454.72,114.8h-2.86l-8.59-13.25V114.8h-2.85V97h2.85l8.59,13.23V97h2.86Z" fill="#4a696c"></path>
  <path d="M458.71,101.22A8.49,8.49,0,0,1,461.94,98a8.82,8.82,0,0,1,4.47-1.16,9,9,0,0,1,4.95,1.39,7.91,7.91,0,0,1,3.14,3.94h-3.43a4.69,4.69,0,0,0-1.88-2.09,5.49,5.49,0,0,0-2.78-.69,6,6,0,0,0-3.08.79,5.54,5.54,0,0,0-2.12,2.27,8.21,8.21,0,0,0,0,6.9,5.57,5.57,0,0,0,2.12,2.28,5.88,5.88,0,0,0,3.08.81,5.49,5.49,0,0,0,2.78-.69,4.66,4.66,0,0,0,1.88-2.1h3.43a7.8,7.8,0,0,1-3.14,3.93,9,9,0,0,1-4.95,1.38,8.78,8.78,0,0,1-4.48-1.16,8.54,8.54,0,0,1-3.22-3.23,9.76,9.76,0,0,1,0-9.34Z" fill="#4a696c"></path>
  <path d="M480.69,99.41v5.2h6V107h-6v5.44h6.76v2.37h-9.62V97h9.62v2.38Z" fill="#4a696c"></path>
  <polygon points="78.56 547.76 84.74 547.44 149.65 482.07 101.65 463.42 67.62 488.09 75.69 543.83 78.56 547.76" fill="#231f20"></polygon>
  <path d="M78.31,548.28,75.21,544l0-.12-8.11-56,34.5-25,49,19L85,547.93Zm-2.14-4.64,2.63,3.61,5.72-.3,64.24-64.69-47-18.28L68.16,488.31Z" fill="#231f20"></path>
  <path d="M192.29,561.52c-2.76,14.7-7.54,25-12.4,32.12a33.53,33.53,0,0,1-27.69,14.67H125.54l0-.27c20.29-2.95,36.17-30.29,36.17-63.59,0-19.2-5.28-36.43-13.64-48.13l19.35,2.22Z" fill="#231f20"></path>
  <path d="M152.2,608.81H124.93l.24-1.21.35-.05c20-2.92,35.74-30.63,35.74-63.1,0-18.35-4.94-35.78-13.55-47.84l-.65-.92,20.77,2.38.11.28,24.86,63.12,0,.14c-2.4,12.84-6.6,23.71-12.47,32.31A34,34,0,0,1,152.2,608.81Zm-23.12-1H152.2a33,33,0,0,0,27.28-14.46c5.77-8.45,9.91-19.14,12.29-31.78L167.12,499l-18-2.06c8.34,12.18,13.1,29.42,13.1,47.51C162.26,576.1,148.22,602.44,129.08,607.81Z" fill="#231f20"></path>
  <path d="M447.35,584.58l-12.12,1.93L415.92,529l31.81-48.26,62.3.77c.57,0,12.12,12.84,12.12,12.84l-29.35,8.78Z" fill="#231f20"></path>
  <path d="M434.89,587.07l-19.52-58.15.13-.21,32-48.48h.28L510,481c.28,0,.79,0,12.49,13l.53.59-29.91,9L447.67,585Zm-18.42-58L435.57,586,447,584.13l45.43-81.43.2-.06,28.59-8.56c-4.14-4.59-10.38-11.37-11.34-12.08L448,481.23Z" fill="#231f20"></path>
  <path d="M359.48,308.35l124,98.09,178.89-33.58S562.91,313.61,528,301.1c0,0-26.48-9.87-41.33-10.53Z" fill="#fff"></path>
  <path d="M483.34,407l-.17-.14L358.25,308l128.39-17.94c14.85.65,41.31,10.47,41.57,10.56,34.52,12.38,133.42,71.21,134.41,71.8l1.14.68ZM360.71,308.68l122.9,97.23L661,372.62c-11.16-6.61-100.68-59.42-133.1-71.05-.27-.1-26.58-9.85-41.19-10.5Z" fill="#231f20"></path>
  <path d="M814.92,564C771.24,583.28,693,594.28,693,594.28c-66.32,11.92-99.62,10.62-113,9-1.21-.15-2.25-.3-3.13-.44a36,36,0,0,1-4.16-.86c-5.24-66.93-28.83-95.6-50.62-107.63a66.35,66.35,0,0,0-9.63-4.37,58.42,58.42,0,0,0-56.6,9.52c-37.76,30.57-18,91.49-18,91.49-86.82-15.4-265.87-26.39-265.87-26.39-4.84-70.05-46.36-87.84-46.36-87.84C80,461.56,78.23,506.31,78.23,506.31l.33,41.45c-48.44-15.52-39.37-81.58-39.37-81.58.33-9.73,3.08-15.73,4.74-18.5A11.4,11.4,0,0,0,45.49,443l4.39-39.94c2.25-4.71,4-8.06,5.31-10.42A14.77,14.77,0,0,1,64,385.61c8.88-2.53,16.89-4.22,21.35-5.08a16.41,16.41,0,0,0,6.82-3c89.11-67.34,116.13-71.64,116.13-71.64,76.48-16.3,146.9-19.82,146.9-19.82,92.89-7.05,127.83,2,127.83,2,40.82,8.59,57.68,16.85,57.68,16.85,44.07,20.15,120.92,65.44,120.92,65.44l-7.13.33-34.67-19.49c-66-37.69-93.59-48.48-102.78-51.45a19.93,19.93,0,0,0-7.15-.93C484.1,300.13,400,309,374.12,311.76a2.37,2.37,0,0,0-.88,4.41c37,20.65,80.39,60.49,80.39,60.49,23.65,19.16,42.77,20.15,42.77,20.15L497.7,409c.65,10.9,19.11,12.22,19.11,12.22l35.32,9.91c30.14,8.26,48,17.18,48,17.18l1.42.33c51.16,11.81,90.71,7.81,90.71,7.81,38.89-6.16,101.1-22.9,101.1-22.9,7.07,5.57,9.36,15.76,10.07,20.63a6.06,6.06,0,0,0,2.51,4.1C829.87,475,827,533.56,827,533.56,829.18,561.31,814.92,564,814.92,564Z" fill="#f58f74"></path>
  <path d="M600.46,604.82A170.75,170.75,0,0,1,580,603.76c-1.21-.15-2.26-.3-3.15-.44a33.14,33.14,0,0,1-4.23-.87l-.32-.1,0-.34c-5.37-68.62-30.35-96.19-50.36-107.24a68.83,68.83,0,0,0-9.56-4.34,58.2,58.2,0,0,0-56.11,9.45c-37.06,30-18,90.34-17.82,91l.26.79-.82-.15c-85.81-15.22-264-26.27-265.82-26.38l-.44,0,0-.44c-4.76-68.9-45.65-87.24-46.06-87.41-13.84-4.61-25-4.1-33.13,1.52-12.75,8.8-13.64,27.42-13.65,27.6l.33,42.12-.66-.21c-25.25-8.09-34.7-30-38.18-47a117.8,117.8,0,0,1-1.53-35.14c.34-9.82,3.16-15.93,4.81-18.68A11.09,11.09,0,0,0,45,443l4.39-40,0-.08c2-4.1,3.75-7.61,5.33-10.45a15.12,15.12,0,0,1,9.14-7.29c9.08-2.59,17.3-4.31,21.39-5.1a15.87,15.87,0,0,0,6.6-2.93c88.2-66.64,116.09-71.69,116.36-71.73,75.62-16.12,146.25-19.79,147-19.83,91.91-7,127.63,2,128,2.07,40.4,8.5,57.61,16.8,57.78,16.88,43.58,19.93,120.19,65,120.95,65.46l1.45.85-9,.42-34.8-19.56c-66.31-37.9-93.9-48.58-102.68-51.41a19.16,19.16,0,0,0-7-.91c-25.81,1.29-110.45,10.21-135.78,12.91a1.8,1.8,0,0,0-1.59,1.48,1.83,1.83,0,0,0,.9,2c36.62,20.43,80,60.15,80.48,60.55,23.22,18.8,42.27,20,42.46,20l.43,0L498.19,409c.62,10.36,18.48,11.76,18.66,11.77l.1,0,35.32,9.91c29,8,46.9,16.65,48,17.18l1.22.29.15,0c50.49,11.66,90.15,7.84,90.54,7.81,38.39-6.09,100.4-22.72,101-22.89l.25-.06.19.15c7.08,5.57,9.46,15.51,10.25,20.94a5.63,5.63,0,0,0,2.31,3.77c23.92,16.65,21.45,73.28,21.33,75.68,2.12,27.2-11.3,30.69-12.45,30.93-43.25,19-121.18,30.15-122,30.26C648.9,602.72,619.34,604.82,600.46,604.82Zm-27.22-3.24c.54.14,1.76.43,3.77.75.87.14,1.91.29,3.12.44,14,1.71,47.2,2.82,112.82-9,.8-.12,78.65-11.22,121.77-30.21l.1,0c.14,0,13.8-3,11.7-29.94,0-.65,2.57-58.55-20.9-74.88a6.6,6.6,0,0,1-2.73-4.44c-.61-4.22-2.78-14.55-9.68-20.15-4.32,1.16-63.67,16.94-100.91,22.85-.42,0-40.25,3.87-90.9-7.82l-.15,0c-.42-.1-.85-.19-1.27-.3l-.11,0c-.18-.08-18.13-9-47.87-17.13l-35.28-9.9c-1.3-.1-18.86-1.66-19.52-12.69l-1.26-11.79c-3-.29-21.05-2.75-42.63-20.22-.46-.42-43.8-40.06-80.31-60.44a2.81,2.81,0,0,1-1.4-3.08,2.78,2.78,0,0,1,2.47-2.27c25.33-2.71,110-11.62,135.83-12.92a20.48,20.48,0,0,1,7.34,1c8.81,2.84,36.48,13.55,102.86,51.49l34.55,19.42L660,370c-10.8-6.33-79.2-46.17-119.42-64.56-.18-.09-17.3-8.35-57.58-16.82-.37-.09-36-9-127.68-2-.72,0-71.28,3.71-146.84,19.81-.29,0-28.06,5.15-115.93,71.55a17.12,17.12,0,0,1-7,3.12c-4.07.78-12.26,2.49-21.31,5.07a14.14,14.14,0,0,0-8.54,6.82c-1.55,2.8-3.32,6.27-5.26,10.31L46,443.09a12,12,0,0,1-1.63,4.85c-1.6,2.67-4.34,8.6-4.67,18.26a116.48,116.48,0,0,0,1.51,34.88c3.4,16.55,12.56,37.88,36.85,46l-.32-40.75c0-.22.92-19.32,14.07-28.41,8.4-5.81,19.86-6.36,34.06-1.64.15.06,10.66,4.66,21.6,17.81,10,12.05,22.5,34,25.08,70,9.9.62,180.62,11.44,264.69,26.23-2.13-7.27-16.89-62.7,18.38-91.25a59.17,59.17,0,0,1,57.08-9.6,68.51,68.51,0,0,1,9.7,4.4C542.58,505.05,567.77,532.78,573.24,601.58Z" fill="#231f20"></path>
  <path d="M72.56,542.32a.49.49,0,0,1-.32-.12c-29-25-30.3-52.28-30.31-52.55a.5.5,0,0,1,.48-.52h0a.5.5,0,0,1,.5.48c0,.27,1.32,27.18,30,51.83a.51.51,0,0,1,0,.71A.52.52,0,0,1,72.56,542.32Z" fill="#fff"></path>
  <path d="M69.65,531.42a.5.5,0,0,1-.49-.4c-.12-.57-11.64-57.75,24.52-81.45.13-.09,13.84-8.83,29.69-5.26,10.72,2.42,19.94,9.8,27.39,21.94a.49.49,0,0,1-.17.68.48.48,0,0,1-.68-.16c-7.31-11.9-16.31-19.12-26.76-21.48-15.44-3.49-28.79,5-28.93,5.12C58.64,473.73,70,530.25,70.14,530.82a.51.51,0,0,1-.39.59Z" fill="#231f20"></path>
  <path d="M86.17,462.71a.45.45,0,0,1-.29-.1.49.49,0,0,1-.11-.69c.18-.24,17.72-23.29,43.43-8.4a.51.51,0,0,1,.18.69.52.52,0,0,1-.69.18c-24.92-14.44-41.95,7.89-42.12,8.12A.48.48,0,0,1,86.17,462.71Z" fill="#fff"></path>
  <path d="M70.3,488.48h-.09a113.38,113.38,0,0,1-28.33-9,.49.49,0,0,1-.22-.67.5.5,0,0,1,.67-.22,112.7,112.7,0,0,0,28.05,8.88.49.49,0,0,1,.41.58A.51.51,0,0,1,70.3,488.48Z" fill="#231f20"></path>
  <g opacity="0.2">
    <path d="M100.88,440.2a5.21,5.21,0,0,1-2.15-.47c-3.39-1.52-4.87-6.24-4.93-6.44a.5.5,0,1,1,1-.29s1.42,4.48,4.39,5.82a4.69,4.69,0,0,0,4-.16,8.16,8.16,0,0,0,3.88-3.92c1.84-3.71,5.47-13.19-.57-20.89a5.6,5.6,0,0,0-4.67-2.26c-3,.11-6.93,1.74-8.39,8.88a4,4,0,0,0,1.2,3.68l.08.08a2.87,2.87,0,0,1,.9,2.33,2.75,2.75,0,0,1-1.22,2.09c-1.42,1-2.64,1.24-3.63.83s-1.61-1.4-1.94-3a.51.51,0,0,1,.39-.59.5.5,0,0,1,.59.39c.26,1.26.71,2,1.34,2.29.82.33,1.92-.22,2.7-.74a1.75,1.75,0,0,0,.77-1.34A1.84,1.84,0,0,0,94,425l-.08-.08a5,5,0,0,1-1.5-4.61c1.67-8.19,6.57-9.58,9.34-9.68a6.76,6.76,0,0,1,5.49,2.64c6.39,8.15,2.6,18.07.68,22a9.26,9.26,0,0,1-4.36,4.38A6.34,6.34,0,0,1,100.88,440.2Z"></path>
  </g>
  <path d="M161.76,544.45c0,33.3-15.88,60.64-36.17,63.59a24.6,24.6,0,0,1-3.65.27c-22,0-39.83-28.59-39.83-63.86s17.84-63.87,39.83-63.87c10,0,19.18,5.93,26.18,15.74C156.48,508,161.76,525.25,161.76,544.45Z" fill="#f58f74"></path>
  <path d="M121.94,608.81c-22.24,0-40.33-28.87-40.33-64.36s18.09-64.37,40.33-64.37c9.81,0,19.25,5.66,26.58,15.95,8.74,12.22,13.74,29.87,13.74,48.42,0,33.5-15.73,61-36.59,64.09A26.21,26.21,0,0,1,121.94,608.81Zm0-127.73c-21.69,0-39.33,28.43-39.33,63.37s17.64,63.36,39.33,63.36a24.05,24.05,0,0,0,3.58-.26c20-2.92,35.74-30.63,35.74-63.1,0-18.35-4.94-35.78-13.55-47.84C140.57,486.59,131.42,481.08,121.94,481.08Z" fill="#231f20"></path>
  <ellipse cx="121.94" cy="546.34" rx="27.42" ry="45.03" fill="#fff"></ellipse>
  <path d="M121.94,591.87c-15.4,0-27.92-20.42-27.92-45.53s12.52-45.52,27.92-45.52,27.92,20.42,27.92,45.52S137.33,591.87,121.94,591.87Zm0-90.05c-14.84,0-26.92,20-26.92,44.52s12.08,44.53,26.92,44.53,26.92-20,26.92-44.53S136.78,501.82,121.94,501.82Z" fill="#231f20"></path>
  <path d="M109.69,512.46l6.65,15,5.06-.82,3.45-18.84S115.68,505.68,109.69,512.46Z" fill="#f58f74"></path>
  <path d="M116,528.06l-6.93-15.69.21-.24c6.11-6.92,15.55-4.79,15.65-4.77l.46.11-3.61,19.66Zm-5.76-15.51,6.36,14.4,4.33-.69,3.3-18C122.39,507.94,115.23,507.2,110.28,512.55Z" fill="#231f20"></path>
  <path d="M99.19,550.69l11.3-1.5.8-9.62-11-7.18S96.53,541.47,99.19,550.69Z" fill="#f58f74"></path>
  <path d="M98.83,551.24l-.12-.42c-2.68-9.27.92-18.25,1.08-18.62l.23-.56,11.79,7.67L111,549.64Zm1.67-18.09c-.72,2.07-3,9.48-1,17L110,548.75l.74-8.92Z" fill="#231f20"></path>
  <path d="M131.08,533.93l2.07,7.29,13.26.57s-1.41-14.85-6-21.08Z" fill="#f58f74"></path>
  <path d="M147,542.32l-14.19-.62-2.23-7.86,9.84-14,.41.56c4.64,6.27,6.06,20.72,6.12,21.34Zm-13.43-1.59,12.32.54c-.31-2.68-1.79-14.08-5.46-19.69L131.63,534Z" fill="#231f20"></path>
  <path d="M131.08,557l13.64,6s-3.58,14.19-9.78,16.49l-6.87-17.25Z" fill="#f58f74"></path>
  <path d="M134.65,580.2l-7.13-17.93,3.35-5.88,14.43,6.4-.1.4c-.15.59-3.71,14.47-10.09,16.84Zm-6-17.86,6.58,16.56c5.06-2.43,8.29-13.3,8.91-15.54l-12.83-5.69Z" fill="#231f20"></path>
  <path d="M119.33,563.36l-2,21.47s-9.13-2.87-12.13-11.6l8.55-13.51Z" fill="#f58f74"></path>
  <path d="M117.8,585.49l-.59-.18c-.39-.12-9.4-3.06-12.46-11.91l-.08-.23,9-14.15,6.23,4.09Zm-12-12.19c2.51,6.94,9.12,10,11.14,10.84l1.88-20.53-4.87-3.19Z" fill="#231f20"></path>
  <path d="M127.13,588.82a1.49,1.49,0,0,1-1.48-1.31l-2.82-22.24a1.5,1.5,0,1,1,3-.37l2.82,22.23a1.49,1.49,0,0,1-1.3,1.68Z" fill="#231f20"></path>
  <path d="M146.22,555.18a1.43,1.43,0,0,1-.5-.09l-12-4.31a1.5,1.5,0,1,1,1-2.83l12,4.32a1.5,1.5,0,0,1-.51,2.91Z" fill="#231f20"></path>
  <path d="M125.63,530.74a1.41,1.41,0,0,1-.6-.13,1.5,1.5,0,0,1-.77-2l7-16.1a1.5,1.5,0,0,1,2.75,1.21L127,529.84A1.49,1.49,0,0,1,125.63,530.74Z" fill="#231f20"></path>
  <path d="M112.75,534.28a1.5,1.5,0,0,1-1.29-.73l-8.84-14.76a1.5,1.5,0,0,1,2.58-1.54L114,532a1.51,1.51,0,0,1-.52,2.06A1.44,1.44,0,0,1,112.75,534.28Z" fill="#231f20"></path>
  <path d="M100.24,566.59a1.5,1.5,0,0,1-1.09-2.53l10.91-11.6a1.5,1.5,0,1,1,2.18,2l-10.91,11.6A1.47,1.47,0,0,1,100.24,566.59Z" fill="#231f20"></path>
  <ellipse cx="117.21" cy="538.87" rx="1.74" ry="2.64" fill="#231f20"></ellipse>
  <path d="M117.21,542c-1.25,0-2.24-1.38-2.24-3.14s1-3.14,2.24-3.14,2.24,1.38,2.24,3.14S118.47,542,117.21,542Zm0-5.28c-.66,0-1.24,1-1.24,2.14s.58,2.14,1.24,2.14,1.24-1,1.24-2.14S117.88,536.73,117.21,536.73Z" fill="#231f20"></path>
  <ellipse cx="125.02" cy="537.14" rx="1.74" ry="2.64" fill="#231f20"></ellipse>
  <path d="M125,540.28c-1.26,0-2.24-1.38-2.24-3.14s1-3.13,2.24-3.13,2.24,1.38,2.24,3.13S126.27,540.28,125,540.28Zm0-5.27c-.66,0-1.24,1-1.24,2.13s.58,2.14,1.24,2.14,1.24-1,1.24-2.14S125.68,535,125,535Z" fill="#231f20"></path>
  <ellipse cx="128.22" cy="549.13" rx="1.74" ry="2.64" fill="#231f20"></ellipse>
  <path d="M128.22,552.26c-1.26,0-2.24-1.38-2.24-3.13s1-3.14,2.24-3.14,2.24,1.38,2.24,3.14S129.47,552.26,128.22,552.26Zm0-5.27c-.67,0-1.24,1-1.24,2.14s.57,2.13,1.24,2.13,1.24-1,1.24-2.13S128.88,547,128.22,547Z" fill="#231f20"></path>
  <ellipse cx="122.39" cy="558.9" rx="2.63" ry="1.74" transform="translate(-449.14 585.48) rotate(-80.31)" fill="#231f20"></ellipse>
  <path d="M122.14,562l-.3,0c-1.24-.23-2-1.76-1.66-3.49a3.64,3.64,0,0,1,1.36-2.35,1.83,1.83,0,0,1,1.39-.33c1.24.22,2,1.75,1.66,3.48h0a3.64,3.64,0,0,1-1.36,2.35A1.91,1.91,0,0,1,122.14,562Zm.49-5.23a.93.93,0,0,0-.52.19,2.61,2.61,0,0,0-.94,1.7c-.2,1.12.2,2.21.85,2.33a.89.89,0,0,0,.64-.18,2.69,2.69,0,0,0,1-1.7h0c.19-1.12-.2-2.21-.86-2.33Z" fill="#231f20"></path>
  <ellipse cx="116.18" cy="552" rx="2.64" ry="1.74" transform="translate(-442.56 629.54) rotate(-86.01)" fill="#231f20"></ellipse>
  <path d="M116.08,555.13H116c-1.25-.09-2.13-1.54-2-3.29a3.58,3.58,0,0,1,1.11-2.48,1.84,1.84,0,0,1,1.35-.49c1.25.1,2.13,1.54,2,3.3a3.62,3.62,0,0,1-1.11,2.48A1.85,1.85,0,0,1,116.08,555.13Zm.2-5.26a.91.91,0,0,0-.57.24,2.71,2.71,0,0,0-.77,1.8c-.08,1.13.43,2.17,1.09,2.22a.86.86,0,0,0,.62-.24,2.71,2.71,0,0,0,.77-1.8c.08-1.13-.43-2.17-1.09-2.22Z" fill="#231f20"></path>
  <path d="M580.06,603.27c-2.18,16.29-12.33,27.34-19.57,33.3a24.43,24.43,0,0,1-14.5,5.56l-41.5,1.7v-.15c28-3.7,49.45-35.7,48.6-74.09-.89-40.42-26.11-72.63-56.33-71.94a41.07,41.07,0,0,0-8.82,1.16l0-.36a284.55,284.55,0,0,1,34.19-4l.07-.13c21.79,12,45.38,40.7,50.62,107.63A48.21,48.21,0,0,0,580.06,603.27Z" fill="#231f20"></path>
  <path d="M504,644.35l-.11-1.1.48-.06c13.47-1.78,25.83-10.24,34.79-23.82S553,588,552.58,569.6c-.43-19.44-6.49-37.58-17.06-51.09s-24.3-20.69-38.76-20.36a41.26,41.26,0,0,0-8.71,1.14l-.56.14-.15-1.38.46-.09a286.29,286.29,0,0,1,34-4l.17-.33.45.25c20.19,11.15,45.38,38.88,50.85,107.68a55.94,55.94,0,0,0,6.89,1.19l.5.06-.07.5c-2.17,16.14-11.94,27.2-19.75,33.63a25.1,25.1,0,0,1-14.8,5.67Zm-4.91-147.19c13.89.47,27,7.76,37.17,20.74,10.71,13.67,16.85,32,17.28,51.68.41,18.6-4.4,36.48-13.55,50.34-7.92,12-18.46,20.07-30.1,23.19l36-1.48a24,24,0,0,0,14.2-5.45c7.6-6.24,17.07-16.93,19.33-32.48a45.19,45.19,0,0,1-6.88-1.25l-.32-.1,0-.34c-5.34-68.23-30.07-95.88-50-107h-.14C522,495,511.6,495.47,499.13,497.16Z" fill="#231f20"></path>
  <path d="M814.92,564c-.52,3.31-1.08,6.1-1.57,8.28a10.22,10.22,0,0,1-6,7.19C725,614.2,577.42,615,577.42,615l-.49-12.19c.88.14,1.92.29,3.13.44,13.36,1.63,46.66,2.93,113-9C693,594.28,771.24,583.28,814.92,564Z" fill="#f58f74"></path>
  <path d="M576.94,615.52l-.54-13.28.6.09c.88.14,1.92.29,3.13.44,14,1.71,47.2,2.82,112.82-9,.8-.12,78.65-11.22,121.77-30.21l.83-.37-.14.9c-.44,2.86-1,5.66-1.58,8.31a10.75,10.75,0,0,1-6.25,7.55c-81.52,34.33-228.68,35.54-230.16,35.55Zm.51-12.11.45,11.1c9.39-.1,150.3-2.2,229.29-35.47a9.75,9.75,0,0,0,5.67-6.84c.53-2.35,1-4.82,1.42-7.34-43.4,18.83-120.39,29.81-121.17,29.91-65.73,11.82-99.08,10.71-113.11,9C579.05,603.65,578.2,603.53,577.45,603.41Z" fill="#231f20"></path>
  <path d="M818.87,496c.57,3.94,4.77,34.75-.38,46.49,0,0-13.29,19.82-70,23.45,0,0-8.75,1-11-6.27a189.82,189.82,0,0,1-11.32-38.76,1.88,1.88,0,0,1,1.6-2.21c10.45-1.28,60.56-8,90.68-22.93A.3.3,0,0,1,818.87,496Z" fill="#231f20"></path>
  <path d="M747.52,566.47c-2.45,0-8.63-.62-10.52-6.66A192.24,192.24,0,0,1,725.67,521a2.42,2.42,0,0,1,.43-1.86,2.33,2.33,0,0,1,1.6-.94c9.83-1.2,60.38-8,90.52-22.88a.82.82,0,0,1,.73,0,.83.83,0,0,1,.42.6h0c.51,3.53,4.8,34.85-.42,46.76-.59.9-14.12,20.15-70.42,23.75C748.52,566.43,748.14,566.47,747.52,566.47Zm70.9-70.14c-30.32,14.91-80.77,21.65-90.6,22.85a1.35,1.35,0,0,0-.92.55,1.38,1.38,0,0,0-.25,1.08,191,191,0,0,0,11.29,38.65c2.13,6.83,10.16,6,10.5,6,55.84-3.58,69.5-23,69.63-23.24C823,530.88,819.06,500.91,818.42,496.33Zm0-.27Z" fill="#231f20"></path>
  <path d="M577.82,530.53l13,40.11a13.08,13.08,0,0,0,12.7,7.9s68.67,2,84.39-4.83c0,0,0-24.47-37.93-33.56,0,0-36.84-8.72-71.09-11.09A1.12,1.12,0,0,0,577.82,530.53Z" fill="#231f20"></path>
  <path d="M625.76,579.32c-12,0-21.2-.25-22.2-.28a13.74,13.74,0,0,1-13.16-8.22l-13-40.13a1.63,1.63,0,0,1,.27-1.52,1.6,1.6,0,0,1,1.36-.61c33.89,2.35,70.8,11,71.17,11.1,37.83,9.08,38.31,33.81,38.31,34.05V574l-.3.13C678.13,578.51,647.31,579.32,625.76,579.32ZM603.56,578c.71,0,67.85,1.87,83.88-4.65-.2-2.92-2.87-24.44-37.52-32.76-.37-.08-37.2-8.73-71-11.08a.62.62,0,0,0-.51.23.64.64,0,0,0-.1.6h0l13.05,40.11A12.41,12.41,0,0,0,603.56,578Z" fill="#231f20"></path>
  <g opacity="0.2">
    <path d="M777.77,487.94c1-15-5.73-18.33-10.3-18.89a7.06,7.06,0,0,0-7.31,3.88c-3.53,7.68,8.58,16.85,8.58,16.85s-30.72,8.37-53.39,9.88a102.07,102.07,0,0,1,6.57-29.81s48.62-10.89,79.84-13.23a105.13,105.13,0,0,1,11,21.44,296.08,296.08,0,0,1-31.87,9.21Z"></path>
  </g>
  <path d="M692.62,478.76a45.13,45.13,0,0,1-3,15.61,8.26,8.26,0,0,1-7.08,5.13c-40.61,2.51-84.88-7.89-84.88-7.89-22.62-4.09-31.87-29-34.64-38.68a3,3,0,0,1,2.82-3.89l35.34-.35.33,0c51.16,11.81,90.71,7.81,90.71,7.81Z" fill="#fff"></path>
  <path d="M669.45,500.38c-36.18,0-71.51-8.19-71.91-8.28-22.68-4.1-32-28.67-35-39a3.57,3.57,0,0,1,.57-3.13,3.43,3.43,0,0,1,2.73-1.39l35.71-.38.08,0c50.49,11.66,90.15,7.84,90.54,7.81l.54-.06.41,22.85a46.08,46.08,0,0,1-3,15.79,8.67,8.67,0,0,1-7.5,5.42C678.23,500.26,673.83,500.38,669.45,500.38Zm-68-51.21-.25,0-35.37.35a2.44,2.44,0,0,0-1.94,1,2.57,2.57,0,0,0-.41,2.26c2.92,10.19,12.09,34.32,34.25,38.33.46.11,44.7,10.36,84.76,7.88a7.69,7.69,0,0,0,6.64-4.82,44.68,44.68,0,0,0,3-15.43L691.73,457C686.8,457.44,648.89,460.11,601.47,449.17Z" fill="#231f20"></path>
  <path d="M669.16,493.25c-7.69,0-13.95-7.1-13.95-15.82a17.27,17.27,0,0,1,.28-3.13.48.48,0,0,1,.57-.4.49.49,0,0,1,.41.58,17.12,17.12,0,0,0-.26,2.95c0,8.17,5.81,14.82,12.95,14.82s13-6.65,13-14.82-5.81-14.81-13-14.81a12.39,12.39,0,0,0-10.39,6,.5.5,0,0,1-.69.14.49.49,0,0,1-.15-.69,13.54,13.54,0,0,1,11.23-6.43c7.69,0,14,7.09,14,15.81S676.85,493.25,669.16,493.25Z" fill="#231f20"></path>
  <path d="M663.66,494.24c-9.39,0-19.83-9.72-20.35-10.2a.5.5,0,0,1,.69-.73c.14.13,14.52,13.51,24.11,9a.5.5,0,0,1,.67.23.51.51,0,0,1-.24.67A11.34,11.34,0,0,1,663.66,494.24Z" fill="#231f20"></path>
  <path d="M644,469.8a.49.49,0,0,1-.43-.24.49.49,0,0,1,.17-.68c.56-.35,14-8.41,23.69-7.07a.5.5,0,1,1-.13,1c-9.35-1.28-22.91,6.85-23,6.93A.48.48,0,0,1,644,469.8Z" fill="#231f20"></path>
  <path d="M624.76,493.07a12.41,12.41,0,0,1-6.8-2.33,20.74,20.74,0,0,1-8.56-13,23.32,23.32,0,0,1,0-10.9,14.44,14.44,0,0,1,16.42-10.65c10.51,1.7,14.76,12.67,14.8,12.78a.5.5,0,0,1-.93.35c0-.1-4.1-10.53-14-12.14a13.45,13.45,0,0,0-15.3,9.91,22.31,22.31,0,0,0,0,10.44,19.66,19.66,0,0,0,8.14,12.4c2.94,2,5.75,2.59,8.33,1.89,3.28-.89,6.23-4,8.75-9.09a.51.51,0,0,1,.67-.23.5.5,0,0,1,.23.67c-2.66,5.41-5.81,8.65-9.39,9.62A8.87,8.87,0,0,1,624.76,493.07Z" fill="#231f20"></path>
  <path d="M600.34,485a1,1,0,0,0,.83-1.4c-1.64-3.74-6.12-15.21-4.44-25.79,0,0,1.12-5.67-7-4.73l-18.37.19s-5,.95-.37,9.46l7.79,13.61S585.21,486.27,600.34,485Z" fill="#f1c058"></path>
  <path d="M597.67,485.58c-13.35,0-19.29-8.91-19.35-9l-7.8-13.64c-2-3.61-2.51-6.39-1.62-8.27a3.47,3.47,0,0,1,2.33-1.92l18.45-.2c3-.35,5.22.16,6.49,1.53a4.63,4.63,0,0,1,1.05,3.8c-1.67,10.53,2.95,22.17,4.41,25.49a1.51,1.51,0,0,1-1.25,2.1h0C599.45,485.54,598.54,485.58,597.67,485.58Zm-26.34-31.85a2.57,2.57,0,0,0-1.54,1.37c-.5,1.09-.63,3.24,1.6,7.35l7.79,13.6c0,.07,6.48,9.68,21.12,8.41h0a.47.47,0,0,0,.38-.24.5.5,0,0,0,0-.46c-1.48-3.38-6.19-15.24-4.47-26.07a3.68,3.68,0,0,0-.82-2.95c-1-1.11-2.94-1.52-5.68-1.2l-18.41.19Z" fill="#231f20"></path>
  <path d="M275.75,563.68l-.11,0c-34.4-8.06-78.35-11.78-78.8-11.82-23.35,1.24-26.05-27.51-26.07-27.8L140,390.67a.49.49,0,0,1,.37-.6.5.5,0,0,1,.6.37l30.82,133.45c0,.35,2.63,28.12,25.11,27,.51,0,44.54,3.77,79,11.85a.5.5,0,0,1,.38.6A.51.51,0,0,1,275.75,563.68Z" fill="#231f20"></path>
  <path d="M251.91,310.84c-51.26,4.06-86.69,29.77-102,43.25a30.38,30.38,0,0,0-10,18.53L138.89,380a5.87,5.87,0,0,0,5.19,6.71l302.69,28.73a4.05,4.05,0,0,0,3.55-6.48c-8.42-11.41-32.12-37.45-103.54-88.84a39.67,39.67,0,0,0-18-7.19C308.4,310.27,269.7,309.43,251.91,310.84Z" fill="#231f20"></path>
  <g opacity="0.2">
    <path d="M168.11,348.79s-7,19.65-7,34.17l-14-1.32a3.33,3.33,0,0,1-3-3.09c-.33-4.33,0-12.56,6.06-17Z"></path>
  </g>
  <g opacity="0.2">
    <path d="M174,349.37c-2.61,8.53-7.09,24.66-6.93,34.48l235.89,19.2,1.1-31s-22.45-22.67-63.34-49.09a23.29,23.29,0,0,0-8.69-3.4c-13.56-2.34-54.4-7.87-102.59.17a78.67,78.67,0,0,0-19.84,6.13c-7.2,3.29-17.61,8.37-28.69,14.8A15.27,15.27,0,0,0,174,349.37Z"></path>
  </g>
  <path d="M396.54,374.85a11.91,11.91,0,0,1,3.49,2.79c3.16,3.65,10.81,13.43,9.07,20.7,0,0-1.44,14.76-21.48,11.31L355,406.47a15.48,15.48,0,0,1-13.62-11.87c-.72-3.16-.36-6.35,2.52-8.57C351.54,380.16,380.49,366.44,396.54,374.85Z" fill="#f58f74"></path>
  <path d="M393.33,410.68a34.7,34.7,0,0,1-5.79-.53L355,407a15.92,15.92,0,0,1-14.06-12.26c-.89-3.95,0-7,2.7-9.07,8.31-6.41,37.22-19.58,53.14-11.24h0a12.54,12.54,0,0,1,3.64,2.92c3.35,3.87,11,13.68,9.18,21.13a14,14,0,0,1-5.29,9C401.47,409.59,397.79,410.68,393.33,410.68Zm-9.17-38c-15.2,0-33.6,8.86-39.92,13.74-2.35,1.81-3.13,4.53-2.33,8.06A14.9,14.9,0,0,0,355.09,406l32.58,3.18c6.89,1.19,12.27.35,16-2.5a13.25,13.25,0,0,0,4.93-8.36c1.68-7.07-5.7-16.56-9-20.32a11.29,11.29,0,0,0-3.35-2.68A26.09,26.09,0,0,0,384.16,372.69Z" fill="#231f20"></path>
  <path d="M441,408.68a.52.52,0,0,1-.29-.09c-.46-.33-11.46-8.06-12.56-8.87-11.22-8.34-18.57-6.58-18.64-6.56a.5.5,0,0,1-.25-1c.31-.08,7.85-1.93,19.49,6.73,1.08.8,12.42,8.77,12.54,8.85a.49.49,0,0,1,.12.69A.5.5,0,0,1,441,408.68Z" fill="#fff"></path>
  <path d="M752.36,274.19a13.36,13.36,0,0,1-2.07,5.83c-7.56,11.65-38.74,59.63-58.73,88.2,0,0,7.17,7.66,3.42,17.75l-7.17,1s5.8-12.88-3.07-11.49c0,0-13-21.57-54.62-24.35,0,0-43.68-6.62-123.21,36.18,0,0-.68-2.78,3.41-10.79,0,0,31.06-73.76,51.2-93.24,0,0,66.56-58.11,105.13-56,0,0,46.94-1.27,70.35,4.46a18.53,18.53,0,0,1,12.06,9.57,19.07,19.07,0,0,1,1.4,3.6C752.25,251.36,753.69,261.06,752.36,274.19Z" fill="#f58f74"></path>
  <path d="M506.57,388.11l-.15-.63c0-.12-.68-3.05,3.46-11.14.29-.7,31.31-74,51.29-93.37.69-.6,67.15-58.28,105.51-56.17.42,0,47.23-1.21,70.44,4.47a19.2,19.2,0,0,1,13.82,13.52c1.64,5.9,3.3,15.8,1.92,29.45h0a13.94,13.94,0,0,1-2.15,6.05c-6.23,9.61-38.24,58.89-58.51,87.9,1.28,1.57,6.64,8.83,3.25,17.95l-.1.28L687,387.64l.38-.83c.89-2,2.84-7.63,1.13-9.87-.67-.89-1.91-1.2-3.68-.91l-.33.05-.17-.29c-.13-.21-13.35-21.38-54.22-24.11-.48-.07-44.51-6.09-123,36.12ZM664.64,227.75c-38.25,0-102.14,55.38-102.79,55.95C542,302.88,511.09,376,510.78,376.77c-2.83,5.54-3.34,8.53-3.41,9.77,78.33-42,122.39-35.93,122.83-35.86,38.8,2.59,53,21.75,54.78,24.31,2-.24,3.44.21,4.3,1.34,2,2.59.15,8-.67,10.06l6-.87c3.37-9.54-3.34-16.88-3.41-16.95l-.28-.3.23-.33c20.25-29,52.47-78.55,58.72-88.19a13,13,0,0,0,2-5.62h0c1.37-13.49-.27-23.25-1.88-29.07a17.78,17.78,0,0,0-1.37-3.5,18,18,0,0,0-11.73-9.32c-23.08-5.64-69.75-4.45-70.22-4.44C666,227.76,665.32,227.75,664.64,227.75Z" fill="#231f20"></path>
  <g opacity="0.1">
    <path d="M686.1,342.48s-59.73-4.18-117.75,9.39c0,0-41,12.87-31.75-7.31,0,0,31.41-56,43.69-61.93,0,0,22.44-11.58,55.92-21a83.62,83.62,0,0,1,19.61-3.1c11.62-.44,31.38-.87,46,.48a38.23,38.23,0,0,1,26.06,13.6c3.35,4,5.64,8.5,4,12.12,0,0-14.68,27.48-31.4,47.32C700.44,332,695,341.08,686.1,342.48Z"></path>
  </g>
  <path d="M793.32,433.58s8.49-9-5.84-15.95L712,392.93a349.55,349.55,0,0,1-50.38-22.55s-53.72,6.19-108.33,15.94c0,0-51.4,7.07-56.93,10.49L497.7,409s-1,9.93,19.11,12.22c0,0,65.88,17.08,83.28,27.09,0,0,50.46,12.2,92.13,8.14C692.22,456.48,739.44,448.15,793.32,433.58Z" fill="#231f20"></path>
  <path d="M525.14,423.76s1.68-16,27.22-16.87l153.9-22.77A2.57,2.57,0,0,1,709,385.6l7.66,16.25a2.66,2.66,0,0,1-2,3.78L563.67,424.18s-11.56.52-11.54,7Z" fill="#fff"></path>
  <path d="M552.64,431.82l-28-7.69,0-.43c0-.16,2-16.45,27.7-17.31l153.83-22.76a3,3,0,0,1,3.24,1.75l7.66,16.26a3.16,3.16,0,0,1-.09,2.9,3.09,3.09,0,0,1-2.33,1.59L563.73,424.68c-.15,0-11.11.57-11.1,6.48Zm-26.93-8.43,26,7.13c.68-6.26,11.5-6.82,12-6.84l150.89-18.55a2.05,2.05,0,0,0,1.57-1.07,2.15,2.15,0,0,0,.06-2l-7.65-16.26a2.08,2.08,0,0,0-2.19-1.19L552.44,407.39C529.87,408.15,526.21,420.91,525.71,423.39Z" fill="#231f20"></path>
  <path d="M515,410.69a.52.52,0,0,1-.21,0l-9.07-4.14a.5.5,0,0,1,.41-.91l8.72,4c1.81-2.23,13.33-15.21,37.6-17.66l107.46-16.55c.21-.06,6.28-1.52,11.09,1.91,3.18,2.27,5,6.12,5.49,11.44a.5.5,0,1,1-1,.09c-.43-5-2.14-8.62-5.07-10.71-4.44-3.17-10.25-1.77-10.31-1.75L552.55,392.91c-26,2.63-37.07,17.43-37.17,17.58A.51.51,0,0,1,515,410.69Z" fill="#fff"></path>
  <path d="M662.82,454a.5.5,0,0,1-.48-.39.49.49,0,0,1,.37-.6l47.9-11.16a11.93,11.93,0,0,1,5.35,0c3.15.71,9,2.52,13.15,6.7a.51.51,0,0,1,0,.71.5.5,0,0,1-.71,0c-3.92-4-9.61-5.74-12.65-6.42a10.81,10.81,0,0,0-4.9,0L662.94,454Z" fill="#fff"></path>
  <path d="M729,433.57s-2.87-11.93,8.12-13.88l24.6-1.95s8.92-1.13,3.27,8.89a4.14,4.14,0,0,0-.53,2.23c.14,2.48-.27,7.86-7.15,4a6.52,6.52,0,0,0-3.61-.83Z" fill="#fff"></path>
  <path d="M761.36,434.7a9.26,9.26,0,0,1-4.31-1.43,5.9,5.9,0,0,0-3.33-.77l-25.12,1.59-.1-.4c-.06-.24-1.37-5.9,1.44-10.19a10.12,10.12,0,0,1,7.08-4.3l24.65-1.95c.12,0,3.62-.44,5.08,1.74,1.13,1.67.68,4.32-1.33,7.89a3.66,3.66,0,0,0-.47,1.95c.09,1.54,0,4.29-1.82,5.4A3.29,3.29,0,0,1,761.36,434.7Zm-7.26-3.22a7,7,0,0,1,3.44.92c2.28,1.28,4,1.62,5.07,1,1.34-.84,1.42-3.17,1.35-4.49a4.51,4.51,0,0,1,.59-2.5c1.78-3.16,2.25-5.53,1.37-6.84-1.12-1.67-4.12-1.31-4.15-1.31l-24.62,1.95a9.16,9.16,0,0,0-6.37,3.85c-2.16,3.3-1.62,7.66-1.39,9l24.27-1.54Z" fill="#231f20"></path>
  <path d="M717.28,443.08a.5.5,0,0,1-.49-.42,8.19,8.19,0,0,1,1.88-6.19c2.05-2.35,5.52-3.5,10.33-3.4a.5.5,0,0,1,.49.51.52.52,0,0,1-.51.49c-4.49-.08-7.7.94-9.55,3.05a7.21,7.21,0,0,0-1.65,5.38.5.5,0,0,1-.42.57Z" fill="#fff"></path>
  <path d="M765.77,425.3a.45.45,0,0,1-.27-.08.5.5,0,0,1-.15-.69c.09-.14,2.25-3.44,5.85-3.81,2.36-.24,4.76.85,7.11,3.25a.49.49,0,0,1,0,.7.48.48,0,0,1-.7,0c-2.13-2.17-4.25-3.16-6.29-2.95-3.12.31-5.1,3.33-5.12,3.36A.51.51,0,0,1,765.77,425.3Z" fill="#fff"></path>
  <path d="M583.07,433.65a5.07,5.07,0,0,1-3.2-.6,7.6,7.6,0,0,0-2.56-.94s-4.54-1.71,6-2.92l52.55-9.74s6.93-1,6.69,3.89c0,0-1.5,3.73,3.64,5.36a.16.16,0,0,1,0,.32c-3.8.36-19.25,2.24-43.75,10.64,0,0-9.31,4.14-12.18-1.71A6.28,6.28,0,0,0,583.07,433.65Z" fill="#fff"></path>
  <path d="M596,441.6c-2.42,0-4.88-.77-6.19-3.43a5.8,5.8,0,0,0-6.63-4h0a5.54,5.54,0,0,1-3.52-.66,7.12,7.12,0,0,0-2.39-.88c-.32-.11-1.48-.6-1.37-1.48s1-1.7,7.38-2.43L635.74,419c.19,0,4.09-.55,6.11,1.29a3.79,3.79,0,0,1,1.17,3.12l0,.16a3.21,3.21,0,0,0,.12,2.37,5,5,0,0,0,3.2,2.32.67.67,0,0,1,.47.71.65.65,0,0,1-.59.59c-4.11.39-19.39,2.3-43.63,10.61A18.5,18.5,0,0,1,596,441.6Zm-11.81-8.52a6.78,6.78,0,0,1,6.55,4.74c2.6,5.26,11.41,1.42,11.5,1.38,22.22-7.61,37-9.89,42.53-10.53a5.07,5.07,0,0,1-2.52-2.36,4.19,4.19,0,0,1-.17-3.06,2.77,2.77,0,0,0-.85-2.26c-1.67-1.53-5.24-1.05-5.28-1.05l-52.52,9.74c-6,.7-6.51,1.49-6.55,1.57a2.14,2.14,0,0,0,.66.39,8,8,0,0,1,2.64,1,4.5,4.5,0,0,0,2.88.53h0A8.9,8.9,0,0,1,584.14,433.08ZM646,429.17h0Z" fill="#231f20"></path>
  <path d="M590.21,438.45a.52.52,0,0,1-.29-.09c-6.84-4.89-16.35-.25-16.44-.2a.5.5,0,0,1-.67-.23.49.49,0,0,1,.22-.67c.41-.2,10.14-4.94,17.47.29a.49.49,0,0,1,.12.69A.49.49,0,0,1,590.21,438.45Z" fill="#fff"></path>
  <path d="M698.65,446.24a.49.49,0,0,1-.49-.42h0c0-.05-.84-4.81-9.64-6.65l-33.94-9a39.5,39.5,0,0,0-8.4-1h0a.5.5,0,0,1-.5-.5.49.49,0,0,1,.52-.5,39.7,39.7,0,0,1,8.64,1l33.93,9c9.52,2,10.37,7.25,10.4,7.48a.5.5,0,0,1-.43.56Z" fill="#fff"></path>
  <path d="M626.52,449.64s3.58-8,12.66-8.52l19.8-.87a2.32,2.32,0,0,1,2.41,2.35h0a2.32,2.32,0,0,1-2.54,2.34c-5.59-.57-19-1.23-25.88,4.46" fill="#fff"></path>
  <path d="M627,449.84l-.91-.4c0-.09,3.82-8.32,13.09-8.82l19.81-.87a2.86,2.86,0,0,1,2,5,2.75,2.75,0,0,1-2.15.71c-5.42-.56-18.76-1.24-25.51,4.34l-.64-.77c7-5.82,20.71-5.13,26.25-4.57a1.79,1.79,0,0,0,1.38-.45,1.87,1.87,0,0,0,.61-1.39,1.84,1.84,0,0,0-.57-1.35,1.68,1.68,0,0,0-1.32-.5l-19.8.87C630.55,442.08,627,449.77,627,449.84Z" fill="#231f20"></path>
  <ellipse cx="700.57" cy="436.7" rx="5.49" ry="3.12" transform="translate(7.62 885.38) rotate(-64.86)" fill="#fff"></ellipse>
  <path d="M699,442.34a2.42,2.42,0,0,1-1.06-.24c-1.81-.9-2.1-4-.65-7a7.3,7.3,0,0,1,3.76-3.86,2.63,2.63,0,0,1,2.07.07c1.81.9,2.1,4,.65,7a7.3,7.3,0,0,1-3.76,3.86A3.08,3.08,0,0,1,699,442.34Zm3.05-10.29a1.89,1.89,0,0,0-.67.13,6.35,6.35,0,0,0-3.19,3.35c-1.17,2.44-1.08,5,.19,5.67a1.66,1.66,0,0,0,1.3,0,6.46,6.46,0,0,0,3.19-3.35c1.17-2.44,1.08-5-.2-5.68A1.38,1.38,0,0,0,702.09,432.05Z" fill="#231f20"></path>
  <path d="M688.14,434.07a.49.49,0,0,1-.48-.38c-.19-.77-1.74-7.58,1.14-9.43,1.72-1.1,4.41-.18,8.25,2.83a.49.49,0,0,1,.08.7.51.51,0,0,1-.7.09c-3.36-2.64-5.81-3.6-7.09-2.78-1.93,1.24-1.17,6.45-.71,8.35a.51.51,0,0,1-.37.61Z" fill="#fff"></path>
  <path d="M677.15,436.26a.48.48,0,0,1-.48-.4c-.08-.37-1.72-9,2.24-10.31a.48.48,0,0,1,.29,0c.15,0,3.83,1.11,8.18,8.51a.5.5,0,1,1-.86.5c-3.64-6.18-6.76-7.72-7.45-8-2.42,1.07-1.86,6.91-1.42,9.12a.5.5,0,0,1-.4.58Z" fill="#fff"></path>
  <path d="M722.54,420.68h-.06L685,416.54a.5.5,0,0,1,.11-1l37.5,4.14a.5.5,0,0,1-.05,1Z" fill="#fff"></path>
  <g opacity="0.1">
    <path d="M670.47,440.87s0-12.07-3.54-22.86a23.45,23.45,0,0,0-17.32-15.67c-12.3-2.65-34.8-10.23-32.89-30.13a80,80,0,0,1,11.44-34.5,48.69,48.69,0,0,1,5.76-7.27c3.15-3.34,8.91-11,7-20.49a18.58,18.58,0,0,0-4.63-8.8c-4.95-5.43-16.3-22.08,4.09-44.84,0,0,28.9-26.79,59.24,1.7a48.89,48.89,0,0,1,13.68,35c-.25,11.43-5.75,22.19-15.19,28.37-.36.24-.74.48-1.12.71,0,0-6,.73-1.43,10.47,0,0,9.27,15.13,1.47,32.38a31.26,31.26,0,0,1-10.31,12.31c-4.65,3.37-11.3,10.36-6.21,20.57C680.5,397.78,692.2,423.59,670.47,440.87Z"></path>
  </g>
  <g opacity="0.1">
    <path d="M665,437.47s-2.62-26.79-22.69-29.22c0,0-31.53-5.36-38.21-31.66,0,0-6.22-16.31,9.07-38.47,0,0,8.86-11.76.56-29.81a28.17,28.17,0,0,0-4-6.19c-4.47-5.41-14.87-21.64,2.23-40.46,0,0,31.8-30.17-2-48a29.54,29.54,0,0,0-29.56.74c-8.21,5.17-15.13,15.34-10.57,35.35a46.55,46.55,0,0,0,3.44,9.53c1.8,3.77,3.66,11.17-4.56,17.82a44,44,0,0,0-6.57,6.45c-5.73,7.1-14.14,20.72-6.26,32.44A20.69,20.69,0,0,0,565,323.4a149.44,149.44,0,0,1,19.24,9.66,13.17,13.17,0,0,1,5.83,13.84c-.92,4.22-4,9.27-11.34,14.6,0,0-21,13.63-12.42,35.06,0,0,5.73,11.44,32.24,9.5,0,0,20.8-1.75,22.17,11.11a14.54,14.54,0,0,0,4.14,9.06c3.13,3,8.45,5.27,17.16,2.23C642,428.46,654.46,424.32,665,437.47Z"></path>
  </g>
  <g opacity="0.1">
    <path d="M621.5,285.05a.49.49,0,0,1-.49-.41c0-.21-3.69-21.61,11.11-37.92l10.26-12.16c.19-.18,14.77-14,7.79-36.3a.5.5,0,0,1,.32-.63.51.51,0,0,1,.63.33c7.18,22.93-7.87,37.15-8,37.29l-10.23,12.13C618.39,263.33,622,284.26,622,284.46a.5.5,0,0,1-.4.59Z" fill="#231f20"></path>
  </g>
  <g opacity="0.1">
    <path d="M643.24,248a.53.53,0,0,1-.4-.19.5.5,0,0,1,.09-.7c.23-.18,22.59-17.94,15.59-47.22a.5.5,0,1,1,1-.23c7.16,29.92-15.71,48.06-16,48.24A.49.49,0,0,1,643.24,248Z" fill="#231f20"></path>
  </g>
  <path d="M421.53,576.22h0a.49.49,0,0,1-.46-.53l7-103.92c.3-29.47,15.71-52.89,15.86-53.13a.5.5,0,0,1,.7-.13.49.49,0,0,1,.13.69c-.15.23-15.39,23.42-15.69,52.61l-7,104A.49.49,0,0,1,421.53,576.22Z" fill="#231f20"></path>
  <path d="M570.18,520.86a.5.5,0,0,1-.46-.3c-15.74-37.51-42.21-52.33-61.64-58.16a98.67,98.67,0,0,0-38.85-3.71c-15.39,1.24-34.85-2.13-35.05-2.16-15.9-5.2-37.35-6.48-37.56-6.49a.5.5,0,0,1,.05-1c.22,0,21.79,1.3,37.75,6.52.13,0,19.47,3.36,34.7,2.14a99.57,99.57,0,0,1,39.2,3.73c19.65,5.89,46.42,20.86,62.32,58.74a.49.49,0,0,1-.26.65A.48.48,0,0,1,570.18,520.86Z" fill="#231f20"></path>
  <path d="M441.71,466.75h0a3.92,3.92,0,0,0,2.78,4.48l11.62,3.18a1.46,1.46,0,0,0,1.77-1l2.27-7.27a1.48,1.48,0,0,0-1.32-1.94l-13.16-.66A3.85,3.85,0,0,0,441.71,466.75Z" fill="#f1c058"></path>
  <path d="M456.49,475a1.91,1.91,0,0,1-.52-.07l-11.62-3.18a4.43,4.43,0,0,1-3.13-5h0a4.37,4.37,0,0,1,4.26-3.62h.21l13.17.66a1.92,1.92,0,0,1,1.5.84,2,2,0,0,1,.27,1.75l-2.27,7.27A2,2,0,0,1,456.49,475Zm-14.29-8.12a3.42,3.42,0,0,0,2.42,3.9l11.62,3.19a.94.94,0,0,0,1.16-.66l2.28-7.27a1,1,0,0,0-.14-.88.92.92,0,0,0-.73-.41l-13.17-.66a3.39,3.39,0,0,0-3.44,2.79Z" fill="#231f20"></path>
  <rect x="309.86" y="439.73" width="14.82" height="23.31" rx="7.07" fill="#fff"></rect>
  <path d="M317.61,463.54h-.68a7.58,7.58,0,0,1-7.57-7.57v-9.16a7.59,7.59,0,0,1,7.57-7.58h.68a7.59,7.59,0,0,1,7.57,7.58V456A7.58,7.58,0,0,1,317.61,463.54Zm-.68-23.31a6.58,6.58,0,0,0-6.57,6.58V456a6.58,6.58,0,0,0,6.57,6.57h.68a6.58,6.58,0,0,0,6.57-6.57v-9.16a6.58,6.58,0,0,0-6.57-6.58Z" fill="#231f20"></path>
  <rect x="168.58" y="428.5" width="14.82" height="23.31" rx="7.07" fill="#fff"></rect>
  <path d="M176.33,452.31h-.68a7.58,7.58,0,0,1-7.57-7.57v-9.17a7.58,7.58,0,0,1,7.57-7.57h.68a7.58,7.58,0,0,1,7.57,7.57v9.17A7.58,7.58,0,0,1,176.33,452.31ZM175.65,429a6.58,6.58,0,0,0-6.57,6.57v9.17a6.58,6.58,0,0,0,6.57,6.57h.68a6.58,6.58,0,0,0,6.57-6.57v-9.17a6.58,6.58,0,0,0-6.57-6.57Z" fill="#231f20"></path>
  <path d="M264.39,423.4h-.07c-16.19-2.21-97-13.26-98.34-13.92a.5.5,0,0,1,.43-.91c2,.64,65,9.33,98,13.84a.51.51,0,0,1,.43.56A.51.51,0,0,1,264.39,423.4Z" fill="#231f20"></path>
  <path d="M130.89,406.23h0l-64.16-5.62a.5.5,0,0,1,.08-1l64.16,5.62a.5.5,0,0,1,0,1Z" fill="#231f20"></path>
  <path d="M128.3,355.36a.5.5,0,0,1-.29-.92c.47-.31,46.62-31.84,67.49-40.67a.5.5,0,1,1,.39.92c-20.77,8.8-66.85,40.26-67.31,40.58A.51.51,0,0,1,128.3,355.36Z" fill="#fff"></path>
  <path d="M61.42,404.94,44.49,447A212.63,212.63,0,0,1,42.12,425a94.37,94.37,0,0,1,.07-12.16,30.5,30.5,0,0,1,1.5-7.84,5.52,5.52,0,0,1,.81-1.49c1.43-1.92,5.55-5.67,14.82-3A3.33,3.33,0,0,1,61.42,404.94Z" fill="#f1c058"></path>
  <path d="M44.29,448.8,44,447.05a216.08,216.08,0,0,1-2.38-22,94.09,94.09,0,0,1,.07-12.23,30.92,30.92,0,0,1,1.53-8,6.26,6.26,0,0,1,.88-1.62c1.4-1.88,5.7-6,15.36-3.22a3.71,3.71,0,0,1,2.3,2,3.82,3.82,0,0,1,.12,3.14h0Zm9.15-48.69c-5.08,0-7.57,2.44-8.54,3.74a5.22,5.22,0,0,0-.74,1.37,29.7,29.7,0,0,0-1.47,7.7,93.85,93.85,0,0,0-.07,12.1c.41,8.35,1.55,16.56,2.08,20.08L61,404.75a2.91,2.91,0,0,0-.08-2.33A2.7,2.7,0,0,0,59.18,401,21.3,21.3,0,0,0,53.44,400.11Z" fill="#231f20"></path>
  <path d="M50.48,417.28l-2.08,8.86a13.23,13.23,0,0,1-6.28-1.1,94.37,94.37,0,0,1,.07-12.16C45,414.55,50.48,417.28,50.48,417.28Z" fill="#fff"></path>
  <path d="M47.53,426.69a15.07,15.07,0,0,1-5.6-1.18l-.29-.12,0-.32a94.09,94.09,0,0,1,.07-12.23l.07-.79.68.4c2.77,1.64,8.21,4.35,8.27,4.38l.35.17-2.25,9.58-.33.05A5.77,5.77,0,0,1,47.53,426.69Zm-4.92-2a13.53,13.53,0,0,0,5.39,1l1.91-8.12c-1.15-.58-4.83-2.44-7.28-3.84A92.86,92.86,0,0,0,42.61,424.7Z" fill="#231f20"></path>
  <ellipse cx="49.38" cy="404.37" rx="2.29" ry="1.72" transform="translate(-308.7 210.12) rotate(-54.56)" fill="#fff"></ellipse>
  <path d="M48.88,407a1.94,1.94,0,0,1-1.18-.39,2.61,2.61,0,0,1-.08-3.59,3.06,3.06,0,0,1,2-1.24,2,2,0,0,1,1.47.37,2.61,2.61,0,0,1,.08,3.59,3.06,3.06,0,0,1-2,1.24Zm1-4.24h-.16a2.06,2.06,0,0,0-1.31.85c-.58.78-.63,1.79-.1,2.2A1,1,0,0,0,49,406a2.1,2.1,0,0,0,1.31-.85c.58-.78.63-1.79.1-2.2A.89.89,0,0,0,49.89,402.75Z" fill="#231f20"></path>
  <path d="M749.25,241.22l-.19.11A18.53,18.53,0,0,0,737,231.76c-23.41-5.73-70.35-4.46-70.35-4.46-38.57-2.08-105.13,56-105.13,56-20.14,19.48-51.2,93.24-51.2,93.24-4.09,8-3.41,10.79-3.41,10.79s3.42,17.94-9.21,21.67l-.69-6.71s4.78-5.22,2.39-11.83a15.54,15.54,0,0,1-3.08,1,4.82,4.82,0,0,1-5.12-7.07c1.07-2,2.59-4.75,4.45-7.85,0,0,34.81-65.76,58.7-90.81,0,0,65.2-58.46,106.49-60.54C660.84,225.22,746.52,220,749.25,241.22Z" fill="#f58f74"></path>
  <path d="M497.26,409.68l-.77-7.53.15-.16c0-.05,4.3-4.82,2.46-10.83a16.33,16.33,0,0,1-2.68.82,5.13,5.13,0,0,1-5.21-2,5.39,5.39,0,0,1-.45-5.82c1.42-2.66,2.92-5.31,4.46-7.87.33-.63,35.1-66.08,58.77-90.89.68-.62,65.83-58.63,106.83-60.7,3.51-.21,86.16-5,88.93,16.44l0,.33-.94.52-.24-.45a18,18,0,0,0-11.73-9.32c-23.08-5.64-69.75-4.45-70.22-4.44-38-2-104.15,55.32-104.81,55.9C542,302.88,511.09,376,510.78,376.77c-3.92,7.67-3.39,10.45-3.39,10.48,0,.2,3.37,18.44-9.55,22.26Zm.27-7.19.6,5.87c11.37-3.93,8.32-20.73,8.29-20.9s-.68-3,3.46-11.12c.29-.7,31.31-74,51.29-93.37.69-.6,67.15-58.28,105.51-56.17.43,0,47.23-1.21,70.44,4.47l.84.22c-23.38-8.9-76.41-5.81-77.09-5.77-40.65,2.05-105.54,59.83-106.19,60.41-23.54,24.69-58.24,90-58.59,90.68-1.54,2.56-3,5.19-4.45,7.84a4.39,4.39,0,0,0,.37,4.75,4.09,4.09,0,0,0,4.21,1.6,15.21,15.21,0,0,0,3-1l.49-.23.19.51C502.12,396.54,498.36,401.5,497.53,402.49ZM744,234.51a19.17,19.17,0,0,1,3.63,3.57A12.62,12.62,0,0,0,744,234.51Z" fill="#231f20"></path>
  <path d="M685.28,438h-.11a.5.5,0,0,1-.38-.6c0-.08,1.92-8.23,14.4-6.72,12.15,1.46,16,3.87,16.21,4a.51.51,0,0,1,.16.69.5.5,0,0,1-.69.15s-3.93-2.4-15.8-3.82c-11.59-1.38-13.29,5.87-13.3,5.94A.51.51,0,0,1,685.28,438Z" fill="#fff"></path>
  <path d="M504.48,643.68a41.79,41.79,0,0,1-4.5.36c-30.22.69-55.44-31.52-56.33-71.94-.8-36.4,18.39-67,44.28-73.29a41.07,41.07,0,0,1,8.82-1.16c30.22-.69,55.44,31.52,56.33,71.94C553.93,608,532.52,640,504.48,643.68Z" fill="#f58f74"></path>
  <path d="M499,644.55c-14.42,0-28.1-7.34-38.6-20.75-10.71-13.68-16.84-32-17.27-51.69-.8-36.32,18-67.35,44.66-73.79a42,42,0,0,1,8.93-1.17c14.79-.32,28.83,7,39.56,20.75s16.85,32,17.28,51.68c.41,18.6-4.4,36.48-13.55,50.34s-21.72,22.44-35.48,24.26h0a41.89,41.89,0,0,1-4.56.36ZM497.7,498.14h-.94a41.26,41.26,0,0,0-8.71,1.14c-26.22,6.33-44.69,36.95-43.9,72.8.42,19.44,6.48,37.59,17.06,51.09s24.32,20.74,38.76,20.36a42.24,42.24,0,0,0,4.44-.35h0c13.47-1.78,25.83-10.24,34.79-23.82S553,588,552.58,569.6c-.43-19.44-6.49-37.58-17.06-51.09C525.21,505.35,511.81,498.14,497.7,498.14Z" fill="#231f20"></path>
  <ellipse cx="498.7" cy="572.57" rx="37.48" ry="51.87" fill="#fff"></ellipse>
  <path d="M498.7,624.94c-20.95,0-38-23.49-38-52.37s17-52.36,38-52.36,38,23.49,38,52.36S519.64,624.94,498.7,624.94Zm0-103.73c-20.4,0-37,23-37,51.36s16.59,51.37,37,51.37,37-23,37-51.37S519.09,521.21,498.7,521.21Z" fill="#231f20"></path>
  <path d="M511.2,557.88l12.18-14.71s8.77,12.11,8.77,24l-18.09.14Z" fill="#f58f74"></path>
  <path d="M513.69,567.76l-3-10,12.75-15.42.38.52c.36.5,8.87,12.39,8.87,24.25v.49ZM511.76,558l2.67,8.76,17.22-.13c-.22-10-6.68-20.21-8.31-22.63Z" fill="#231f20"></path>
  <path d="M529.45,592.69l-18-7.27-3.57,5.12s1.79,11.73,8.59,21.31C516.49,611.85,525.56,606.73,529.45,592.69Z" fill="#f58f74"></path>
  <path d="M516.34,612.51l-.26-.37c-6.79-9.57-8.65-21.4-8.67-21.52l0-.2,3.91-5.61,18.76,7.58-.12.43c-3.9,14.08-12.82,19.25-13.19,19.46Zm-7.91-21.85c.27,1.54,2.23,11.89,8.2,20.51,1.72-1.14,8.83-6.46,12.22-18.18l-17.2-7Z" fill="#231f20"></path>
  <path d="M494.78,592.19l-2.59,24.45s-10.86-3.47-16.2-13l11.17-15.69Z" fill="#f58f74"></path>
  <path d="M492.62,617.3l-.58-.18c-.46-.15-11.11-3.64-16.49-13.28l-.16-.28L487,587.24l8.29,4.68Zm-16-13.68c4.52,7.84,12.9,11.47,15.18,12.33l2.49-23.48-6.94-3.91Z" fill="#231f20"></path>
  <path d="M483.44,575.35l1-10.57-14.9-9.42s-3.25,6.78-2.44,22.47Z" fill="#f58f74"></path>
  <path d="M466.6,578.4l0-.55c-.81-15.64,2.34-22.42,2.47-22.7l.25-.51,15.64,9.88-1,11.26Zm3.14-22.3c-.69,1.84-2.77,8.55-2.19,21.15L483,574.91l.9-9.87Z" fill="#231f20"></path>
  <path d="M491.22,550.24,483,533.89s4.86-6.6,19.61-5.28L498,548.43Z" fill="#f58f74"></path>
  <path d="M491,550.83l-8.58-17,.18-.24c.2-.28,5.2-6.82,20.05-5.49l.57,0-4.73,20.67ZM483.55,534l7.93,15.7L497.6,548l4.34-19C489.68,528.12,484.56,532.86,483.55,534Z" fill="#231f20"></path>
  <path d="M503.69,554.22a1.45,1.45,0,0,1-.7-.17,1.51,1.51,0,0,1-.63-2l9.56-18.17a1.5,1.5,0,0,1,2.66,1.4L505,553.42A1.5,1.5,0,0,1,503.69,554.22Z" fill="#231f20"></path>
  <path d="M531.72,583a1.52,1.52,0,0,1-.42-.06l-17-5a1.5,1.5,0,0,1,.84-2.88l17,5a1.5,1.5,0,0,1-.42,2.94Z" fill="#231f20"></path>
  <path d="M506.12,621.94a1.5,1.5,0,0,1-1.47-1.23L500,594.77a1.5,1.5,0,1,1,2.95-.53l4.7,25.93a1.49,1.49,0,0,1-1.21,1.74Z" fill="#231f20"></path>
  <path d="M468.53,595.51a1.5,1.5,0,0,1-1-2.64l15.56-13.21a1.5,1.5,0,1,1,1.94,2.28L469.5,595.16A1.52,1.52,0,0,1,468.53,595.51Z" fill="#231f20"></path>
  <path d="M486.19,558.18a1.49,1.49,0,0,1-1.22-.62l-12.15-17a1.5,1.5,0,1,1,2.44-1.75l12.15,17a1.49,1.49,0,0,1-1.22,2.37Z" fill="#231f20"></path>
  <ellipse cx="492.51" cy="564.03" rx="2.43" ry="3.39" fill="#231f20"></ellipse>
  <path d="M492.51,567.92c-1.61,0-2.93-1.74-2.93-3.89s1.32-3.88,2.93-3.88,2.93,1.74,2.93,3.88S494.13,567.92,492.51,567.92Zm0-6.77c-1.05,0-1.93,1.32-1.93,2.88s.88,2.89,1.93,2.89,1.93-1.32,1.93-2.89S493.56,561.15,492.51,561.15Z" fill="#231f20"></path>
  <ellipse cx="503.04" cy="562.05" rx="2.43" ry="3.39" fill="#231f20"></ellipse>
  <path d="M503,565.94c-1.61,0-2.93-1.74-2.93-3.89s1.32-3.88,2.93-3.88,2.93,1.74,2.93,3.88S504.66,565.94,503,565.94Zm0-6.77c-1,0-1.93,1.32-1.93,2.88s.89,2.89,1.93,2.89,1.93-1.32,1.93-2.89S504.09,559.17,503,559.17Z" fill="#231f20"></path>
  <ellipse cx="490.89" cy="578.73" rx="2.43" ry="3.39" fill="#231f20"></ellipse>
  <path d="M490.89,582.62c-1.61,0-2.93-1.74-2.93-3.89s1.32-3.88,2.93-3.88,2.93,1.74,2.93,3.88S492.51,582.62,490.89,582.62Zm0-6.77c-1.05,0-1.93,1.32-1.93,2.88s.88,2.89,1.93,2.89,1.93-1.32,1.93-2.89S491.94,575.85,490.89,575.85Z" fill="#231f20"></path>
  <ellipse cx="498.99" cy="587.32" rx="2.43" ry="3.39" fill="#231f20"></ellipse>
  <path d="M499,591.21c-1.61,0-2.93-1.74-2.93-3.89s1.32-3.88,2.93-3.88,2.93,1.74,2.93,3.88S500.61,591.21,499,591.21Zm0-6.77c-1,0-1.93,1.32-1.93,2.88s.89,2.89,1.93,2.89,1.93-1.32,1.93-2.89S500,584.44,499,584.44Z" fill="#231f20"></path>
  <ellipse cx="507.26" cy="575.93" rx="2.43" ry="3.39" fill="#231f20"></ellipse>
  <path d="M507.25,579.81c-1.61,0-2.92-1.74-2.92-3.88s1.31-3.89,2.92-3.89,2.94,1.74,2.94,3.89S508.87,579.81,507.25,579.81Zm0-6.77c-1,0-1.92,1.32-1.92,2.89s.88,2.88,1.92,2.88,1.94-1.32,1.94-2.88S508.3,573,507.25,573Z" fill="#231f20"></path>
  <rect x="302.55" y="445.14" width="28.53" height="9.7" rx="4.54" fill="#fbe493"></rect>
  <path d="M326.54,455.34H307.08a5.05,5.05,0,0,1-5-5v-.62a5.05,5.05,0,0,1,5-5h19.46a5,5,0,0,1,5,5v.62A5,5,0,0,1,326.54,455.34Zm-19.46-9.7a4,4,0,0,0-4,4v.62a4,4,0,0,0,4,4h19.46a4,4,0,0,0,4-4v-.62a4,4,0,0,0-4-4Z" fill="#231f20"></path>
  <rect x="161.27" y="433.91" width="28.53" height="9.7" rx="4.54" fill="#fbe493"></rect>
  <path d="M185.26,444.11H165.81a5,5,0,0,1-5-5v-.62a5,5,0,0,1,5-5h19.45a5,5,0,0,1,5,5v.62A5,5,0,0,1,185.26,444.11Zm-19.45-9.7a4,4,0,0,0-4,4v.62a4,4,0,0,0,4,4h19.45a4,4,0,0,0,4-4v-.62a4,4,0,0,0-4-4Z" fill="#231f20"></path>
  <rect x="133.67" y="605.12" width="19" height="20.89" transform="translate(286.34 1231.13) rotate(-180)" fill="#fff"></rect>
  <path d="M153.17,626.51h-20V604.62h20Zm-19-1h18V605.62h-18Z" fill="#231f20"></path>
  <rect x="194.71" y="607.72" width="17.68" height="15.37" transform="translate(407.1 1230.81) rotate(-180)" fill="#fff"></rect>
  <path d="M212.89,623.59H194.21V607.22h18.68Zm-17.68-1h16.68V608.22H195.21Z" fill="#231f20"></path>
  <path d="M292.94,178,272.22,208.7a.92.92,0,0,1-1.08.36l-9.9-3.55a1,1,0,0,1-.48-1.42l19.15-30a.93.93,0,0,1,1-.41l11.47,2.83A1,1,0,0,1,292.94,178Z" fill="#4a696c"></path>
  <path d="M271.45,209.61a1.34,1.34,0,0,1-.48-.08l-9.9-3.55a1.46,1.46,0,0,1-.73-2.16l19.15-30a1.43,1.43,0,0,1,1.54-.62L292.5,176a1.46,1.46,0,0,1,.85,2.23L272.64,209A1.46,1.46,0,0,1,271.45,209.61Zm9.25-35.47a.43.43,0,0,0-.37.2l-19.15,30a.49.49,0,0,0-.05.41.5.5,0,0,0,.27.28l9.91,3.55a.44.44,0,0,0,.5-.17l20.71-30.74a.44.44,0,0,0,.05-.43.41.41,0,0,0-.3-.27l-11.48-2.83Z" fill="#231f20"></path>
  <path d="M227.1,324.2,219,604.05a5.55,5.55,0,0,1-2.93,4.77,25.81,25.81,0,0,1-25.92-.64,5.54,5.54,0,0,1-2.67-4.62l-6.08-199.22-21.29,200a5.47,5.47,0,0,1-2.9,4.3,30.67,30.67,0,0,1-24.45,1.5,5.55,5.55,0,0,1-3.73-5.29l2.54-271.73Z" fill="#fbe493"></path>
  <path d="M203.62,612.52a26.91,26.91,0,0,1-13.75-3.91,6,6,0,0,1-2.92-5L181.1,411.66,160.58,604.38a6,6,0,0,1-3.16,4.69,31.14,31.14,0,0,1-24.85,1.53,6,6,0,0,1-4.07-5.77L131,332.65l96.58-9,0,.57-8.13,279.85a6.12,6.12,0,0,1-3.19,5.2A27.17,27.17,0,0,1,203.62,612.52ZM180.88,404.29l1,0L188,603.54a5,5,0,0,0,2.42,4.21,25.29,25.29,0,0,0,25.44.63,5.1,5.1,0,0,0,2.66-4.34l8.11-279.29L132,333.56,129.5,604.84a5,5,0,0,0,3.39,4.82A30.16,30.16,0,0,0,157,608.19a5,5,0,0,0,2.63-3.91Z" fill="#231f20"></path>
  <path d="M194.86,175.94s24.71-.89,32.52,15.91l14.52,31.6-12.35,8.39.65,91s-7.33,19.08-33.27,24a9.29,9.29,0,0,1-10.86-7.44c0-.2-.08-.4-.11-.61a.23.23,0,0,0-.45,0c-.76,3.29-3.93,10.5-16.88,9.48l-33.81-10.39s-15.18-3.54-13.88-37.57l.87-63.41-15.17,11s-19.29-14.8-24.71-37.12L110,189.44a49.22,49.22,0,0,1,6.67-4.3c6.18-3.32,18.59-9.56,26.17-10.53C153.24,173.28,194.86,175.94,194.86,175.94Z" fill="#f58f74"></path>
  <path d="M171.06,348.9c-.78,0-1.6,0-2.47-.11l-.1,0-33.82-10.38c-.6-.14-15.53-4-14.22-38.06l.85-62.41L106.63,248.6l-.3-.23c-.19-.15-19.49-15.17-24.89-37.4l-.08-.32.26-.2L109.69,189a50.8,50.8,0,0,1,6.74-4.34c6.59-3.54,18.78-9.62,26.35-10.59,10.29-1.3,50.09,1.2,52.09,1.33.95,0,25.22-.46,33,16.19l14.7,32-12.48,8.49L230.7,323l0,.09c-.07.2-7.73,19.39-33.64,24.33a9.83,9.83,0,0,1-11.34-7.34C184.56,343.43,181.17,348.89,171.06,348.9Zm-2.33-1.1c12.58,1,15.58-6,16.3-9.09a.68.68,0,0,1,.72-.56.73.73,0,0,1,.7.62c0,.2.07.4.11.59a8.83,8.83,0,0,0,10.27,7.05c24.48-4.66,32.29-22.25,32.86-23.62L229,231.58l12.23-8.31-14.35-31.22c-7.57-16.3-31.78-15.63-32-15.61h0c-.42,0-41.69-2.63-51.93-1.32-7.41.94-19.47,7-26,10.47a48.78,48.78,0,0,0-6.6,4.26L82.49,211.05c5.05,20.22,21.75,34.34,24.16,36.3l15.68-11.42-.88,64.42c-1.27,33.15,13.34,37,13.48,37.07Z" fill="#231f20"></path>
  <path d="M151.78,154l.45,17.08c18.37,11.09,28.35,35.13,28.35,35.13l1.29-17.89a5.05,5.05,0,0,1,.57-2l2.67-5.14a5.1,5.1,0,0,0,.57-2.79l-1-13.15a25.87,25.87,0,0,1-10.16,2.07A26.26,26.26,0,0,1,151.78,154Z" fill="#fff"></path>
  <path d="M180.93,208.32l-.81-1.95c-.1-.24-10.13-24-28.14-34.9l-.24-.14L151.22,152l1,1.71a25.91,25.91,0,0,0,22.31,13,25.46,25.46,0,0,0,10-2l.64-.27,1.05,13.84a5.69,5.69,0,0,1-.62,3.06l-2.68,5.14a4.47,4.47,0,0,0-.51,1.82Zm-28.2-37.56c15.21,9.32,24.75,27.61,27.49,33.42l1.15-15.93A5.5,5.5,0,0,1,182,186l2.68-5.14a4.69,4.69,0,0,0,.51-2.52l-.94-12.47a26.24,26.24,0,0,1-9.72,1.85,26.9,26.9,0,0,1-22.2-12Z" fill="#231f20"></path>
  <path d="M152,163.64l-8.74,9.11a2,2,0,0,0-.09,2.67l20,23.93a.91.91,0,0,0,1.51-.17l5.49-10.57s-8.62-12.94-17.92-17.56Z" fill="#fbe493"></path>
  <path d="M163.85,200.18a1.43,1.43,0,0,1-1.09-.51l-20-23.92a2.51,2.51,0,0,1,.11-3.34l9.56-10,.25,8.29c9.21,4.74,17.49,17.07,17.84,17.6l.17.25-5.63,10.83a1.42,1.42,0,0,1-1.1.76Zm-12.31-35.33-7.91,8.25a1.5,1.5,0,0,0-.07,2l20,23.93a.4.4,0,0,0,.36.14.38.38,0,0,0,.32-.22l5.36-10.31c-1.24-1.79-9.18-13-17.56-17.15l-.27-.13Z" fill="#231f20"></path>
  <path d="M185.11,168.73l8.18,5.25a3.78,3.78,0,0,1,1.59,4.08l-4.36,17.23a.92.92,0,0,1-1.51.46,10.06,10.06,0,0,0-7.3-2.75l.16-4.35a5.54,5.54,0,0,1,.57-2.38l2.67-5.14s.69-.69.57-2.79Z" fill="#fbe493"></path>
  <path d="M189.63,196.49a1.41,1.41,0,0,1-1-.38,9.52,9.52,0,0,0-6.94-2.61l-.54,0,.18-4.89A6.16,6.16,0,0,1,182,186l2.77-5.27h0a3.62,3.62,0,0,0,.42-2.4l-.63-10.59,9,5.78a4.26,4.26,0,0,1,1.8,4.63L191,195.41a1.42,1.42,0,0,1-1.37,1.08Zm-7.4-4a10.69,10.69,0,0,1,7.12,2.89.41.41,0,0,0,.68-.22l4.36-17.22a3.23,3.23,0,0,0-1.37-3.53l-7.35-4.73.51,8.63a4.51,4.51,0,0,1-.65,3.1l-2.65,5.09a5.22,5.22,0,0,0-.51,2.14Z" fill="#231f20"></path>
  <path d="M106.64,248l5-3.75s-16.9-20.11-22.11-39.12l-7.58,5.75A72.12,72.12,0,0,0,106.64,248Z" fill="#fbe493"></path>
  <path d="M106.63,248.6l-.3-.23A73.35,73.35,0,0,1,81.44,211l-.07-.32,8.43-6.38.2.71c5.11,18.68,21.84,38.72,22,38.93l.34.4ZM82.49,211.05a72.56,72.56,0,0,0,24.16,36.29l4.26-3.21c-2.38-2.92-16.72-21-21.68-38.18Z" fill="#231f20"></path>
  <path d="M186.07,340h0a.5.5,0,0,1-.47-.53c1.16-20.94-5.42-132.1-5.49-133.22a.51.51,0,0,1,.47-.53.48.48,0,0,1,.53.47c.07,1.12,6.65,112.34,5.49,133.34A.51.51,0,0,1,186.07,340Z" fill="#231f20"></path>
  <path d="M245.37,267.48a.39.39,0,0,1-.18,0,.5.5,0,0,1-.29-.65l6.29-15.91a.51.51,0,0,1,.65-.28.5.5,0,0,1,.28.65l-6.29,15.91A.48.48,0,0,1,245.37,267.48Z" fill="#231f20"></path>
  <rect x="275.81" y="189.98" width="1" height="12.74" transform="translate(-62.2 213.99) rotate(-38.38)" fill="#ed1c24"></rect>
  <rect x="264.6" y="198.6" width="1" height="12.35" transform="matrix(0.59, -0.81, 0.81, 0.59, -56.68, 297.88)" fill="#ed1c24"></rect>
  <path d="M295.3,178.12,274,209.75l-11.7-4.2,19.88-31.18a.72.72,0,0,1,.76-.3l12,3A.72.72,0,0,1,295.3,178.12Z" fill="#4a696c"></path>
  <path d="M274.18,210.35l-12.66-4.54,20.22-31.7a1.21,1.21,0,0,1,1.3-.53l12,2.95a1.22,1.22,0,0,1,.84.74,1.25,1.25,0,0,1-.13,1.13ZM263,205.29l10.75,3.85,21.09-31.3a.2.2,0,0,0,0-.21.18.18,0,0,0-.14-.13l-12-2.95a.2.2,0,0,0-.21.09Z" fill="#231f20"></path>
  <path d="M285.87,194l-.18,12.23-3.69.44-1.73-5.3,4.37-7.71A.66.66,0,0,1,285.87,194Z" fill="#fff"></path>
  <path d="M281.66,207.2l-1.94-5.91,4.48-7.9a1.14,1.14,0,0,1,1.31-.55,1.16,1.16,0,0,1,.86,1.15l-.19,12.66Zm-.85-5.8,1.54,4.71,2.85-.35.17-11.78a.15.15,0,0,0-.12-.17.14.14,0,0,0-.18.07Z" fill="#231f20"></path>
  <path d="M102.24,244.48l-13.76,9.61a2.74,2.74,0,0,0-.77,3.62l28.53,48.41a2.39,2.39,0,0,0,3.31.86,17.08,17.08,0,0,0,4.61-4.22s3.17-3.69,9.49-3.23h12a2,2,0,0,1,2,2.29h0a2,2,0,0,1-2,1.83l-10.83-.18a.32.32,0,0,0-.13.61l12.11,5.31a2.61,2.61,0,0,1,1.14,3.76h0a2.52,2.52,0,0,1-3.09,1l-9.06-3.7a.32.32,0,0,0-.29.56l9.48,6.7a2.56,2.56,0,0,1,.45,3.75h0a2.45,2.45,0,0,1-3.09.53l-10.22-5.89,9,7.82a1.83,1.83,0,0,1,0,2.77h0a1.75,1.75,0,0,1-2.22,0L131,320.57a2.72,2.72,0,0,0-3.48.12c-3.1,2.74-10.12,7.54-16.24,1.65L64.51,272.58s-14-13.36-5.2-29.72c0,0,10.85-17.5,24.18-26.72C83.49,216.14,90,233.19,102.24,244.48Z" fill="#fff"></path>
  <path d="M139.94,327.62a2.23,2.23,0,0,1-1.39-.48L130.69,321a2.21,2.21,0,0,0-2.84.1c-2.92,2.57-10.41,7.89-16.91,1.63l-46.8-49.78C64,272.8,50,259.13,58.87,242.63c.12-.21,11.07-17.73,24.33-26.9l.53-.36L84,216c.06.17,6.65,17.07,18.62,28.15l.46.42-14.27,10a2.24,2.24,0,0,0-.63,3l28.53,48.41a2,2,0,0,0,1.21.9,1.79,1.79,0,0,0,1.41-.21,16.86,16.86,0,0,0,4.48-4.11c.15-.18,3.43-3.9,9.92-3.42h11.94a2.53,2.53,0,0,1,1.87.84,2.6,2.6,0,0,1,.64,2,2.5,2.5,0,0,1-2.55,2.28l-9.91-.16L147,308.93a3.11,3.11,0,0,1,1.36,4.48,3,3,0,0,1-3.7,1.22l-7.56-3.08,8.17,5.77a3.07,3.07,0,0,1,.54,4.48,3,3,0,0,1-3.72.64l-5.7-3.29,5.08,4.41a2.29,2.29,0,0,1,.79,1.77,2.33,2.33,0,0,1-.81,1.76A2.28,2.28,0,0,1,139.94,327.62Zm-10.6-8.12a3.22,3.22,0,0,1,2,.68l7.85,6.18a1.25,1.25,0,0,0,1.59,0,1.34,1.34,0,0,0,.46-1,1.31,1.31,0,0,0-.45-1l-9-7.83.58-.81,10.22,5.9a2,2,0,0,0,2.46-.43,2.07,2.07,0,0,0-.36-3l-9.48-6.7a.8.8,0,0,1-.24-1.06.79.79,0,0,1,1-.36L145,313.7a2,2,0,0,0,2.47-.82,2.1,2.1,0,0,0-.92-3l-12.1-5.31a.82.82,0,0,1-.47-.93.81.81,0,0,1,.8-.64h0l10.83.18a1.49,1.49,0,0,0,1.53-1.39,1.58,1.58,0,0,0-.39-1.23,1.5,1.5,0,0,0-1.12-.5h-12c-6-.42-9.08,3-9.11,3.05a17.65,17.65,0,0,1-4.73,4.33,2.84,2.84,0,0,1-2.17.34,3,3,0,0,1-1.83-1.38L87.28,258a3.25,3.25,0,0,1,.92-4.29l13.25-9.26c-10.59-10-16.92-24.43-18.19-27.51-12.86,9.14-23.42,26-23.53,26.22-8.51,15.79,5,29,5.12,29.09L111.65,322c5.68,5.47,12.17,1.3,15.53-1.67A3.29,3.29,0,0,1,129.34,319.5Z" fill="#231f20"></path>
  <path d="M151.48,616.71s-4.79,9.91-15,3.5c0,0-5.91-4.55-9.24,3.3a29.71,29.71,0,0,1-2.37,4.63c-2.9,4.43-9.33,12.83-18.76,17.09,0,0-4.37,1.93-4.1,6.51a4.81,4.81,0,0,0,4.2,4.48c6.63.82,23.09,1.36,34.61-10.73a4,4,0,0,1,3.85-1.27,1.79,1.79,0,0,1,1.4,1.18,2.35,2.35,0,0,0,2.18,1.7,19.2,19.2,0,0,0,7.47-1.12,6.56,6.56,0,0,0,4-6.4L159,620.15a9.09,9.09,0,0,0-.79-3.53C157.27,614.67,155.31,612.8,151.48,616.71Z" fill="#fff"></path>
  <path d="M112.34,657.09a51.27,51.27,0,0,1-6.16-.37,5.31,5.31,0,0,1-4.64-5c-.29-4.87,4.36-7,4.4-7,9.25-4.18,15.59-12.38,18.54-16.9a28.57,28.57,0,0,0,2.33-4.56c1.12-2.64,2.66-4.24,4.58-4.74a6.89,6.89,0,0,1,5.43,1.25c3,1.88,5.8,2.48,8.34,1.75,3.9-1.11,5.85-5,5.87-5.08l.09-.13c1.79-1.83,3.4-2.62,4.8-2.4a3.89,3.89,0,0,1,2.74,2.45,9.47,9.47,0,0,1,.84,3.72l.72,19.43a7,7,0,0,1-4.29,6.88,19.5,19.5,0,0,1-7.67,1.16,2.84,2.84,0,0,1-2.64-2.07c0-.14-.16-.59-1.05-.82a3.5,3.5,0,0,0-3.36,1.12C132.27,655.21,120.4,657.09,112.34,657.09ZM132.7,619.4a4,4,0,0,0-1.07.14c-1.59.42-2.91,1.82-3.9,4.16a29.67,29.67,0,0,1-2.41,4.71c-3,4.61-9.49,13-19,17.27-.17.08-4.06,1.87-3.81,6a4.31,4.31,0,0,0,3.76,4c6.49.79,22.81,1.35,34.19-10.59a4.49,4.49,0,0,1,4.33-1.4,2.2,2.2,0,0,1,1.76,1.53,1.86,1.86,0,0,0,1.72,1.33,18.56,18.56,0,0,0,7.26-1.09,6,6,0,0,0,3.66-5.91l-.72-19.43a8.55,8.55,0,0,0-.74-3.33c-.54-1.13-1.21-1.77-2-1.9-1-.17-2.35.52-3.87,2.06a11.38,11.38,0,0,1-6.45,5.53c-2.82.81-5.91.17-9.19-1.89A6.56,6.56,0,0,0,132.7,619.4Z" fill="#231f20"></path>
  <path d="M144.41,626.87a12.43,12.43,0,0,1-7.28-2.28,9.81,9.81,0,0,1-3.94-5.62.5.5,0,1,1,1-.25,8.85,8.85,0,0,0,3.55,5.06,12,12,0,0,0,10.7,1.44c7.61-2.47,9.62-7,9.64-7a.5.5,0,0,1,.65-.27.51.51,0,0,1,.27.66c-.09.2-2.17,5-10.25,7.6A14,14,0,0,1,144.41,626.87Z" fill="#231f20"></path>
  <path d="M207.55,637.51v4.93H190.72a3.56,3.56,0,0,1-3.46-2.79c-1.21-5.22-2.93-16.63,2.73-24.28a2.88,2.88,0,0,1,4.13-.56c4.11,3.25,13.59,9,20.13-1,0,0,2.41-4.09,8,3.68a19,19,0,0,0,4.09,4.29,40.12,40.12,0,0,0,23.74,8,9.76,9.76,0,0,1,4.24.82c2.18,1,4.67,3,2.21,5.95,0,0-6.52,9.3-38.71,3.6Z" fill="#fff"></path>
  <path d="M208.05,642.94H190.72a4.07,4.07,0,0,1-3.95-3.18c-1.38-5.94-2.85-17,2.82-24.69a3.42,3.42,0,0,1,2.31-1.36,3.34,3.34,0,0,1,2.53.7c2.49,2,7.36,5.16,12.16,4.39,2.81-.45,5.25-2.23,7.24-5.28a2.91,2.91,0,0,1,2.28-1.3c1.91-.09,4.1,1.59,6.51,5a18.43,18.43,0,0,0,4,4.18,39.67,39.67,0,0,0,23.2,7.93h.33a10.22,10.22,0,0,1,4.36.87c2,.93,3.15,2.07,3.45,3.38a3.88,3.88,0,0,1-1.07,3.34c-.25.36-7,9.46-39.18,3.78l-9.65-2.51Zm-15.71-28.26-.31,0a2.45,2.45,0,0,0-1.64,1c-5.63,7.59-3.72,19.22-2.64,23.86a3.05,3.05,0,0,0,3,2.41h16.33v-5.08l10.86,2.82c31.33,5.54,38.12-3.32,38.18-3.41a3,3,0,0,0,.88-2.51c-.28-1.24-1.73-2.15-2.89-2.7a9.31,9.31,0,0,0-4-.77h-.25a40.67,40.67,0,0,1-23.8-8.13,19.1,19.1,0,0,1-4.2-4.4c-2.74-3.82-4.6-4.59-5.63-4.54a1.92,1.92,0,0,0-1.5.83c-2.17,3.31-4.83,5.24-7.93,5.74-5.17.83-10.33-2.52-12.94-4.59A2.34,2.34,0,0,0,192.34,614.68Z" fill="#231f20"></path>
  <path d="M148.16,119.65v20.72a27.16,27.16,0,0,0,3.62,13.6,26.26,26.26,0,0,0,22.74,13.29,25.87,25.87,0,0,0,10.16-2.07,26.91,26.91,0,0,0,16.22-24.82V119.65c0-14.84-11.8-26.89-26.38-26.89a26,26,0,0,0-18.64,7.88A27.07,27.07,0,0,0,148.16,119.65Z" fill="#fff"></path>
  <path d="M174.52,167.76a26.92,26.92,0,0,1-23.18-13.54,27.75,27.75,0,0,1-3.68-13.85V119.65a27.48,27.48,0,0,1,7.86-19.36,26.41,26.41,0,0,1,19-8c14.82,0,26.88,12.29,26.88,27.39v20.72a27.36,27.36,0,0,1-16.52,25.28A26.29,26.29,0,0,1,174.52,167.76Zm0-74.5A25.41,25.41,0,0,0,156.24,101a26.46,26.46,0,0,0-7.58,18.66v20.72a26.8,26.8,0,0,0,3.55,13.35,25.91,25.91,0,0,0,22.31,13,25.46,25.46,0,0,0,10-2,26.35,26.35,0,0,0,15.91-24.36V119.65C200.4,105.1,188.79,93.26,174.52,93.26Z" fill="#231f20"></path>
  <path d="M187.75,74.45s13,5.31,9.11,19.12c0,0,13.29,7.7,3.91,24.43,0,0-.78-6.38-5.21-9,0,0-4.51-2.81-5.42-7.18a.14.14,0,0,0-.23-.09c-1.54,1.38-12.87,10.68-30,3.29,0,0-1.3,5-8.08,5.84,0,0,.26,9-3.64,13.27l-7.3-.53s-8.33-14.07,1.83-25.75c0,0-.72-17.81,24.67-17.42a37.43,37.43,0,0,1,5.38.54C177,81.63,186.73,82.33,187.75,74.45Z" fill="#fff"></path>
  <path d="M148.36,124.62l-7.79-.57-.14-.22c-.08-.15-8.33-14.41,1.75-26.2a16.72,16.72,0,0,1,4.75-11.21c4.36-4.46,11.21-6.64,20.43-6.52a37.8,37.8,0,0,1,5.46.55c3,.49,8.6,1,11.9-1.51a6.44,6.44,0,0,0,2.53-4.56l.08-.64.61.25c.13.05,13.16,5.54,9.5,19.36,2,1.37,12.43,9.44,3.77,24.89l-.75,1.33-.18-1.51c0-.06-.81-6.17-5-8.66-.19-.12-4.33-2.75-5.51-6.94-2.56,2.09-13.62,9.83-29.61,3.19-.55,1.36-2.45,4.81-7.87,5.61,0,1.92-.25,9.34-3.79,13.18Zm-7.19-1.53,6.78.5c3.55-4.12,3.36-12.66,3.35-12.75v-.46l.45,0c6.33-.74,7.6-5.28,7.65-5.47l.15-.56.54.23c17,7.32,28.27-2.1,29.5-3.2a.59.59,0,0,1,.62-.13.65.65,0,0,1,.43.49c.85,4.1,5.15,6.83,5.2,6.85,3.31,2,4.66,5.88,5.17,8,7.73-15.23-3.88-22.22-4.39-22.52l-.33-.2.1-.37c3.28-11.56-5.82-17-8.25-18.25a7.28,7.28,0,0,1-2.81,4.56c-3.6,2.68-9.47,2.21-12.66,1.69a35.67,35.67,0,0,0-5.31-.53c-8.9-.14-15.53,1.95-19.69,6.21a15.84,15.84,0,0,0-4.47,10.69V98l-.13.15C134,108.62,140.19,121.26,141.17,123.09Z" fill="#231f20"></path>
  <path d="M151.8,111.33a.55.55,0,0,1-.25-.07c-.38-.23-9.1-5.55-9.36-13.43a.49.49,0,0,1,.48-.51.48.48,0,0,1,.52.48c.24,7.33,8.78,12.55,8.87,12.6a.5.5,0,0,1-.26.93Z" fill="#231f20"></path>
  <path d="M190.09,102a.48.48,0,0,1-.46-.32.5.5,0,0,1,.28-.64s4-1.62,6.49-7.69a.5.5,0,0,1,.65-.28.51.51,0,0,1,.28.66c-2.66,6.5-6.88,8.17-7.06,8.24A.57.57,0,0,1,190.09,102Z" fill="#231f20"></path>
  <ellipse cx="144.91" cy="130.06" rx="6.26" ry="8.31" transform="translate(-28.24 40.98) rotate(-14.68)" fill="#fff"></ellipse>
  <path d="M145.79,138.76a6,6,0,0,1-3-.82,9.8,9.8,0,0,1-4.41-6c-1.29-4.68.57-9.32,4.15-10.35a5.72,5.72,0,0,1,4.44.61,9.8,9.8,0,0,1,4.41,6c1.29,4.68-.57,9.33-4.15,10.35A5.22,5.22,0,0,1,145.79,138.76ZM144,122.36a4.39,4.39,0,0,0-1.19.17c-3.05.88-4.6,5-3.46,9.13h0a9,9,0,0,0,3.94,5.41,4.74,4.74,0,0,0,3.67.52c3.06-.87,4.61-5,3.46-9.12a8.86,8.86,0,0,0-3.93-5.41A5.08,5.08,0,0,0,144,122.36Z" fill="#231f20"></path>
  <path d="M243.85,235.16l6.82,13.89a1.07,1.07,0,0,0,1.94,0l10-21.31a6.92,6.92,0,0,0,.63-3.78,15.12,15.12,0,0,1,2.91-10.66,1.14,1.14,0,0,0-.18-1.56c-2.89-2.33-11.72-9.85-5.86-10.59,0,0-1.36-4,1.2-4.81a3,3,0,0,1,2.95.78l9.62,8.89a1.39,1.39,0,0,0,2.2-1.58,10.66,10.66,0,0,0-1.23-2.18s-7-7.89-7.93-10.33A1,1,0,0,1,267,191c.45-.68,1.76-1.8,4.89.64a.28.28,0,0,0,.44-.3,3.35,3.35,0,0,1,.27-2.67,2,2,0,0,1,2.16-.72c1.25.34,3.34,1.53,5.7,5.42,0,0,8.45,13,3.46,21,0,0-11.3,20.21-16.08,52.9a42.53,42.53,0,0,1-3,10.73c-2.69,6.19-7.48,15.42-13.7,19.85a7.31,7.31,0,0,1-9.79-1.33c-3.64-4.3-9-12.37-11.38-24.92l-.22-28.29Z" fill="#fff"></path>
  <path d="M247,299.69a7.91,7.91,0,0,1-6-2.83c-3.91-4.61-9.08-12.72-11.49-25.15l-.23-28.66,14.81-8.59,7.05,14.37a.55.55,0,0,0,.51.33h0a.58.58,0,0,0,.52-.34l10-21.31a6.52,6.52,0,0,0,.6-3.51,15.7,15.7,0,0,1,3-11,.64.64,0,0,0-.09-.88c-4-3.22-8.62-7.55-7.94-10a2.16,2.16,0,0,1,1.77-1.41,5.66,5.66,0,0,1,.14-3.59,2.56,2.56,0,0,1,1.54-1.3,3.55,3.55,0,0,1,3.44.89l9.61,8.89a.82.82,0,0,0,1.07.09.9.9,0,0,0,.33-1.12,10.11,10.11,0,0,0-1.17-2.07c-.25-.28-7-7.94-8-10.44a1.45,1.45,0,0,1,.15-1.34,2.36,2.36,0,0,1,1.6-1,5,5,0,0,1,3.55,1.21,3.46,3.46,0,0,1,.46-2.5,2.46,2.46,0,0,1,2.7-.93c1.4.39,3.59,1.68,6,5.65.35.53,8.56,13.39,3.47,21.52-.1.18-11.3,20.5-16,52.71a43.17,43.17,0,0,1-3.06,10.86c-2.92,6.72-7.69,15.66-13.87,20A7.6,7.6,0,0,1,247,299.69Zm-16.75-56.07.22,28c2.36,12.13,7.43,20.08,11.27,24.61a6.76,6.76,0,0,0,9.11,1.24c6-4.26,10.66-13,13.53-19.64a41.54,41.54,0,0,0,3-10.6c4.74-32.41,16-52.88,16.14-53.08,4.77-7.61-3.37-20.35-3.45-20.48-2.37-3.89-4.41-4.94-5.42-5.21a1.44,1.44,0,0,0-1.6.52,2.9,2.9,0,0,0-.21,2.27.78.78,0,0,1-1.23.81c-1.66-1.3-2.68-1.45-3.24-1.37a1.37,1.37,0,0,0-.93.61.51.51,0,0,0-.05.43c.88,2.33,7.76,10.1,7.83,10.18a11.12,11.12,0,0,1,1.32,2.33,1.9,1.9,0,0,1-.7,2.31,1.82,1.82,0,0,1-2.3-.18l-9.62-8.89a2.51,2.51,0,0,0-2.45-.67,1.54,1.54,0,0,0-1,.79,5.25,5.25,0,0,0,.06,3.38l.2.58-.61.07c-.87.11-1.38.38-1.49.8-.39,1.38,2.59,4.88,7.6,8.91a1.64,1.64,0,0,1,.27,2.24,14.7,14.7,0,0,0-2.81,10.31,7.46,7.46,0,0,1-.68,4.06l-10,21.31a1.56,1.56,0,0,1-1.41.91h0a1.57,1.57,0,0,1-1.41-.89l-6.58-13.41Z" fill="#231f20"></path>
  <polygon points="241.9 223.45 246.67 232.95 229.76 243.33 229.54 231.84 241.9 223.45" fill="#fbe493"></polygon>
  <path d="M229.28,244.22,229,231.58l13.05-8.87,5.23,10.42Zm.77-12.12.2,10.35L246,232.76l-4.31-8.58Z" fill="#231f20"></path>
  <path d="M280.17,203.57a.52.52,0,0,1-.42-.22l-7.81-11.71a.5.5,0,0,1,.14-.69.49.49,0,0,1,.69.13l7.81,11.71a.5.5,0,0,1-.14.7A.53.53,0,0,1,280.17,203.57Z" fill="#231f20"></path>
  <path d="M271.18,210.88a.52.52,0,0,1-.32-.11l-11.07-9.26a.5.5,0,0,1,.64-.77L271.5,210a.5.5,0,0,1-.32.88Z" fill="#231f20"></path>
  <path d="M204.77,626.09c-5,0-10.58-2.39-16.53-7.14a.5.5,0,1,1,.63-.78c7.17,5.73,13.67,7.92,19.34,6.51,7.6-1.9,11.07-9.78,11.11-9.86a.49.49,0,0,1,.65-.27.5.5,0,0,1,.26.66c-.14.34-3.69,8.41-11.77,10.44A15.15,15.15,0,0,1,204.77,626.09Z" fill="#231f20"></path>
  <path d="M184.68,165.19l1,13.15s-15.3,1.71-26.81-16.34C158.87,162,170.44,172,184.68,165.19Z" fill="#231f20"></path>
  <ellipse cx="167.92" cy="125.67" rx="1.95" ry="3.04" fill="#231f20"></ellipse>
  <ellipse cx="190.6" cy="123.8" rx="1.95" ry="3.04" fill="#231f20"></ellipse>
  <path d="M178.34,142.29a.51.51,0,0,1-.42-.23.5.5,0,0,1,.15-.69l4.74-3.08-3.12-12.5a.51.51,0,0,1,.36-.61.51.51,0,0,1,.61.37l3.21,12.84a.52.52,0,0,1-.22.55l-5,3.27A.53.53,0,0,1,178.34,142.29Z" fill="#231f20"></path>
  <path d="M182.92,148.33s-9.16-.7-11.68-2.34a12.48,12.48,0,0,0,7.1,9.58S182,154.87,182.92,148.33Z" fill="#fff"></path>
  <path d="M178.27,156.09l-.15-.07a12.87,12.87,0,0,1-7.38-10l-.07-1,.84.55c2.39,1.55,11.36,2.25,11.45,2.26l.53,0-.07.53c-1,6.81-4.82,7.63-5,7.66Zm-6.37-9.21a12.21,12.21,0,0,0,6.49,8.16c.64-.21,3.11-1.32,4-6.26C180.54,148.62,174.76,148,171.9,146.88Z" fill="#231f20"></path>
  <path d="M196.21,118.7a.51.51,0,0,1-.34-.14c-.13-.12-3.12-2.8-9.36-.82a.51.51,0,0,1-.63-.33.51.51,0,0,1,.33-.63c6.85-2.16,10.21.92,10.35,1a.5.5,0,0,1,0,.71A.52.52,0,0,1,196.21,118.7Z" fill="#231f20"></path>
  <path d="M161.16,122.43a.46.46,0,0,1-.28-.08.51.51,0,0,1-.14-.7c3.1-4.61,9.34-4.43,9.6-4.42a.5.5,0,0,1,.48.52.51.51,0,0,1-.52.48c-.06,0-5.94-.17-8.73,4A.48.48,0,0,1,161.16,122.43Z" fill="#231f20"></path>
  <polygon points="495.39 179.31 387.48 245.03 370.28 215.69 478.19 149.97 495.39 179.31" fill="#4a696c"></polygon>
  <path d="M387.3,245.72l-17.7-30.2,108.77-66.24,17.7,30.2ZM371,215.86l16.69,28.48,107.06-65.21L478,150.66Z" fill="#231f20"></path>
  <path d="M399.48,222.94l-4.83,2.95.57,2.91-2,1.2-2.78-14.31,2.2-1.34,11.05,9.28-2,1.21ZM398,221.69l-5.09-4.33,1.31,6.63Z" fill="#fff"></path>
  <path d="M409.33,211.29a3.78,3.78,0,0,1-.58,2.11,5.72,5.72,0,0,1-2.05,1.92l-2.09,1.28,2.8,4.78-1.9,1.15-6.9-11.78,4-2.43a5.75,5.75,0,0,1,2.53-.9,3.66,3.66,0,0,1,2.12.42,4.15,4.15,0,0,1,1.5,1.5A4.3,4.3,0,0,1,409.33,211.29Zm-2.23,1a2.14,2.14,0,0,0-.3-1.73q-1.12-1.93-3.27-.63l-2.1,1.28,2.26,3.84,2.09-1.27A2.75,2.75,0,0,0,407.1,212.26Z" fill="#fff"></path>
  <path d="M419.22,205.26a3.8,3.8,0,0,1-.57,2.11,5.82,5.82,0,0,1-2,1.93l-2.1,1.28,2.8,4.77-1.89,1.16-6.91-11.78,4-2.43a5.9,5.9,0,0,1,2.53-.91,3.64,3.64,0,0,1,2.12.43,4,4,0,0,1,1.5,1.5A4.29,4.29,0,0,1,419.22,205.26Zm-2.23,1a2.16,2.16,0,0,0-.3-1.74c-.75-1.29-1.84-1.49-3.27-.62l-2.1,1.27,2.26,3.85,2.09-1.28A2.73,2.73,0,0,0,417,206.24Z" fill="#fff"></path>
  <path d="M431.3,206.83l-5.42-3.09-1.45.88,2.76,4.71-1.89,1.15-6.91-11.77,4-2.43a5.74,5.74,0,0,1,2.54-.9,3.64,3.64,0,0,1,2.12.43,4,4,0,0,1,1.5,1.5,4.18,4.18,0,0,1,.57,2.49,4,4,0,0,1-1.27,2.51l5.72,3.14Zm-7.77-3.75,2.09-1.28a2.61,2.61,0,0,0,1.29-1.52,2.31,2.31,0,0,0-.32-1.79,2.12,2.12,0,0,0-1.37-1.1,2.57,2.57,0,0,0-1.91.46l-2.1,1.28Z" fill="#fff"></path>
  <path d="M437.72,202a6.37,6.37,0,0,1-3.4-.85,6.91,6.91,0,0,1-2.61-2.62,7.1,7.1,0,0,1-1-3.59,6.73,6.73,0,0,1,.89-3.45,7.13,7.13,0,0,1,2.51-2.58,6.87,6.87,0,0,1,3.44-1,6.33,6.33,0,0,1,3.39.84,7,7,0,0,1,2.6,2.63,7.25,7.25,0,0,1,1,3.58,6.72,6.72,0,0,1-.87,3.46,7.13,7.13,0,0,1-2.54,2.58A6.84,6.84,0,0,1,437.72,202Zm4.17-4.49a4.38,4.38,0,0,0,.51-2.38,5.8,5.8,0,0,0-.84-2.61,5.61,5.61,0,0,0-1.84-2,4.18,4.18,0,0,0-2.29-.65,4.51,4.51,0,0,0-2.35.72,4.75,4.75,0,0,0-1.74,1.77,4.21,4.21,0,0,0-.52,2.36,5.66,5.66,0,0,0,.83,2.6,5.75,5.75,0,0,0,1.85,2,4.23,4.23,0,0,0,2.3.67,4.63,4.63,0,0,0,2.36-.71A4.75,4.75,0,0,0,441.89,197.54Z" fill="#fff"></path>
  <path d="M451.89,178.3l2.57,14.42-2.2,1.34L441,184.94l2-1.24,9.17,7.71-2.3-11.89Z" fill="#fff"></path>
  <path d="M456.28,177.75l2,3.45,4-2.43.92,1.58-4,2.43,2.12,3.61,4.48-2.73.93,1.57-6.38,3.89-6.92-11.79,6.39-3.89.92,1.57Z" fill="#fff"></path>
  <path d="M469.61,168.49a5.84,5.84,0,0,1,3.36.76,7.86,7.86,0,0,1,3.67,6.26,6,6,0,0,1-1,3.33,8.37,8.37,0,0,1-2.82,2.68l-3.78,2.29L462.18,172l3.78-2.3A8,8,0,0,1,469.61,168.49Zm4.78,8.44a6,6,0,0,0-3.73-6.36,4.74,4.74,0,0,0-3.78.74L465,172.46l5.06,8.63,1.88-1.15A4.92,4.92,0,0,0,474.39,176.93Z" fill="#fff"></path>
</svg>
