<svg width="346" height="109" viewBox="0 0 346 109" fill="none" xmlns="http://www.w3.org/2000/svg">
<path d="M31.26 64L28.62 54.82H13.8L11.16 64H0L14.58 20.98H27.66L42.42 64H31.26ZM23.82 37.72C23.62 37 23.34 36.04 22.98 34.84C22.66 33.6 22.32 32.34 21.96 31.06C21.64 29.78 21.38 28.7 21.18 27.82C21.02 28.7 20.76 29.8 20.4 31.12C20.08 32.4 19.76 33.66 19.44 34.9C19.12 36.1 18.86 37.04 18.66 37.72L16.14 46.3H26.34L23.82 37.72ZM77.8819 31.06V64H70.2019L68.8819 59.8H68.2819C67.6019 60.92 66.7219 61.84 65.6419 62.56C64.6019 63.24 63.4419 63.74 62.1619 64.06C60.9219 64.42 59.6219 64.6 58.2619 64.6C56.0219 64.6 54.0219 64.18 52.2619 63.34C50.5019 62.5 49.1219 61.2 48.1219 59.44C47.1219 57.64 46.6219 55.34 46.6219 52.54V31.06H56.7619V49.72C56.7619 51.96 57.1219 53.66 57.8419 54.82C58.6019 55.98 59.8019 56.56 61.4419 56.56C63.0819 56.56 64.3619 56.16 65.2819 55.36C66.2019 54.56 66.8419 53.38 67.2019 51.82C67.5619 50.22 67.7419 48.3 67.7419 46.06V31.06H77.8819ZM101.467 56.56C102.507 56.56 103.467 56.46 104.347 56.26C105.227 56.06 106.127 55.8 107.047 55.48V62.92C105.967 63.4 104.727 63.8 103.327 64.12C101.927 64.44 100.267 64.6 98.347 64.6C96.307 64.6 94.487 64.28 92.887 63.64C91.327 62.96 90.087 61.82 89.167 60.22C88.287 58.58 87.847 56.32 87.847 53.44V38.62H83.647V34.42L88.687 31.18L91.447 24.22H97.927V31.06H106.687V38.62H97.927V53.08C97.927 54.24 98.247 55.12 98.887 55.72C99.527 56.28 100.387 56.56 101.467 56.56ZM143.964 47.44C143.964 50.2 143.584 52.64 142.824 54.76C142.104 56.88 141.024 58.68 139.584 60.16C138.184 61.64 136.484 62.76 134.484 63.52C132.524 64.24 130.264 64.6 127.704 64.6C125.384 64.6 123.224 64.24 121.224 63.52C119.264 62.76 117.564 61.66 116.124 60.22C114.724 58.74 113.624 56.94 112.824 54.82C112.024 52.66 111.624 50.2 111.624 47.44C111.624 43.8 112.264 40.72 113.544 38.2C114.864 35.68 116.744 33.76 119.184 32.44C121.624 31.12 124.524 30.46 127.884 30.46C131.044 30.46 133.824 31.12 136.224 32.44C138.624 33.76 140.504 35.68 141.864 38.2C143.264 40.72 143.964 43.8 143.964 47.44ZM121.884 47.44C121.884 49.48 122.084 51.2 122.484 52.6C122.884 54 123.524 55.06 124.404 55.78C125.284 56.46 126.424 56.8 127.824 56.8C129.264 56.8 130.404 56.46 131.244 55.78C132.084 55.06 132.704 54 133.104 52.6C133.504 51.2 133.704 49.48 133.704 47.44C133.704 45.4 133.504 43.7 133.104 42.34C132.704 40.98 132.064 39.96 131.184 39.28C130.344 38.6 129.204 38.26 127.764 38.26C125.724 38.26 124.224 39.04 123.264 40.6C122.344 42.12 121.884 44.4 121.884 47.44Z" fill="#FC6736"/>
<path d="M163.882 64.6C160.882 64.6 158.282 64.02 156.082 62.86C153.922 61.66 152.242 59.84 151.042 57.4C149.882 54.92 149.302 51.76 149.302 47.92C149.302 43.92 149.942 40.68 151.222 38.2C152.542 35.68 154.342 33.84 156.622 32.68C158.942 31.48 161.562 30.88 164.482 30.88C166.322 30.88 168.042 31.08 169.642 31.48C171.282 31.88 172.642 32.36 173.722 32.92L171.322 38.74C170.242 38.3 169.162 37.92 168.082 37.6C167.002 37.28 165.922 37.12 164.842 37.12C163.202 37.12 161.842 37.52 160.762 38.32C159.682 39.12 158.842 40.32 158.242 41.92C157.682 43.48 157.402 45.46 157.402 47.86C157.402 50.18 157.682 52.12 158.242 53.68C158.842 55.24 159.682 56.42 160.762 57.22C161.842 57.98 163.162 58.36 164.722 58.36C166.282 58.36 167.722 58.14 169.042 57.7C170.402 57.26 171.682 56.66 172.882 55.9V62.44C171.642 63.2 170.322 63.74 168.922 64.06C167.522 64.42 165.842 64.6 163.882 64.6ZM207.71 47.68C207.71 50.4 207.37 52.8 206.69 54.88C206.01 56.96 205.01 58.74 203.69 60.22C202.41 61.66 200.85 62.76 199.01 63.52C197.17 64.24 195.11 64.6 192.83 64.6C190.71 64.6 188.73 64.24 186.89 63.52C185.09 62.76 183.53 61.66 182.21 60.22C180.93 58.74 179.93 56.96 179.21 54.88C178.49 52.8 178.13 50.4 178.13 47.68C178.13 44.08 178.71 41.04 179.87 38.56C181.07 36.04 182.79 34.14 185.03 32.86C187.27 31.54 189.93 30.88 193.01 30.88C195.89 30.88 198.43 31.54 200.63 32.86C202.83 34.14 204.55 36.04 205.79 38.56C207.07 41.04 207.71 44.08 207.71 47.68ZM186.23 47.68C186.23 49.96 186.47 51.92 186.95 53.56C187.43 55.16 188.15 56.38 189.11 57.22C190.11 58.06 191.39 58.48 192.95 58.48C194.51 58.48 195.77 58.06 196.73 57.22C197.73 56.38 198.45 55.16 198.89 53.56C199.37 51.92 199.61 49.96 199.61 47.68C199.61 45.36 199.37 43.42 198.89 41.86C198.41 40.26 197.67 39.06 196.67 38.26C195.71 37.42 194.45 37 192.89 37C190.53 37 188.83 37.92 187.79 39.76C186.75 41.6 186.23 44.24 186.23 47.68ZM231.772 30.88C235.172 30.88 237.852 31.82 239.812 33.7C241.772 35.58 242.752 38.62 242.752 42.82V64H234.772V44.32C234.772 41.88 234.352 40.06 233.512 38.86C232.672 37.62 231.352 37 229.552 37C226.872 37 225.052 37.96 224.092 39.88C223.132 41.76 222.652 44.5 222.652 48.1V64H214.672V31.48H220.792L221.932 35.74H222.232C222.952 34.62 223.792 33.7 224.752 32.98C225.712 32.26 226.792 31.74 227.992 31.42C229.192 31.06 230.452 30.88 231.772 30.88ZM263.954 58.54C264.834 58.54 265.674 58.46 266.474 58.3C267.314 58.1 268.094 57.88 268.814 57.64V63.28C267.974 63.64 266.954 63.94 265.754 64.18C264.554 64.46 263.214 64.6 261.734 64.6C259.894 64.6 258.254 64.3 256.814 63.7C255.374 63.06 254.234 61.98 253.394 60.46C252.594 58.94 252.194 56.82 252.194 54.1V37.18H248.114V33.88L252.674 31.24L255.074 24.34H260.114V31.48H268.514V37.18H260.114V54.04C260.114 55.56 260.454 56.7 261.134 57.46C261.854 58.18 262.794 58.54 263.954 58.54ZM291.35 30.88C291.91 30.88 292.49 30.9 293.09 30.94C293.69 30.98 294.19 31.06 294.59 31.18L293.87 38.2C293.47 38.12 292.99 38.06 292.43 38.02C291.91 37.94 291.35 37.9 290.75 37.9C289.75 37.9 288.77 38.1 287.81 38.5C286.85 38.86 285.99 39.42 285.23 40.18C284.47 40.9 283.85 41.84 283.37 43C282.93 44.16 282.71 45.54 282.71 47.14V64H274.73V31.48H280.85L281.93 37.12H282.35C282.95 35.96 283.69 34.92 284.57 34C285.49 33.04 286.51 32.28 287.63 31.72C288.79 31.16 290.03 30.88 291.35 30.88ZM326.655 47.68C326.655 50.4 326.315 52.8 325.635 54.88C324.955 56.96 323.955 58.74 322.635 60.22C321.355 61.66 319.795 62.76 317.955 63.52C316.115 64.24 314.055 64.6 311.775 64.6C309.655 64.6 307.675 64.24 305.835 63.52C304.035 62.76 302.475 61.66 301.155 60.22C299.875 58.74 298.875 56.96 298.155 54.88C297.435 52.8 297.075 50.4 297.075 47.68C297.075 44.08 297.655 41.04 298.815 38.56C300.015 36.04 301.735 34.14 303.975 32.86C306.215 31.54 308.875 30.88 311.955 30.88C314.835 30.88 317.375 31.54 319.575 32.86C321.775 34.14 323.495 36.04 324.735 38.56C326.015 41.04 326.655 44.08 326.655 47.68ZM305.175 47.68C305.175 49.96 305.415 51.92 305.895 53.56C306.375 55.16 307.095 56.38 308.055 57.22C309.055 58.06 310.335 58.48 311.895 58.48C313.455 58.48 314.715 58.06 315.675 57.22C316.675 56.38 317.395 55.16 317.835 53.56C318.315 51.92 318.555 49.96 318.555 47.68C318.555 45.36 318.315 43.42 317.835 41.86C317.355 40.26 316.615 39.06 315.615 38.26C314.655 37.42 313.395 37 311.835 37C309.475 37 307.775 37.92 306.735 39.76C305.695 41.6 305.175 44.24 305.175 47.68ZM341.597 64H333.617V18.4H341.597V64Z" fill="#FFFFF3"/>
<path d="M5.9 88.72C7.76667 88.72 9.12667 89.1 9.98 89.86C10.8333 90.6067 11.26 91.6533 11.26 93C11.26 93.6 11.16 94.1733 10.96 94.72C10.7733 95.2667 10.46 95.76 10.02 96.2C9.58 96.6267 8.99333 96.9667 8.26 97.22C7.54 97.46 6.65333 97.58 5.6 97.58H4.06V103H1.9V88.72H5.9ZM5.74 90.54H4.06V95.76H5.36C6.17333 95.76 6.85333 95.6733 7.4 95.5C7.94667 95.3133 8.35333 95.0267 8.62 94.64C8.9 94.24 9.04 93.72 9.04 93.08C9.04 92.2267 8.77333 91.5933 8.24 91.18C7.72 90.7533 6.88667 90.54 5.74 90.54ZM22.7261 92.02C22.9128 92.02 23.1194 92.0333 23.3461 92.06C23.5728 92.0733 23.7594 92.0933 23.9061 92.12L23.6861 94.1C23.5394 94.06 23.3661 94.0267 23.1661 94C22.9661 93.9733 22.7794 93.96 22.6061 93.96C22.2061 93.96 21.8194 94.04 21.4461 94.2C21.0861 94.3467 20.7594 94.5667 20.4661 94.86C20.1728 95.14 19.9394 95.4867 19.7661 95.9C19.6061 96.3133 19.5261 96.7867 19.5261 97.32V103H17.4061V92.22H19.0861L19.3661 94.14H19.4461C19.6728 93.7533 19.9461 93.4 20.2661 93.08C20.5861 92.76 20.9528 92.5067 21.3661 92.32C21.7794 92.12 22.2328 92.02 22.7261 92.02ZM38.5116 97.6C38.5116 98.4933 38.3916 99.2867 38.1516 99.98C37.9116 100.673 37.5716 101.26 37.1316 101.74C36.6916 102.22 36.1582 102.587 35.5316 102.84C34.9049 103.08 34.1982 103.2 33.4116 103.2C32.6916 103.2 32.0249 103.08 31.4116 102.84C30.7982 102.587 30.2649 102.22 29.8116 101.74C29.3716 101.26 29.0249 100.673 28.7716 99.98C28.5182 99.2867 28.3916 98.4867 28.3916 97.58C28.3916 96.3933 28.5916 95.3867 28.9916 94.56C29.4049 93.7333 29.9916 93.1067 30.7516 92.68C31.5249 92.24 32.4316 92.02 33.4716 92.02C34.4582 92.02 35.3249 92.24 36.0716 92.68C36.8316 93.1067 37.4249 93.7333 37.8516 94.56C38.2916 95.3867 38.5116 96.4 38.5116 97.6ZM30.5716 97.6C30.5716 98.4 30.6716 99.0933 30.8716 99.68C31.0716 100.253 31.3849 100.693 31.8116 101C32.2382 101.307 32.7849 101.46 33.4516 101.46C34.1182 101.46 34.6649 101.307 35.0916 101C35.5182 100.693 35.8316 100.253 36.0316 99.68C36.2316 99.0933 36.3316 98.4 36.3316 97.6C36.3316 96.7733 36.2249 96.08 36.0116 95.52C35.8116 94.96 35.4982 94.5333 35.0716 94.24C34.6582 93.9333 34.1116 93.78 33.4316 93.78C32.4316 93.78 31.7049 94.1133 31.2516 94.78C30.7982 95.4467 30.5716 96.3867 30.5716 97.6ZM50.1591 92.02C51.4124 92.02 52.3724 92.3333 53.0391 92.96C53.7057 93.5867 54.0391 94.5933 54.0391 95.98V103H51.9391V96.28C51.9391 95.44 51.7591 94.8133 51.3991 94.4C51.0524 93.9733 50.4924 93.76 49.7191 93.76C48.6257 93.76 47.8657 94.0867 47.4391 94.74C47.0257 95.3933 46.8191 96.3333 46.8191 97.56V103H44.6991V92.22H46.3791L46.6791 93.66H46.7991C47.0391 93.2867 47.3324 92.98 47.6791 92.74C48.0257 92.5 48.4124 92.32 48.8391 92.2C49.2657 92.08 49.7057 92.02 50.1591 92.02ZM64.6767 101.48C64.9567 101.48 65.2434 101.453 65.5367 101.4C65.8301 101.347 66.0834 101.287 66.2967 101.22V102.82C66.0701 102.927 65.7634 103.013 65.3767 103.08C64.9901 103.16 64.6034 103.2 64.2167 103.2C63.6301 103.2 63.0901 103.1 62.5967 102.9C62.1167 102.7 61.7301 102.353 61.4367 101.86C61.1434 101.367 60.9967 100.68 60.9967 99.8V93.84H59.4967V92.88L61.0767 92.08L61.8167 89.8H63.1167V92.22H66.1967V93.84H63.1167V99.76C63.1167 100.347 63.2567 100.78 63.5367 101.06C63.8301 101.34 64.2101 101.48 64.6767 101.48ZM81.233 92.22V103H79.533L79.233 101.58H79.133C78.9063 101.953 78.613 102.26 78.253 102.5C77.893 102.74 77.4996 102.913 77.073 103.02C76.6463 103.14 76.2063 103.2 75.753 103.2C74.913 103.2 74.1996 103.067 73.613 102.8C73.0396 102.52 72.5996 102.093 72.293 101.52C71.9996 100.933 71.853 100.187 71.853 99.28V92.22H73.993V98.96C73.993 99.8 74.1663 100.427 74.513 100.84C74.873 101.253 75.4263 101.46 76.173 101.46C76.9196 101.46 77.5063 101.313 77.933 101.02C78.3596 100.727 78.6596 100.3 78.833 99.74C79.0196 99.1667 79.113 98.48 79.113 97.68V92.22H81.233ZM92.2306 92.02C93.5906 92.02 94.604 92.32 95.2706 92.92C95.9373 93.5067 96.2706 94.4333 96.2706 95.7V103H94.7706L94.3506 101.5H94.2706C93.964 101.887 93.644 102.207 93.3106 102.46C92.9906 102.713 92.6173 102.9 92.1906 103.02C91.7773 103.14 91.2706 103.2 90.6706 103.2C90.0306 103.2 89.4506 103.087 88.9306 102.86C88.424 102.62 88.024 102.26 87.7306 101.78C87.4373 101.287 87.2906 100.673 87.2906 99.94C87.2906 98.8467 87.704 98.0133 88.5306 97.44C89.3706 96.8667 90.644 96.5533 92.3506 96.5L94.1906 96.44V95.84C94.1906 95.04 94.0106 94.48 93.6506 94.16C93.2906 93.84 92.784 93.68 92.1306 93.68C91.5706 93.68 91.0373 93.76 90.5306 93.92C90.024 94.08 89.544 94.2733 89.0906 94.5L88.4106 92.96C88.9173 92.6933 89.4973 92.4733 90.1506 92.3C90.8173 92.1133 91.5106 92.02 92.2306 92.02ZM92.7306 97.86C91.504 97.9133 90.6506 98.12 90.1706 98.48C89.704 98.8267 89.4706 99.32 89.4706 99.96C89.4706 100.52 89.6373 100.927 89.9706 101.18C90.3173 101.433 90.7506 101.56 91.2706 101.56C92.1106 101.56 92.804 101.327 93.3506 100.86C93.8973 100.393 94.1706 99.6933 94.1706 98.76V97.82L92.7306 97.86ZM95.4706 87.88C95.324 88.0667 95.124 88.2933 94.8706 88.56C94.6306 88.8267 94.3573 89.1067 94.0506 89.4C93.7573 89.68 93.464 89.9533 93.1706 90.22C92.8773 90.4733 92.6106 90.6933 92.3706 90.88H90.9706V90.64C91.1706 90.3867 91.3973 90.0867 91.6506 89.74C91.904 89.3933 92.1506 89.04 92.3906 88.68C92.6306 88.3067 92.8306 87.9733 92.9906 87.68H95.4706V87.88ZM108.355 92.02C108.542 92.02 108.748 92.0333 108.975 92.06C109.202 92.0733 109.388 92.0933 109.535 92.12L109.315 94.1C109.168 94.06 108.995 94.0267 108.795 94C108.595 93.9733 108.408 93.96 108.235 93.96C107.835 93.96 107.448 94.04 107.075 94.2C106.715 94.3467 106.388 94.5667 106.095 94.86C105.802 95.14 105.568 95.4867 105.395 95.9C105.235 96.3133 105.155 96.7867 105.155 97.32V103H103.035V92.22H104.715L104.995 94.14H105.075C105.302 93.7533 105.575 93.4 105.895 93.08C106.215 92.76 106.582 92.5067 106.995 92.32C107.408 92.12 107.862 92.02 108.355 92.02ZM117.151 92.22V103H115.031V92.22H117.151ZM116.111 88.12C116.431 88.12 116.711 88.2133 116.951 88.4C117.191 88.5867 117.311 88.9 117.311 89.34C117.311 89.7667 117.191 90.08 116.951 90.28C116.711 90.4667 116.431 90.56 116.111 90.56C115.764 90.56 115.471 90.4667 115.231 90.28C115.004 90.08 114.891 89.7667 114.891 89.34C114.891 88.9 115.004 88.5867 115.231 88.4C115.471 88.2133 115.764 88.12 116.111 88.12ZM133.48 97.6C133.48 98.4933 133.36 99.2867 133.12 99.98C132.88 100.673 132.54 101.26 132.1 101.74C131.66 102.22 131.127 102.587 130.5 102.84C129.874 103.08 129.167 103.2 128.38 103.2C127.66 103.2 126.994 103.08 126.38 102.84C125.767 102.587 125.234 102.22 124.78 101.74C124.34 101.26 123.994 100.673 123.74 99.98C123.487 99.2867 123.36 98.4867 123.36 97.58C123.36 96.3933 123.56 95.3867 123.96 94.56C124.374 93.7333 124.96 93.1067 125.72 92.68C126.494 92.24 127.4 92.02 128.44 92.02C129.427 92.02 130.294 92.24 131.04 92.68C131.8 93.1067 132.394 93.7333 132.82 94.56C133.26 95.3867 133.48 96.4 133.48 97.6ZM125.54 97.6C125.54 98.4 125.64 99.0933 125.84 99.68C126.04 100.253 126.354 100.693 126.78 101C127.207 101.307 127.754 101.46 128.42 101.46C129.087 101.46 129.634 101.307 130.06 101C130.487 100.693 130.8 100.253 131 99.68C131.2 99.0933 131.3 98.4 131.3 97.6C131.3 96.7733 131.194 96.08 130.98 95.52C130.78 94.96 130.467 94.5333 130.04 94.24C129.627 93.9333 129.08 93.78 128.4 93.78C127.4 93.78 126.674 94.1133 126.22 94.78C125.767 95.4467 125.54 96.3867 125.54 97.6ZM152.543 92.02C153.903 92.02 154.916 92.32 155.583 92.92C156.25 93.5067 156.583 94.4333 156.583 95.7V103H155.083L154.663 101.5H154.583C154.276 101.887 153.956 102.207 153.623 102.46C153.303 102.713 152.93 102.9 152.503 103.02C152.09 103.14 151.583 103.2 150.983 103.2C150.343 103.2 149.763 103.087 149.243 102.86C148.736 102.62 148.336 102.26 148.043 101.78C147.75 101.287 147.603 100.673 147.603 99.94C147.603 98.8467 148.016 98.0133 148.843 97.44C149.683 96.8667 150.956 96.5533 152.663 96.5L154.503 96.44V95.84C154.503 95.04 154.323 94.48 153.963 94.16C153.603 93.84 153.096 93.68 152.443 93.68C151.883 93.68 151.35 93.76 150.843 93.92C150.336 94.08 149.856 94.2733 149.403 94.5L148.723 92.96C149.23 92.6933 149.81 92.4733 150.463 92.3C151.13 92.1133 151.823 92.02 152.543 92.02ZM153.043 97.86C151.816 97.9133 150.963 98.12 150.483 98.48C150.016 98.8267 149.783 99.32 149.783 99.96C149.783 100.52 149.95 100.927 150.283 101.18C150.63 101.433 151.063 101.56 151.583 101.56C152.423 101.56 153.116 101.327 153.663 100.86C154.21 100.393 154.483 99.6933 154.483 98.76V97.82L153.043 97.86ZM172.628 92.22V103H170.928L170.628 101.58H170.528C170.301 101.953 170.008 102.26 169.648 102.5C169.288 102.74 168.894 102.913 168.468 103.02C168.041 103.14 167.601 103.2 167.148 103.2C166.308 103.2 165.594 103.067 165.008 102.8C164.434 102.52 163.994 102.093 163.688 101.52C163.394 100.933 163.248 100.187 163.248 99.28V92.22H165.388V98.96C165.388 99.8 165.561 100.427 165.908 100.84C166.268 101.253 166.821 101.46 167.567 101.46C168.314 101.46 168.901 101.313 169.328 101.02C169.754 100.727 170.054 100.3 170.228 99.74C170.414 99.1667 170.508 98.48 170.508 97.68V92.22H172.628ZM183.325 101.48C183.605 101.48 183.892 101.453 184.185 101.4C184.478 101.347 184.732 101.287 184.945 101.22V102.82C184.718 102.927 184.412 103.013 184.025 103.08C183.638 103.16 183.252 103.2 182.865 103.2C182.278 103.2 181.738 103.1 181.245 102.9C180.765 102.7 180.378 102.353 180.085 101.86C179.792 101.367 179.645 100.68 179.645 99.8V93.84H178.145V92.88L179.725 92.08L180.465 89.8H181.765V92.22H184.845V93.84H181.765V99.76C181.765 100.347 181.905 100.78 182.185 101.06C182.478 101.34 182.858 101.48 183.325 101.48ZM200.101 97.6C200.101 98.4933 199.981 99.2867 199.741 99.98C199.501 100.673 199.161 101.26 198.721 101.74C198.281 102.22 197.748 102.587 197.121 102.84C196.495 103.08 195.788 103.2 195.001 103.2C194.281 103.2 193.615 103.08 193.001 102.84C192.388 102.587 191.855 102.22 191.401 101.74C190.961 101.26 190.615 100.673 190.361 99.98C190.108 99.2867 189.981 98.4867 189.981 97.58C189.981 96.3933 190.181 95.3867 190.581 94.56C190.995 93.7333 191.581 93.1067 192.341 92.68C193.115 92.24 194.021 92.02 195.061 92.02C196.048 92.02 196.915 92.24 197.661 92.68C198.421 93.1067 199.015 93.7333 199.441 94.56C199.881 95.3867 200.101 96.4 200.101 97.6ZM192.161 97.6C192.161 98.4 192.261 99.0933 192.461 99.68C192.661 100.253 192.975 100.693 193.401 101C193.828 101.307 194.375 101.46 195.041 101.46C195.708 101.46 196.255 101.307 196.681 101C197.108 100.693 197.421 100.253 197.621 99.68C197.821 99.0933 197.921 98.4 197.921 97.6C197.921 96.7733 197.815 96.08 197.601 95.52C197.401 94.96 197.088 94.5333 196.661 94.24C196.248 93.9333 195.701 93.78 195.021 93.78C194.021 93.78 193.295 94.1133 192.841 94.78C192.388 95.4467 192.161 96.3867 192.161 97.6ZM218.369 92.02C219.582 92.02 220.496 92.3333 221.109 92.96C221.722 93.5867 222.029 94.5933 222.029 95.98V103H219.909V96.26C219.909 95.4333 219.742 94.8133 219.409 94.4C219.089 93.9733 218.582 93.76 217.889 93.76C216.929 93.76 216.242 94.06 215.829 94.66C215.416 95.2467 215.209 96.1 215.209 97.22V103H213.109V96.26C213.109 95.7133 213.029 95.2533 212.869 94.88C212.722 94.5067 212.502 94.2267 212.209 94.04C211.916 93.8533 211.536 93.76 211.069 93.76C210.402 93.76 209.876 93.9067 209.489 94.2C209.102 94.4933 208.822 94.9267 208.649 95.5C208.489 96.06 208.409 96.7467 208.409 97.56V103H206.289V92.22H207.969L208.269 93.66H208.389C208.616 93.2867 208.889 92.98 209.209 92.74C209.542 92.5 209.909 92.32 210.309 92.2C210.709 92.08 211.122 92.02 211.549 92.02C212.362 92.02 213.049 92.1667 213.609 92.46C214.169 92.74 214.576 93.1733 214.829 93.76H214.989C215.336 93.16 215.816 92.72 216.429 92.44C217.042 92.16 217.689 92.02 218.369 92.02ZM238.273 97.6C238.273 98.4933 238.153 99.2867 237.913 99.98C237.673 100.673 237.333 101.26 236.893 101.74C236.453 102.22 235.92 102.587 235.293 102.84C234.667 103.08 233.96 103.2 233.173 103.2C232.453 103.2 231.787 103.08 231.173 102.84C230.56 102.587 230.027 102.22 229.573 101.74C229.133 101.26 228.787 100.673 228.533 99.98C228.28 99.2867 228.153 98.4867 228.153 97.58C228.153 96.3933 228.353 95.3867 228.753 94.56C229.167 93.7333 229.753 93.1067 230.513 92.68C231.287 92.24 232.193 92.02 233.233 92.02C234.22 92.02 235.087 92.24 235.833 92.68C236.593 93.1067 237.187 93.7333 237.613 94.56C238.053 95.3867 238.273 96.4 238.273 97.6ZM230.333 97.6C230.333 98.4 230.433 99.0933 230.633 99.68C230.833 100.253 231.147 100.693 231.573 101C232 101.307 232.547 101.46 233.213 101.46C233.88 101.46 234.427 101.307 234.853 101C235.28 100.693 235.593 100.253 235.793 99.68C235.993 99.0933 236.093 98.4 236.093 97.6C236.093 96.7733 235.987 96.08 235.773 95.52C235.573 94.96 235.26 94.5333 234.833 94.24C234.42 93.9333 233.873 93.78 233.193 93.78C232.193 93.78 231.467 94.1133 231.013 94.78C230.56 95.4467 230.333 96.3867 230.333 97.6ZM246.581 91.46C246.581 91.9 246.567 92.32 246.541 92.72C246.527 93.1067 246.507 93.4133 246.481 93.64H246.581C246.887 93.1867 247.301 92.8067 247.821 92.5C248.341 92.1933 249.014 92.04 249.841 92.04C251.134 92.04 252.174 92.5067 252.961 93.44C253.761 94.3733 254.161 95.76 254.161 97.6C254.161 98.84 253.981 99.8733 253.621 100.7C253.261 101.527 252.754 102.153 252.101 102.58C251.447 102.993 250.687 103.2 249.821 103.2C248.981 103.2 248.307 103.053 247.801 102.76C247.294 102.453 246.887 102.093 246.581 101.68H246.421L246.021 103H244.461V87.8H246.581V91.46ZM249.341 93.76C248.647 93.76 248.101 93.8933 247.701 94.16C247.301 94.4267 247.014 94.8333 246.841 95.38C246.667 95.9267 246.581 96.62 246.581 97.46V97.62C246.581 98.86 246.781 99.8133 247.181 100.48C247.581 101.133 248.314 101.46 249.381 101.46C250.234 101.46 250.881 101.127 251.321 100.46C251.761 99.7933 251.981 98.8333 251.981 97.58C251.981 96.3133 251.761 95.36 251.321 94.72C250.881 94.08 250.221 93.76 249.341 93.76ZM262.483 92.22V103H260.363V92.22H262.483ZM261.443 88.12C261.763 88.12 262.043 88.2133 262.283 88.4C262.523 88.5867 262.643 88.9 262.643 89.34C262.643 89.7667 262.523 90.08 262.283 90.28C262.043 90.4667 261.763 90.56 261.443 90.56C261.096 90.56 260.803 90.4667 260.563 90.28C260.336 90.08 260.223 89.7667 260.223 89.34C260.223 88.9 260.336 88.5867 260.563 88.4C260.803 88.2133 261.096 88.12 261.443 88.12ZM271.432 103H269.312V87.8H271.432V103ZM280.382 103H278.262V92.22H280.382V103ZM282.662 87.88C282.515 88.0667 282.315 88.2933 282.062 88.56C281.822 88.8267 281.548 89.1067 281.242 89.4C280.948 89.68 280.655 89.9533 280.362 90.22C280.068 90.4733 279.802 90.6933 279.562 90.88H278.162V90.64C278.362 90.3867 278.588 90.0867 278.842 89.74C279.095 89.3933 279.342 89.04 279.582 88.68C279.822 88.3067 280.022 87.9733 280.182 87.68H282.662V87.88ZM294.371 99.96C294.371 100.667 294.197 101.26 293.851 101.74C293.504 102.22 293.004 102.587 292.351 102.84C291.697 103.08 290.911 103.2 289.991 103.2C289.231 103.2 288.577 103.14 288.031 103.02C287.497 102.913 287.004 102.753 286.551 102.54V100.68C287.031 100.907 287.584 101.113 288.211 101.3C288.837 101.473 289.451 101.56 290.051 101.56C290.851 101.56 291.424 101.433 291.771 101.18C292.131 100.927 292.311 100.587 292.311 100.16C292.311 99.92 292.244 99.7067 292.111 99.52C291.977 99.32 291.724 99.12 291.351 98.92C290.991 98.7067 290.457 98.4667 289.751 98.2C289.071 97.92 288.491 97.6467 288.011 97.38C287.531 97.1 287.164 96.7733 286.911 96.4C286.657 96.0133 286.531 95.52 286.531 94.92C286.531 93.9867 286.904 93.2733 287.651 92.78C288.411 92.2733 289.411 92.02 290.651 92.02C291.304 92.02 291.917 92.0867 292.491 92.22C293.077 92.34 293.644 92.5267 294.191 92.78L293.491 94.4C293.184 94.2533 292.864 94.1333 292.531 94.04C292.211 93.9333 291.884 93.8467 291.551 93.78C291.231 93.7133 290.897 93.68 290.551 93.68C289.911 93.68 289.424 93.78 289.091 93.98C288.757 94.18 288.591 94.46 288.591 94.82C288.591 95.0733 288.664 95.2933 288.811 95.48C288.971 95.6667 289.244 95.8533 289.631 96.04C290.017 96.2267 290.544 96.4533 291.211 96.72C291.877 96.9733 292.444 97.2333 292.911 97.5C293.391 97.7667 293.751 98.0933 293.991 98.48C294.244 98.8667 294.371 99.36 294.371 99.96ZM304.278 101.48C304.558 101.48 304.845 101.453 305.138 101.4C305.432 101.347 305.685 101.287 305.898 101.22V102.82C305.672 102.927 305.365 103.013 304.978 103.08C304.592 103.16 304.205 103.2 303.818 103.2C303.232 103.2 302.692 103.1 302.198 102.9C301.718 102.7 301.332 102.353 301.038 101.86C300.745 101.367 300.598 100.68 300.598 99.8V93.84H299.098V92.88L300.678 92.08L301.418 89.8H302.718V92.22H305.798V93.84H302.718V99.76C302.718 100.347 302.858 100.78 303.138 101.06C303.432 101.34 303.812 101.48 304.278 101.48ZM313.675 92.22V103H311.555V92.22H313.675ZM312.635 88.12C312.955 88.12 313.235 88.2133 313.475 88.4C313.715 88.5867 313.835 88.9 313.835 89.34C313.835 89.7667 313.715 90.08 313.475 90.28C313.235 90.4667 312.955 90.56 312.635 90.56C312.288 90.56 311.995 90.4667 311.755 90.28C311.528 90.08 311.415 89.7667 311.415 89.34C311.415 88.9 311.528 88.5867 311.755 88.4C311.995 88.2133 312.288 88.12 312.635 88.12ZM324.844 103.2C323.857 103.2 322.99 103.007 322.244 102.62C321.497 102.233 320.917 101.633 320.504 100.82C320.09 99.9933 319.884 98.9467 319.884 97.68C319.884 96.3467 320.104 95.2667 320.544 94.44C320.997 93.6133 321.604 93.0067 322.364 92.62C323.137 92.22 324.017 92.02 325.004 92.02C325.604 92.02 326.164 92.0867 326.684 92.22C327.217 92.34 327.657 92.48 328.004 92.64L327.364 94.36C326.99 94.2133 326.59 94.0867 326.164 93.98C325.75 93.8733 325.357 93.82 324.984 93.82C324.317 93.82 323.764 93.9667 323.324 94.26C322.897 94.54 322.577 94.9667 322.364 95.54C322.164 96.1 322.064 96.8067 322.064 97.66C322.064 98.4733 322.17 99.16 322.384 99.72C322.597 100.28 322.91 100.707 323.324 101C323.75 101.28 324.277 101.42 324.904 101.42C325.504 101.42 326.03 101.353 326.484 101.22C326.937 101.087 327.364 100.913 327.764 100.7V102.54C327.377 102.767 326.957 102.933 326.504 103.04C326.05 103.147 325.497 103.2 324.844 103.2ZM343.308 97.6C343.308 98.4933 343.188 99.2867 342.948 99.98C342.708 100.673 342.368 101.26 341.928 101.74C341.488 102.22 340.955 102.587 340.328 102.84C339.702 103.08 338.995 103.2 338.208 103.2C337.488 103.2 336.822 103.08 336.208 102.84C335.595 102.587 335.062 102.22 334.608 101.74C334.168 101.26 333.822 100.673 333.568 99.98C333.315 99.2867 333.188 98.4867 333.188 97.58C333.188 96.3933 333.388 95.3867 333.788 94.56C334.202 93.7333 334.788 93.1067 335.548 92.68C336.322 92.24 337.228 92.02 338.268 92.02C339.255 92.02 340.122 92.24 340.868 92.68C341.628 93.1067 342.222 93.7333 342.648 94.56C343.088 95.3867 343.308 96.4 343.308 97.6ZM335.368 97.6C335.368 98.4 335.468 99.0933 335.668 99.68C335.868 100.253 336.182 100.693 336.608 101C337.035 101.307 337.582 101.46 338.248 101.46C338.915 101.46 339.462 101.307 339.888 101C340.315 100.693 340.628 100.253 340.828 99.68C341.028 99.0933 341.128 98.4 341.128 97.6C341.128 96.7733 341.022 96.08 340.808 95.52C340.608 94.96 340.295 94.5333 339.868 94.24C339.455 93.9333 338.908 93.78 338.228 93.78C337.228 93.78 336.502 94.1133 336.048 94.78C335.595 95.4467 335.368 96.3867 335.368 97.6Z" fill="#FC6736"/>
</svg>
