<?xml version="1.0" encoding="UTF-8"?>
<svg xmlns="http://www.w3.org/2000/svg" id="a" width="865.76" height="682.89" viewBox="0 0 865.76 682.89">
  <g>
    <g>
      <rect x="415.35" y="175.72" width="384.68" height="268.65" fill="#fbe493" stroke="#002346" stroke-miterlimit="10"></rect>
      <rect x="422.36" y="191.29" width="370.67" height="236.73" fill="#fff" stroke="#002346" stroke-miterlimit="10"></rect>
      <rect x="388.87" y="443.59" width="437.63" height="9.34" fill="#fff" stroke="#002346" stroke-miterlimit="10"></rect>
      <path d="M389.12,453.01l30.9,9.27h373.78l32.12-9.18c.1-.03,.08-.17-.02-.17H389.13s-.05,.06-.01,.07Z" fill="#e6e7e8" stroke="#002346" stroke-miterlimit="10"></path>
      <rect x="478.04" y="39" width="256.94" height="375.74" fill="#fff" stroke="#002346" stroke-miterlimit="10"></rect>
      <rect x="525.26" y="70.84" width="162.08" height="11.05" rx="5.53" ry="5.53" fill="#e6e7e8" stroke="#002346" stroke-miterlimit="10"></rect>
      <rect x="503.16" y="105.83" width="104.99" height="5.53" rx="2.76" ry="2.76" fill="#e6e7e8" stroke="#002346" stroke-miterlimit="10"></rect>
      <rect x="503.16" y="135.3" width="104.99" height="5.53" rx="2.76" ry="2.76" fill="#e6e7e8" stroke="#002346" stroke-miterlimit="10"></rect>
      <rect x="517.9" y="120.57" width="90.25" height="5.53" rx="2.76" ry="2.76" fill="#e6e7e8" stroke="#002346" stroke-miterlimit="10"></rect>
      <rect x="532.63" y="148.19" width="75.52" height="5.53" rx="2.76" ry="2.76" fill="#e6e7e8" stroke="#002346" stroke-miterlimit="10"></rect>
      <g>
        <path d="M521.28,171.57l1.11,2.25c.1,.2,.29,.34,.52,.38l2.48,.36c.56,.08,.79,.78,.38,1.17l-1.8,1.75c-.16,.16-.24,.39-.2,.61l.42,2.47c.1,.56-.49,.99-1,.73l-2.22-1.17c-.2-.11-.44-.11-.64,0l-2.22,1.17c-.51,.27-1.1-.16-1-.73l.42-2.47c.04-.22-.04-.45-.2-.61l-1.8-1.75c-.41-.4-.18-1.09,.38-1.17l2.48-.36c.22-.03,.42-.17,.52-.38l1.11-2.25c.25-.51,.98-.51,1.24,0Z" fill="#f58f74" stroke="#002346" stroke-miterlimit="10"></path>
        <path d="M542,171.57l1.11,2.25c.1,.2,.29,.34,.52,.38l2.48,.36c.56,.08,.79,.78,.38,1.17l-1.8,1.75c-.16,.16-.24,.39-.2,.61l.42,2.47c.1,.56-.49,.99-1,.73l-2.22-1.17c-.2-.11-.44-.11-.64,0l-2.22,1.17c-.51,.27-1.1-.16-1-.73l.42-2.47c.04-.22-.04-.45-.2-.61l-1.8-1.75c-.41-.4-.18-1.09,.38-1.17l2.48-.36c.22-.03,.42-.17,.52-.38l1.11-2.25c.25-.51,.98-.51,1.24,0Z" fill="#f58f74" stroke="#002346" stroke-miterlimit="10"></path>
        <path d="M562.72,171.57l1.11,2.25c.1,.2,.29,.34,.52,.38l2.48,.36c.56,.08,.79,.78,.38,1.17l-1.8,1.75c-.16,.16-.24,.39-.2,.61l.42,2.47c.1,.56-.49,.99-1,.73l-2.22-1.17c-.2-.11-.44-.11-.64,0l-2.22,1.17c-.51,.27-1.1-.16-1-.73l.42-2.47c.04-.22-.04-.45-.2-.61l-1.8-1.75c-.41-.4-.18-1.09,.38-1.17l2.48-.36c.22-.03,.42-.17,.52-.38l1.11-2.25c.25-.51,.98-.51,1.24,0Z" fill="#f58f74" stroke="#002346" stroke-miterlimit="10"></path>
        <path d="M583.44,171.57l1.11,2.25c.1,.2,.29,.34,.52,.38l2.48,.36c.56,.08,.79,.78,.38,1.17l-1.8,1.75c-.16,.16-.24,.39-.2,.61l.42,2.47c.1,.56-.49,.99-1,.73l-2.22-1.17c-.2-.11-.44-.11-.64,0l-2.22,1.17c-.51,.27-1.1-.16-1-.73l.42-2.47c.04-.22-.04-.45-.2-.61l-1.8-1.75c-.41-.4-.18-1.09,.38-1.17l2.48-.36c.22-.03,.42-.17,.52-.38l1.11-2.25c.25-.51,.98-.51,1.24,0Z" fill="#f58f74" stroke="#002346" stroke-miterlimit="10"></path>
        <path d="M604.16,171.57l1.11,2.25c.1,.2,.29,.34,.52,.38l2.48,.36c.56,.08,.79,.78,.38,1.17l-1.8,1.75c-.16,.16-.24,.39-.2,.61l.42,2.47c.1,.56-.49,.99-1,.73l-2.22-1.17c-.2-.11-.44-.11-.64,0l-2.22,1.17c-.51,.27-1.1-.16-1-.73l.42-2.47c.04-.22-.04-.45-.2-.61l-1.8-1.75c-.41-.4-.18-1.09,.38-1.17l2.48-.36c.22-.03,.42-.17,.52-.38l1.11-2.25c.25-.51,.98-.51,1.24,0Z" fill="#f58f74" stroke="#002346" stroke-miterlimit="10"></path>
      </g>
      <g>
        <path d="M521.28,188.46l1.11,2.25c.1,.2,.29,.34,.52,.38l2.48,.36c.56,.08,.79,.78,.38,1.17l-1.8,1.75c-.16,.16-.24,.39-.2,.61l.42,2.47c.1,.56-.49,.99-1,.73l-2.22-1.17c-.2-.11-.44-.11-.64,0l-2.22,1.17c-.51,.27-1.1-.16-1-.73l.42-2.47c.04-.22-.04-.45-.2-.61l-1.8-1.75c-.41-.4-.18-1.09,.38-1.17l2.48-.36c.22-.03,.42-.17,.52-.38l1.11-2.25c.25-.51,.98-.51,1.24,0Z" fill="#e6e7e8" stroke="#002346" stroke-miterlimit="10"></path>
        <path d="M542,188.46l1.11,2.25c.1,.2,.29,.34,.52,.38l2.48,.36c.56,.08,.79,.78,.38,1.17l-1.8,1.75c-.16,.16-.24,.39-.2,.61l.42,2.47c.1,.56-.49,.99-1,.73l-2.22-1.17c-.2-.11-.44-.11-.64,0l-2.22,1.17c-.51,.27-1.1-.16-1-.73l.42-2.47c.04-.22-.04-.45-.2-.61l-1.8-1.75c-.41-.4-.18-1.09,.38-1.17l2.48-.36c.22-.03,.42-.17,.52-.38l1.11-2.25c.25-.51,.98-.51,1.24,0Z" fill="#f58f74" stroke="#002346" stroke-miterlimit="10"></path>
        <path d="M562.72,188.46l1.11,2.25c.1,.2,.29,.34,.52,.38l2.48,.36c.56,.08,.79,.78,.38,1.17l-1.8,1.75c-.16,.16-.24,.39-.2,.61l.42,2.47c.1,.56-.49,.99-1,.73l-2.22-1.17c-.2-.11-.44-.11-.64,0l-2.22,1.17c-.51,.27-1.1-.16-1-.73l.42-2.47c.04-.22-.04-.45-.2-.61l-1.8-1.75c-.41-.4-.18-1.09,.38-1.17l2.48-.36c.22-.03,.42-.17,.52-.38l1.11-2.25c.25-.51,.98-.51,1.24,0Z" fill="#f58f74" stroke="#002346" stroke-miterlimit="10"></path>
        <path d="M583.44,188.46l1.11,2.25c.1,.2,.29,.34,.52,.38l2.48,.36c.56,.08,.79,.78,.38,1.17l-1.8,1.75c-.16,.16-.24,.39-.2,.61l.42,2.47c.1,.56-.49,.99-1,.73l-2.22-1.17c-.2-.11-.44-.11-.64,0l-2.22,1.17c-.51,.27-1.1-.16-1-.73l.42-2.47c.04-.22-.04-.45-.2-.61l-1.8-1.75c-.41-.4-.18-1.09,.38-1.17l2.48-.36c.22-.03,.42-.17,.52-.38l1.11-2.25c.25-.51,.98-.51,1.24,0Z" fill="#f58f74" stroke="#002346" stroke-miterlimit="10"></path>
        <path d="M604.16,188.46l1.11,2.25c.1,.2,.29,.34,.52,.38l2.48,.36c.56,.08,.79,.78,.38,1.17l-1.8,1.75c-.16,.16-.24,.39-.2,.61l.42,2.47c.1,.56-.49,.99-1,.73l-2.22-1.17c-.2-.11-.44-.11-.64,0l-2.22,1.17c-.51,.27-1.1-.16-1-.73l.42-2.47c.04-.22-.04-.45-.2-.61l-1.8-1.75c-.41-.4-.18-1.09,.38-1.17l2.48-.36c.22-.03,.42-.17,.52-.38l1.11-2.25c.25-.51,.98-.51,1.24,0Z" fill="#f58f74" stroke="#002346" stroke-miterlimit="10"></path>
      </g>
      <g>
        <path d="M521.28,205.35l1.11,2.25c.1,.2,.29,.34,.52,.38l2.48,.36c.56,.08,.79,.78,.38,1.17l-1.8,1.75c-.16,.16-.24,.39-.2,.61l.42,2.47c.1,.56-.49,.99-1,.73l-2.22-1.17c-.2-.11-.44-.11-.64,0l-2.22,1.17c-.51,.27-1.1-.16-1-.73l.42-2.47c.04-.22-.04-.45-.2-.61l-1.8-1.75c-.41-.4-.18-1.09,.38-1.17l2.48-.36c.22-.03,.42-.17,.52-.38l1.11-2.25c.25-.51,.98-.51,1.24,0Z" fill="#e6e7e8" stroke="#002346" stroke-miterlimit="10"></path>
        <path d="M542,205.35l1.11,2.25c.1,.2,.29,.34,.52,.38l2.48,.36c.56,.08,.79,.78,.38,1.17l-1.8,1.75c-.16,.16-.24,.39-.2,.61l.42,2.47c.1,.56-.49,.99-1,.73l-2.22-1.17c-.2-.11-.44-.11-.64,0l-2.22,1.17c-.51,.27-1.1-.16-1-.73l.42-2.47c.04-.22-.04-.45-.2-.61l-1.8-1.75c-.41-.4-.18-1.09,.38-1.17l2.48-.36c.22-.03,.42-.17,.52-.38l1.11-2.25c.25-.51,.98-.51,1.24,0Z" fill="#e6e7e8" stroke="#002346" stroke-miterlimit="10"></path>
        <path d="M562.72,205.35l1.11,2.25c.1,.2,.29,.34,.52,.38l2.48,.36c.56,.08,.79,.78,.38,1.17l-1.8,1.75c-.16,.16-.24,.39-.2,.61l.42,2.47c.1,.56-.49,.99-1,.73l-2.22-1.17c-.2-.11-.44-.11-.64,0l-2.22,1.17c-.51,.27-1.1-.16-1-.73l.42-2.47c.04-.22-.04-.45-.2-.61l-1.8-1.75c-.41-.4-.18-1.09,.38-1.17l2.48-.36c.22-.03,.42-.17,.52-.38l1.11-2.25c.25-.51,.98-.51,1.24,0Z" fill="#f58f74" stroke="#002346" stroke-miterlimit="10"></path>
        <path d="M583.44,205.35l1.11,2.25c.1,.2,.29,.34,.52,.38l2.48,.36c.56,.08,.79,.78,.38,1.17l-1.8,1.75c-.16,.16-.24,.39-.2,.61l.42,2.47c.1,.56-.49,.99-1,.73l-2.22-1.17c-.2-.11-.44-.11-.64,0l-2.22,1.17c-.51,.27-1.1-.16-1-.73l.42-2.47c.04-.22-.04-.45-.2-.61l-1.8-1.75c-.41-.4-.18-1.09,.38-1.17l2.48-.36c.22-.03,.42-.17,.52-.38l1.11-2.25c.25-.51,.98-.51,1.24,0Z" fill="#f58f74" stroke="#002346" stroke-miterlimit="10"></path>
        <path d="M604.16,205.35l1.11,2.25c.1,.2,.29,.34,.52,.38l2.48,.36c.56,.08,.79,.78,.38,1.17l-1.8,1.75c-.16,.16-.24,.39-.2,.61l.42,2.47c.1,.56-.49,.99-1,.73l-2.22-1.17c-.2-.11-.44-.11-.64,0l-2.22,1.17c-.51,.27-1.1-.16-1-.73l.42-2.47c.04-.22-.04-.45-.2-.61l-1.8-1.75c-.41-.4-.18-1.09,.38-1.17l2.48-.36c.22-.03,.42-.17,.52-.38l1.11-2.25c.25-.51,.98-.51,1.24,0Z" fill="#f58f74" stroke="#002346" stroke-miterlimit="10"></path>
      </g>
      <rect x="582.36" y="245.81" width="25.79" height="25.79" fill="#f58f74" stroke="#002346" stroke-miterlimit="10"></rect>
      <rect x="582.36" y="277.13" width="25.79" height="5.53" fill="#f58f74" stroke="#002346" stroke-miterlimit="10"></rect>
      <rect x="499.48" y="245.81" width="71.83" height="5.53" rx="2.76" ry="2.76" fill="#e6e7e8" stroke="#002346" stroke-miterlimit="10"></rect>
      <rect x="499.48" y="274.06" width="71.83" height="5.53" rx="2.76" ry="2.76" fill="#e6e7e8" stroke="#002346" stroke-miterlimit="10"></rect>
      <rect x="536.32" y="288.18" width="35" height="5.53" rx="2.76" ry="2.76" fill="#e6e7e8" stroke="#002346" stroke-miterlimit="10"></rect>
      <rect x="516.06" y="259.93" width="55.26" height="5.53" rx="2.76" ry="2.76" fill="#e6e7e8" stroke="#002346" stroke-miterlimit="10"></rect>
      <rect x="582.36" y="317.65" width="25.79" height="25.79" fill="#f58f74" stroke="#002346" stroke-miterlimit="10"></rect>
      <rect x="582.36" y="348.96" width="25.79" height="5.53" fill="#f58f74" stroke="#002346" stroke-miterlimit="10"></rect>
      <rect x="499.48" y="317.65" width="71.83" height="5.53" rx="2.76" ry="2.76" fill="#e6e7e8" stroke="#002346" stroke-miterlimit="10"></rect>
      <rect x="499.48" y="345.89" width="71.83" height="5.53" rx="2.76" ry="2.76" fill="#e6e7e8" stroke="#002346" stroke-miterlimit="10"></rect>
      <rect x="536.32" y="360.01" width="35" height="5.53" rx="2.76" ry="2.76" fill="#e6e7e8" stroke="#002346" stroke-miterlimit="10"></rect>
      <rect x="516.06" y="331.77" width="55.26" height="5.53" rx="2.76" ry="2.76" fill="#e6e7e8" stroke="#002346" stroke-miterlimit="10"></rect>
      <rect x="624.73" y="243.97" width="92.09" height="121.56" fill="#e6e7e8" stroke="#002346" stroke-miterlimit="10"></rect>
      <rect x="637.62" y="256.86" width="68.15" height="5.53" rx="2.76" ry="2.76" fill="#e6e7e8" stroke="#002346" stroke-miterlimit="10"></rect>
      <rect x="637.62" y="272.21" width="68.15" height="5.53" rx="2.76" ry="2.76" fill="#e6e7e8" stroke="#002346" stroke-miterlimit="10"></rect>
      <rect x="665.25" y="287.56" width="40.52" height="5.53" rx="2.76" ry="2.76" fill="#e6e7e8" stroke="#002346" stroke-miterlimit="10"></rect>
      <rect x="637.62" y="302.91" width="68.15" height="5.53" rx="2.76" ry="2.76" fill="#e6e7e8" stroke="#002346" stroke-miterlimit="10"></rect>
      <rect x="637.62" y="318.26" width="68.15" height="5.53" rx="2.76" ry="2.76" fill="#e6e7e8" stroke="#002346" stroke-miterlimit="10"></rect>
      <rect x="681.82" y="333.61" width="23.94" height="5.53" rx="2.76" ry="2.76" fill="#e6e7e8" stroke="#002346" stroke-miterlimit="10"></rect>
      <rect x="650.51" y="348.96" width="55.26" height="5.53" rx="2.76" ry="2.76" fill="#e6e7e8" stroke="#002346" stroke-miterlimit="10"></rect>
      <rect x="628.41" y="105.83" width="86.57" height="117.88" fill="#f58f74" stroke="#002346" stroke-miterlimit="10"></rect>
    </g>
    <g>
      <path d="M106.54,342.63s-.04,4.54,8.11,8.95l3.73-10.52s-5.01-.59-11.84,1.57Z" fill="#fbe493" stroke="#002346" stroke-miterlimit="10"></path>
      <path d="M94.99,403.06s-24.28,13.1-32.55,45.18c-.53,2.04-1.27,4.03-2.21,5.91-10.26,20.51-66.25,143.92,61.92,164.14,0,0,54.32,15.62,119.84,9.17l155.49-9.85,50.58-47.87-41.08-20.71-52.96-52.62-38.02-20.71-147-99.81-40.4-6.79-33.61,33.95Z" fill="#e6e7e8" stroke="#002346" stroke-miterlimit="10"></path>
      <polygon points="247.41 377.29 264.39 411.24 276.27 364.39 267.78 350.13 246.74 363.37 247.41 377.29" fill="#f2b3c1" stroke="#002346" stroke-miterlimit="10"></polygon>
      <path d="M172.74,285.6l-10.81,6.18c-.67,.39-1.43,.61-2.2,.65-2.47,.13-8.43,.74-11.81,3.46-.43,.34-.95,.54-1.49,.53-3.87-.04-20.02,1.18-30.72,23.46l-9.17,22.75s28.52,6.11,36.66,23.09l-4.75,16.3s-5.22,29.2,22.03,73.12c1.65,2.66,9.2,6.19,11.88,7.81l13.58,7.13,79.82-27.96-1.02-8.83s-29.54-3.06-24.44-28.86c0,0,0-11.88,7.13-23.76,0,0,4.41-5.77,5.09-16.63l21.39-12.9s-13.58-17.31-16.3-28.86c0,0-5.14-24.15-32.62-28.54l-31.89-7.11-20.37-1.02Z" fill="#fbe493" stroke="#002346" stroke-miterlimit="10"></path>
      <path d="M455.21,615.07c0,1.03-.05,2.03-.15,3-.67,6.9-3.51,12.34-6.68,16.38-2.5,3.2-5.2,5.52-7.19,7s-4.45,2.37-6.96,2.43c-7.92,.2-15.52-3.66-19.31-5.95-1.76-1.06-3.79-1.6-5.84-1.53l-4.67,.16c-1.47,.05-2.94-.2-4.3-.76-20.72-8.47-32.16-25.31-32.16-25.31-.16-.43-.26-.87-.32-1.31-.83-6.33,8.06-13.01,13.64-16.53,1.79-1.13,3.23-1.94,3.91-2.3,.27-.15,.42-.22,.42-.22l10.86-11.88c3.73-4.41,12.22-4.75,12.22-4.75,6.45-5.09,14.26-4.75,14.26-4.75,14.26,6.45,25,18.28,25,18.28-.13,6.74,2.16,17.03,2.16,17.03l4.59,8.87c.19,.37,.33,.75,.41,1.15,.07,.33,.11,.66,.11,1Z" fill="#fbe493" stroke="#002346" stroke-miterlimit="10"></path>
      <path d="M448.38,634.46c-2.5,3.2-5.2,5.52-7.19,7-2.02,1.5-4.45,2.37-6.96,2.43-7.92,.2-15.52-3.66-19.31-5.95-1.76-1.06-3.79-1.6-5.84-1.53l-4.67,.16c-1.47,.05-2.94-.2-4.3-.76-20.72-8.47-32.16-25.31-32.16-25.31-.16-.43-.26-.87-.32-1.31,3.03-.11,8.77,.44,16.39,4.65,1.33,.74,2.58,1.62,3.78,2.56,1.37,1.06,4.18,2.22,6.63-3.18,0,0,1.36-5.43,9.85-5.09,0,0,28.86-2.04,38.02,9.51,0,0,6.49,6.21,6.09,16.84Z" fill="#e6e7e8" stroke="#002346" stroke-miterlimit="10"></path>
      <path d="M455.21,615.07c0,1.03-.05,2.03-.15,3-15.81-18.76-46.28-17.77-55.33-17.02-1.3,.11-2.58,.35-3.85,.64-7.1,1.63-12.4-5.41-14.62-9.05,1.79-1.13,3.23-1.94,3.91-2.3,1.38,2.77,5.16,8.52,12.64,8.26,0,0,37.23-6.85,57.29,15.46,.07,.33,.11,.66,.11,1Z" fill="#fff" stroke="#002346" stroke-miterlimit="10"></path>
      <path d="M408.68,573.49s5.87,16.2,40.28,24.9" fill="none" stroke="#002346" stroke-linecap="round" stroke-linejoin="round"></path>
      <path d="M132.75,620.99s-22.82-79.76,30.48-162.93" fill="none" stroke="#002346" stroke-linecap="round" stroke-linejoin="round"></path>
      <path d="M254.2,443.49l4.45-2.5-2.38,10.18-37.09,8.86,.42-8.52,23.76-18.67,7.43,.47s-11.5,8.7,3.39,10.18Z" fill="#f2b3c1" stroke="#002346" stroke-miterlimit="10"></path>
      <path d="M191.75,261.33s.68,21.22-9.51,35.48c0,0,8.79,21.04,24.95,24.2,4.7,.92,9.56-.38,13.06-3.64,4.06-3.78,7.97-10.89,4.74-23.64l-19.33-28.15-13.92-4.24Z" fill="#f2b3c1" stroke="#002346" stroke-miterlimit="10"></path>
      <path d="M212.19,294.01s-4.15,6.86-1.77,15.01" fill="none" stroke="#002346" stroke-linecap="round" stroke-linejoin="round"></path>
      <rect x="194.79" y="216.02" width="55.55" height="79.37" rx="27.77" ry="27.77" transform="translate(105.57 -62.47) rotate(20.85)" fill="#f2b3c1" stroke="#002346" stroke-miterlimit="10"></rect>
      <g>
        <circle cx="200.21" cy="201.28" r="16.4" fill="#002346" stroke="#002346" stroke-miterlimit="10"></circle>
        <circle cx="207.84" cy="212.91" r="12.61" fill="#f58f74" stroke="#002346" stroke-miterlimit="10"></circle>
        <path d="M248.22,239.27s-10.66,7.32-32.21,5c0,0-.83,7.72-10.93,13.39-9.82,5.51-13.06,18.13-7,27.63,.82,1.29,1.76,2.64,2.84,4.04,0,0-11.64,3.23-20.84-1.86,0,0-7.35,5.05-17.49,2.58-4.12-1-7.37-4.22-8.27-8.36-1.21-5.54-.41-14.91,8.65-29.53,0,0,25.04-52.84,57.73-46.76,0,0,15.5,.46,27.07,9.71,11.66,9.33,10.2,34.05,3.35,43.11v-.02c-1.6-4.45-2.51-9.12-2.69-13.85-.06-1.74-.11-3.46-.21-5.09h0Z" fill="#002346" stroke="#002346" stroke-miterlimit="10"></path>
      </g>
      <ellipse cx="191.75" cy="252.75" rx="5.26" ry="8.57" fill="#f2b3c1" stroke="#002346" stroke-miterlimit="10"></ellipse>
      <path d="M114.14,344.91l-19.14,58.15s-11.88,32.59,2.04,41.08c0,0,36.28-1.91,66.2,13.58,0,0,28.52-.68,39.72,1.7,0,0,14.26,4.07,23.42-7.47l10.18-11.88s6.75-8.02,17.61-2.93l1.36-4.75s-6.41-3.52-12.18-2.5l-4.26,.71c-1.6,.27-3.15,.8-4.57,1.6-1.13,.64-2.46,1.52-3.7,2.66-1.45,1.35-2.98,2.61-4.63,3.72-5.12,3.43-15.04,9.55-20.19,9.3,0,0-33.61-1.36-69.93-22.41,0,0-10.23-6.32-7.47-14.94l9.85-28.52,4.75-16.3s-4.83-13.09-29.06-20.8Z" fill="#f2b3c1" stroke="#002346" stroke-miterlimit="10"></path>
      <path d="M252.52,364.02s.3-9.38-2.76-17.87" fill="none" stroke="#002346" stroke-linecap="round" stroke-linejoin="round"></path>
      <path d="M251.84,445.5l127.31-5.77,26.18-104.09c.99-3.93-2.13-7.69-6.18-7.44l-114.13,7.04c-2.58,.16-4.77,1.96-5.42,4.46l-27.76,105.8Z" fill="#fbe493" stroke="#002346" stroke-miterlimit="10"></path>
      <polygon points="185.93 470.07 193.11 473.68 215.51 473.34 287.29 443.87 251.8 445.62 185.93 470.07" fill="#fff" stroke="#002346" stroke-miterlimit="10"></polygon>
      <line x1="259.94" y1="445.28" x2="190.35" y2="472.1" fill="#fbe493" stroke="#002346" stroke-miterlimit="10"></line>
      <path d="M143.2,365.72l10.19-29.36c1.31-3.78,2.08-7.73,2.23-11.73,.23-6.34-.72-14.66-6.69-17.85" fill="none" stroke="#002346" stroke-linecap="round" stroke-linejoin="round"></path>
      <path d="M167.94,399.79s8.58-5.52,28.66,6.17c1.43,.83,2.83,1.74,4.2,2.67,3.37,2.28,15.28,9.12,29.6,3.39" fill="none" stroke="#002346" stroke-linecap="round" stroke-linejoin="round"></path>
      <path d="M367.33,433.16l28.79-15.84s37.16-16.7,53.45,4.12c3.13,4,4.96,8.87,5.43,13.93,.87,9.39,2.33,32.67-1.09,60.94-1.52,12.61-1.29,25.37,.82,37.9,.88,5.27,2.04,10.05,3.52,12.81l-26.48-1.36s-55.34-37.68-54.66-40.4-9.77-72.09-9.77-72.09Z" fill="#f58f74" stroke="#002346" stroke-miterlimit="10"></path>
      <path d="M447.68,537.63s19.39,20.24,39.76,29.07l-8.49,31.91-17.65,6.45-6.11-9.85s-12.9-17.31-32.25-26.48c0,0,2.27-20.96,24.74-31.11Z" fill="#f2b3c1" stroke="#002346" stroke-miterlimit="10"></path>
      <path d="M193.11,473.68s90.98,41.42,143.26,21.39c0,0,2.72,5.77,9.85,8.15,0,0,16.3,38.02,62.47,51.94l-1,4.01c-.58,2.33,.73,4.73,3.01,5.49l12.25,4.08s1.98-18.15,25.79-31.35c.56-.31,.73-1.02,.39-1.56l-7.29-11.52c-1.41-2.24-4.42-2.82-6.57-1.29l-.49,.35-68.54-92.47s-17.02-34.16-78.95,12.97l-51.05,20.96c-13.7,5.62-28.33,8.63-43.14,8.85h0Z" fill="#f58f74" stroke="#002346" stroke-miterlimit="10"></path>
      <line x1="287.29" y1="443.87" x2="247.38" y2="468.37" fill="none" stroke="#002346" stroke-linecap="round" stroke-linejoin="round"></line>
      <path d="M336.37,495.06s-8.19-14.47,5.39-35.52" fill="none" stroke="#002346" stroke-linecap="round" stroke-linejoin="round"></path>
      <path d="M346.22,503.21s-3.1-12.77,2.67-29.75" fill="none" stroke="#002346" stroke-linecap="round" stroke-linejoin="round"></path>
      <path d="M408.68,555.15s4.03-14.81,26.1-31.79" fill="none" stroke="#002346" stroke-linecap="round" stroke-linejoin="round"></path>
      <path d="M574.35,607.36l-32.59,20.45c-21.39,11.54-44.47,11.2-44.47,11.2-11.71-.25-23.24-1.23-28.54-1.73-2.22-.21-4.21-1.46-5.34-3.38-2.85-4.84-3.46-10.91-3.46-15.22,0-3.23,.34-5.47,.34-5.47,0-.01-.01-.02-.01-.03-4.06-8.14-5.12-18.18-5.12-18.18,15.21,1.48,20.68-3.97,22.55-7.15,.63-1.08,.79-2.37,.44-3.57-3.64-12.53,9.3-17.58,9.3-17.58,4.07-6.21,12.14-1.88,18.31,2.97,9.08,7.14,19.92,11.73,31.38,13.21,6.02,.78,10.74,1.14,10.74,1.14,10.35,0,16.95,3.05,21.15,6.89,1.16,1.06,2.14,2.17,2.96,3.3,2.49,3.42,3.58,6.94,4.05,9.25,.31,1.52-.36,3.08-1.68,3.9Z" fill="#fbe493" stroke="#002346" stroke-miterlimit="10"></path>
      <path d="M571.98,594.2c-54,44.66-103.23,28.02-112.04,24.48,0-3.23,.34-5.47,.34-5.47,0-.01-.01-.02-.01-.03,9.04,3.27,60.76,19.29,108.75-22.28,1.16,1.06,2.14,2.17,2.96,3.3Z" fill="#fff" stroke="#002346" stroke-miterlimit="10"></path>
      <path d="M478.62,585.71s17.99,11.2,48.89,12.9c0,0,8.15,.39,7.98,12.59" fill="none" stroke="#002346" stroke-linecap="round" stroke-linejoin="round"></path>
      <path d="M408.64,441.89s-13.58,15.2-8.66,33.4" fill="none" stroke="#002346" stroke-linecap="round" stroke-linejoin="round"></path>
      <path d="M87.82,445.28s32.42-5.7,69.21,9.56c3.63,1.51,7.14,3.29,10.51,5.31,12.63,7.59,58.74,33.05,117.97,39.26" fill="none" stroke="#002346" stroke-linecap="round" stroke-linejoin="round"></path>
      <path d="M370.28,344.46s-16.3,53.98-91.66,72.31" fill="none" stroke="#002346" stroke-linecap="round" stroke-linejoin="round"></path>
    </g>
  </g>
  <path d="M682.69,155.63h-3.8v-.79c0-1.1-.89-2-2-2h-7.16c-1.1,0-2,.89-2,2v.79h-3.8c-1.95,0-3.52,1.58-3.52,3.52v13.86c0,1.95,1.58,3.52,3.52,3.52h18.74c1.95,0,3.52-1.58,3.52-3.52v-13.86c0-1.95-1.58-3.52-3.52-3.52Zm-9.37,16.38c-3.27,0-5.92-2.65-5.92-5.92s2.65-5.92,5.92-5.92,5.92,2.65,5.92,5.92-2.65,5.92-5.92,5.92Z" fill="#fff" stroke="#002346" stroke-miterlimit="10"></path>
</svg>
