<?xml version="1.0" encoding="UTF-8"?>
<svg xmlns="http://www.w3.org/2000/svg" id="a" width="865.76" height="682.89" viewBox="0 0 865.76 682.89">
  <path d="M534.88,29.55L150.59,251.48v357.2l-8.42-4.82c-.19-.11-.31-.31-.31-.54V246.48L526.49,24.39l8.4,4.84c.13,.07,.13,.25,0,.33Z" fill="#eaeaea" stroke="#002346" stroke-miterlimit="10"></path>
  <path d="M535.17,29.53V332.22L163.79,616c-.12,.09-.3,.11-.44,.03-6.69-3.55-7.17-4.22-12.77-7.36V251.48L535.05,29.46c.05-.03,.12,0,.12,.07Z" fill="#002346" stroke="#002346" stroke-miterlimit="10"></path>
  <path d="M547.72,36.7c.21,.12,.21,.42,0,.54l-9.43,5.45c-3.91,2.18-370.85,214.12-374.7,216.31v356.5c0,.3-.32,.48-.58,.33l-8.09-4.67V254c6.08-3.51,372.23-214.92,384.34-221.86,.15-.09,.33-.08,.48,0l7.98,4.56Z" fill="#eaeaea" stroke="#002346" stroke-miterlimit="10"></path>
  <path d="M163.59,259v356.95c0,.1,.1,.15,.19,.11l384.41-221.92V37.15c0-.09-.1-.14-.17-.1L163.59,259Z" fill="#fff" stroke="#002346" stroke-miterlimit="10"></path>
  <path d="M203.06,247.73c7.38-3.05,4.27,8.81,0,10.47-7.43,3.05-4.29-8.81,0-10.47Z" fill="#eaeaea" stroke="#002346" stroke-miterlimit="10"></path>
  <path d="M190.29,211.56c-13.08-8.29-22.1,5-18.18,17.39l3-1.75c-3-38.85,44.14,8.75,24.86,23.68-.76,1.2-1.25,2.54-1.43,3.95,19.27-6.91,4.5-36.39-8.25-43.27Z" fill="#002346" stroke="#002346" stroke-miterlimit="10"></path>
  <path d="M225.08,235.01c7.4-3,4.26,8.81,0,10.48-7.43,3.04-4.28-8.82,0-10.48Z" fill="#eaeaea" stroke="#002346" stroke-miterlimit="10"></path>
  <path d="M212.31,198.84c-13.08-8.29-22.09,5-18.18,17.39l3-1.75c-3.98-36.51,44.27,2.98,23.78,27.23-.09,.11,.02,.26,.15,.21,18.34-7.37,3.91-36.24-8.75-43.08Z" fill="#002346" stroke="#002346" stroke-miterlimit="10"></path>
  <path d="M181.03,260.39c7.4-3.05,4.29,8.82,0,10.47-7.4,3.08-4.26-8.77,0-10.47Z" fill="#eaeaea" stroke="#002346" stroke-miterlimit="10"></path>
  <path d="M168.27,224.26c-13.08-8.28-22.1,5-18.19,17.39l3-1.75c-3.95-36.24,43.64,2.41,24.19,26.7-.2,.25,.06,.6,.36,.47,17.58-7.6,3.13-36.09-9.36-42.82Z" fill="#002346" stroke="#002346" stroke-miterlimit="10"></path>
  <path d="M247.1,222.31c7.4-3.07,4.27,8.81,0,10.47-7.42,3.03-4.29-8.82,0-10.47Z" fill="#eaeaea" stroke="#002346" stroke-miterlimit="10"></path>
  <path d="M234.33,186.14c-13.08-8.31-22.1,4.93-18.18,17.38l3-1.76c-3.94-36.17,43.47,2.31,24.29,26.62-.22,.28,.09,.66,.41,.52,17.33-7.72,2.92-36.05-9.53-42.75Z" fill="#002346" stroke="#002346" stroke-miterlimit="10"></path>
  <path d="M269.11,209.59c11.6-3.75-2,19.79-4.53,7.87,.16-3.2,1.85-6.12,4.53-7.87Z" fill="#eaeaea" stroke="#002346" stroke-miterlimit="10"></path>
  <path d="M256.36,173.39c-13.07-8.29-22.11,4.94-18.19,17.38l3-1.74c-3.99-36.57,44.49,3.13,23.65,27.38-.06,.06,.01,.16,.09,.13,18.8-7.05,4.11-36.29-8.56-43.15Z" fill="#002346" stroke="#002346" stroke-miterlimit="10"></path>
  <path d="M291.13,196.87c7.43-3,4.29,8.81,0,10.47-7.4,3.05-4.27-8.81,0-10.47Z" fill="#eaeaea" stroke="#002346" stroke-miterlimit="10"></path>
  <path d="M278.38,160.7c-13.09-8.3-22.09,4.95-18.17,17.4l3-1.76c-3-38.82,44.14,8.7,24.87,23.68-.75,1.19-1.24,2.54-1.43,3.94,19.11-7.02,4.48-36.37-8.27-43.26Z" fill="#002346" stroke="#002346" stroke-miterlimit="10"></path>
  <path d="M313.15,184.15c7.42-3,4.3,8.82,0,10.47-7.4,3.05-4.21-8.8,0-10.47Z" fill="#eaeaea" stroke="#002346" stroke-miterlimit="10"></path>
  <path d="M300.45,147.98c-13.06-8.28-22.15,5-18.18,17.4l3-1.76c-3.07-38.83,44.15,8.71,24.86,23.68-.75,1.2-1.24,2.54-1.43,3.94,19.31-6.85,4.4-36.39-8.25-43.26Z" fill="#002346" stroke="#002346" stroke-miterlimit="10"></path>
  <path d="M335.18,171.39c7.39-3,4.28,8.82,0,10.47-7.4,3.11-4.24-8.76,0-10.47Z" fill="#eaeaea" stroke="#002346" stroke-miterlimit="10"></path>
  <path d="M322.43,135.26c-13.07-8.28-22.15,5-18.19,17.4l3-1.76c-3.97-36.41,44.11,2.79,23.9,27.11-.12,.14,.03,.35,.2,.28,18.1-7.49,3.71-36.19-8.91-43.02Z" fill="#002346" stroke="#002346" stroke-miterlimit="10"></path>
  <path d="M357.2,158.73c7.4-3.07,4.28,8.82,0,10.47-7.39,3.03-4.26-8.81,0-10.47Z" fill="#eaeaea" stroke="#002346" stroke-miterlimit="10"></path>
  <path d="M344.45,122.55c-13.07-8.29-22.15,5-18.18,17.39l3-1.75c-3.98-36.51,44.41,3.01,23.7,27.32-.07,.08,.02,.2,.12,.17,18.66-7.15,4.01-36.33-8.63-43.13Z" fill="#002346" stroke="#002346" stroke-miterlimit="10"></path>
  <path d="M379.22,146.01c7.41-3,4.28,8.82,0,10.47-7.39,3.04-4.28-8.81,0-10.47Z" fill="#eaeaea" stroke="#002346" stroke-miterlimit="10"></path>
  <path d="M366.47,109.84c-13-8.29-22.15,5-18.18,17.38l3-1.74c-3.99-36.55,44.47,3.05,23.66,27.36-.06,.07,.01,.18,.1,.14,18.82-7.12,4.01-36.3-8.58-43.14Z" fill="#002346" stroke="#002346" stroke-miterlimit="10"></path>
  <path d="M401.25,133.3c7.4-3,4.27,8.81,0,10.46-7.4,3.05-4.31-8.8,0-10.46Z" fill="#eaeaea" stroke="#002346" stroke-miterlimit="10"></path>
  <path d="M388.5,97.13c-13.06-8.3-22.16,5-18.19,17.39l3-1.75c-3.99-36.55,44.54,3.11,23.63,27.4-.05,.06,.01,.14,.08,.12,18.85-7.06,4.15-36.32-8.52-43.15Z" fill="#002346" stroke="#002346" stroke-miterlimit="10"></path>
  <path d="M423.27,120.58c7.39-3,4.28,8.82,0,10.47-7.4,3.04-4.27-8.81,0-10.47Z" fill="#eaeaea" stroke="#002346" stroke-miterlimit="10"></path>
  <path d="M410.5,84.39c-13.08-8.28-22.09,5-18.18,17.39l3-1.75c-3.99-36.59,44.55,3.16,23.61,27.4-.05,.06,.01,.15,.08,.12,18.83-7.04,4.19-36.31-8.52-43.16Z" fill="#002346" stroke="#002346" stroke-miterlimit="10"></path>
  <path d="M445.28,107.88c7.39-3.07,4.27,8.8,0,10.46-7.42,3.05-4.34-8.81,0-10.46Z" fill="#eaeaea" stroke="#002346" stroke-miterlimit="10"></path>
  <path d="M432.51,71.71c-13.07-8.32-22.11,4.94-18.18,17.38l3-1.76c-3.92-36.47,44.28,2.97,23.79,27.22-.09,.11,.02,.27,.15,.22,18.49-7.21,3.84-36.26-8.77-43.06Z" fill="#002346" stroke="#002346" stroke-miterlimit="10"></path>
  <path d="M467.28,95.16c7.43-3,4.29,8.81,0,10.47-7.34,3.04-4.28-8.81,0-10.47Z" fill="#eaeaea" stroke="#002346" stroke-miterlimit="10"></path>
  <path d="M454.53,58.99c-13.07-8.29-22.11,4.94-18.18,17.38l3-1.74c-3-38.79,44,8.59,24.93,23.68-.76,1.19-1.24,2.54-1.43,3.94,19.31-6.86,4.38-36.4-8.32-43.26Z" fill="#002346" stroke="#002346" stroke-miterlimit="10"></path>
  <path d="M489.31,82.44c7.42-3,4.29,8.81,0,10.47-7.37,3.04-4.27-8.81,0-10.47Z" fill="#eaeaea" stroke="#002346" stroke-miterlimit="10"></path>
  <path d="M476.55,46.27c-13.08-8.28-22.1,4.95-18.18,17.4l3-1.76c-3-38.83,44.14,8.7,24.86,23.68-.75,1.2-1.24,2.54-1.43,3.94,19.14-7.02,4.51-36.37-8.25-43.26Z" fill="#002346" stroke="#002346" stroke-miterlimit="10"></path>
  <path d="M511.33,69.72c7.41-3,4.29,8.82,0,10.47-7.39,3.05-4.27-8.8,0-10.47Z" fill="#eaeaea" stroke="#002346" stroke-miterlimit="10"></path>
  <path d="M498.58,33.55c-13.07-8.28-22.15,5-18.19,17.4l3-1.76c-3-38.84,44.14,8.72,24.87,23.68-.75,1.19-1.24,2.54-1.43,3.94,19.28-6.86,4.48-36.42-8.25-43.26Z" fill="#002346" stroke="#002346" stroke-miterlimit="10"></path>
  <path d="M533.35,57c7.4-3,4.28,8.82,0,10.47-7.41,3.07-4.26-8.8,0-10.47Z" fill="#eaeaea" stroke="#002346" stroke-miterlimit="10"></path>
  <path d="M520.6,20.83c-13.06-8.28-22.15,5-18.18,17.4l3-1.76c-3.96-36.35,43.94,2.65,23.99,26.98-.14,.18,.04,.44,.25,.35,18.01-7.43,3.56-36.19-9.06-42.97Z" fill="#002346" stroke="#002346" stroke-miterlimit="10"></path>
  <path d="M306.46,233.39l27.48-16c6-2.58,3.47,6.7,0,8l-27.53,16c-5.98,2.48-3.37-6.75,.05-8Z" fill="#eaeaea" stroke="#002346" stroke-miterlimit="10"></path>
  <path d="M353.49,206.21l27.51-16c6-2.59,3.5,6.7,0,8l-27.55,16c-5.98,2.52-3.37-6.73,.04-8Z" fill="#eaeaea" stroke="#002346" stroke-miterlimit="10"></path>
  <path d="M206.87,288.89l27.48-16c6-2.58,3.47,6.7,0,8l-27.53,16c-5.98,2.48-3.37-6.75,.05-8Z" fill="#eaeaea" stroke="#002346" stroke-miterlimit="10"></path>
  <path d="M256.85,261.51l27.51-16c6-2.59,3.5,6.7,0,8l-27.55,16c-5.98,2.52-3.37-6.73,.04-8Z" fill="#eaeaea" stroke="#002346" stroke-miterlimit="10"></path>
  <path d="M400.56,179.06l27.5-16c6-2.59,3.49,6.69,.05,8l-27.55,15.94c-6.04,2.59-3.43-6.61,0-7.94Z" fill="#eaeaea" stroke="#002346" stroke-miterlimit="10"></path>
  <path d="M447.56,151.89l27.5-16c6-2.58,3.5,6.71,0,8l-27.53,16c-6.02,2.5-3.39-6.72,.03-8Z" fill="#eaeaea" stroke="#002346" stroke-miterlimit="10"></path>
  <path d="M494.59,124.75l27.5-16c6-2.54,3.47,6.66,0,7.94l-27.54,16c-5.99,2.54-3.38-6.67,.04-7.94Z" fill="#eaeaea" stroke="#002346" stroke-miterlimit="10"></path>
  <path d="M532.37,140.39L205.8,328.97v236.61l326.25-188.59,.4-236.61h-.08ZM205.8,328.97v236.61l326.25-188.59,.32-236.6L205.8,328.97Z" fill="none" stroke="#002346" stroke-linecap="round" stroke-linejoin="round"></path>
  <line x1="346.16" y1="248.76" x2="346.16" y2="484.48" fill="none" stroke="#002346" stroke-linecap="round" stroke-linejoin="round"></line>
  <line x1="391.4" y1="221.65" x2="391.4" y2="457.37" fill="none" stroke="#002346" stroke-linecap="round" stroke-linejoin="round"></line>
  <line x1="437.89" y1="194.71" x2="437.89" y2="430.43" fill="none" stroke="#002346" stroke-linecap="round" stroke-linejoin="round"></line>
  <line x1="485.61" y1="167.9" x2="485.61" y2="403.62" fill="none" stroke="#002346" stroke-linecap="round" stroke-linejoin="round"></line>
  <line x1="206.72" y1="388.61" x2="532.19" y2="199.61" fill="none" stroke="#002346" stroke-linecap="round" stroke-linejoin="round"></line>
  <line x1="206.72" y1="447.77" x2="532.18" y2="258.87" fill="none" stroke="#002346" stroke-linecap="round" stroke-linejoin="round"></line>
  <line x1="205.72" y1="507.91" x2="532.21" y2="317.91" fill="none" stroke="#002346" stroke-linecap="round" stroke-linejoin="round"></line>
  <polygon points="443.16 199.36 443.16 257.79 491.57 229.84 491.57 171.42 443.16 199.36" fill="#eaeaea" stroke="#002346" stroke-miterlimit="10"></polygon>
  <path d="M503.66,226.66c-1.76,5.69-47.23,29.22-53.48,33.49l-5.12-50.76,48.4-27.89c2.65,11.55-1.24,37.2,10.2,45.16Z" fill="#fbe493" stroke="#002346" stroke-miterlimit="10"></path>
  <polygon points="493.51 181.35 445.11 209.29 445.11 200.33 493.51 172.39 493.51 181.35" fill="#f69074" stroke="#002346" stroke-miterlimit="10"></polygon>
  <path d="M437.94,202.86c.26-4.68,4.46-12.11,9.93-10.19l2.61,1.54c-1.91,4.22-2.1,9.49-6.81,12h0l-1.2,2.1-2.84-1.64h-.1c-1.2-.88-1.81-2.34-1.59-3.81Z" fill="#eaeaea" stroke="#002346" stroke-miterlimit="10"></path>
  <path d="M452.28,197.89c.89,5.73-10.17,16.65-11.52,6.64-.82-5.67,10.18-16.57,11.52-6.64Z" fill="#eaeaea" stroke="#002346" stroke-miterlimit="10"></path>
  <polygon points="306.26 399.33 306.26 457.75 354.66 429.8 354.66 371.38 306.26 399.33" fill="#d1d3d4" opacity=".1"></polygon>
  <path d="M366.75,426.55c-1.76,5.7-47.22,29.23-53.46,33.5l-5.12-50.88,48.41-27.89c2.6,11.31-1.14,37.85,10.17,45.27Z" fill="#fbe493" stroke="#002346" stroke-miterlimit="10"></path>
  <polygon points="356.61 381.31 308.2 409.26 308.2 400.29 356.61 372.35 356.61 381.31" fill="#d1d3d4"></polygon>
  <polygon points="356.61 381.31 308.2 409.26 308.2 400.29 356.61 372.35 356.61 381.31" fill="#f69074" stroke="#002346" stroke-miterlimit="10"></polygon>
  <path d="M301.04,402.84c.24-4.69,4.44-12.22,9.93-10.26l2.63,1.56c-2,4.28-2,9.34-6.81,12h0l-1.18,2.1-2.86-1.64h-.1c-1.19-.86-1.8-2.31-1.61-3.76Z" fill="#dddbdb" stroke="#002346" stroke-miterlimit="10"></path>
  <path d="M315.37,397.87c.84,5.71-10.19,16.54-11.52,6.56-.91-5.78,10.16-16.6,11.52-6.56Z" fill="#eaeaea" stroke="#002346" stroke-miterlimit="10"></path>
  <path d="M414.94,345.47l87.72-50.66c5.84-3.37,10.58-1.13,10.58,4.92s-4.74,13.84-10.58,17.2l-87.72,50.64c-17.27,7.5-10-18.18,0-22.1Z" fill="#eaeaea" stroke="#002346" stroke-miterlimit="10"></path>
  <path d="M290.21,506.55c-.58,.01-1.15-.14-1.64-.44l-27.9-16.13c-1.57-.91-2.1-2.92-1.2-4.49,.91-1.57,2.92-2.1,4.49-1.19l27.89,16.09c2.88,1.55,1.62,6.22-1.64,6.12v.04Z" fill="#eaeaea" stroke="#002346" stroke-miterlimit="10"></path>
  <path d="M263.5,520.57c-1.83,0-3.31-1.49-3.3-3.32,0-.57,.15-1.12,.42-1.61l24.73-44.73c2-3.74,7.87-.52,5.75,3.18h0c-1.16,.7-25.37,49.3-27.6,46.48Z" fill="#eaeaea" stroke="#002346" stroke-miterlimit="10"></path>
  <path d="M230.69,328.39c.38,.24,3.26,8.21,4.06,7.47,.89,.23,10.45-5.65,8.12-1-5.21,10.07-6.75,9.06-4.45,20.83,.37,4.71-7.44-.17-9,1.84-.5-.11-8.31,12.7-8.15,8.09-.14-.4,1.86-11.94,1-11.74l-5.47-3.94c-1.8-3.14,8.29-6.87,8.81-9.43,.7-.71,3-14.24,5.08-12.12Z" fill="#eaeaea" stroke="#002346" stroke-miterlimit="10"></path>
  <path d="M306.29,285.73c.83,.52,28.72-18.94,27.61-13.77,1.42,3.45-26,16.3-27.6,18.06-3.23,1.37-1.84-3.63-.01-4.29Z" fill="#eaeaea" stroke="#002346" stroke-miterlimit="10"></path>
  <path d="M306.29,296.22l17.65-10.21c3.23-1.4,1.83,3.59,0,4.27-1.13,.11-27.26,18.19-17.65,5.94Z" fill="#eaeaea" stroke="#002346" stroke-miterlimit="10"></path>
  <path d="M397.94,284.54c.83,.51,28.69-18.95,27.58-13.77,1.42,3.44-25.93,16.29-27.58,18.05-3.22,1.37-1.82-3.6,0-4.28Z" fill="#eaeaea" stroke="#002346" stroke-miterlimit="10"></path>
  <path d="M397.94,295.07c.95,.3,20.43-14,19.64-9.21,.77,3.72-17.64,11.61-19.64,13.53-3.23,1.35-1.82-3.64,0-4.32Z" fill="#eaeaea" stroke="#002346" stroke-miterlimit="10"></path>
  <path d="M216.55,448.39c.82,.51,28.7-18.94,27.58-13.79,1.42,3.45-25.93,16.29-27.58,18.05-3.24,1.43-1.83-3.54,0-4.26Z" fill="#eaeaea" stroke="#002346" stroke-miterlimit="10"></path>
  <path d="M216.55,458.96c.95,.31,20.42-14,19.64-9.2,.75,3.71-17.68,11.6-19.64,13.49-3.23,1.36-1.84-3.61,0-4.29Z" fill="#eaeaea" stroke="#002346" stroke-miterlimit="10"></path>
  <polygon points="299.12 334.47 333.9 315.12 298.91 371.38 299.12 334.47" fill="#eaeaea" stroke="#002346" stroke-miterlimit="10"></polygon>
  <path d="M174.34,354.76l21.6-12.49c3.36-1.45,2,3.77,0,4.48l-21.6,12.49c-3.4,1.42-1.92-3.77,0-4.48Z" fill="#eaeaea" stroke="#002346" stroke-miterlimit="10"></path>
  <path d="M174.34,364.26c1.06,.22,18.64-13,18-8.16,.64,3.9-15.87,10.65-18,12.62-3.4,1.46-1.92-3.75,0-4.46Z" fill="#eaeaea" stroke="#002346" stroke-miterlimit="10"></path>
  <path d="M174.34,413.82l21.6-12.49c3.36-1.45,2,3.77,0,4.48l-21.6,12.49c-3.4,1.44-1.92-3.76,0-4.48Z" fill="#eaeaea" stroke="#002346" stroke-miterlimit="10"></path>
  <path d="M174.34,423.32c1.06,.22,18.64-13,18-8.16,.64,3.9-15.87,10.67-18,12.64-3.4,1.43-1.92-3.77,0-4.48Z" fill="#eaeaea" stroke="#002346" stroke-miterlimit="10"></path>
  <path d="M174.34,472.99l21.6-12.48c3.36-1.45,2,3.77,0,4.48l-21.6,12.48c-3.4,1.43-1.92-3.76,0-4.48Z" fill="#eaeaea" stroke="#002346" stroke-miterlimit="10"></path>
  <path d="M174.34,482.5c1.06,.22,18.64-13,18-8.16,.64,3.9-15.87,10.65-18,12.62-3.4,1.43-1.92-3.75,0-4.46Z" fill="#eaeaea" stroke="#002346" stroke-miterlimit="10"></path>
  <path d="M174.34,532.02l21.6-12.49c3.37-1.46,2,3.78,0,4.48l-21.6,12.49c-3.4,1.43-1.92-3.76,0-4.48Z" fill="#eaeaea" stroke="#002346" stroke-miterlimit="10"></path>
  <path d="M174.34,541.52c1.06,.23,18.65-13,18-8.15,.64,3.9-15.87,10.65-18,12.62-3.4,1.4-1.92-3.75,0-4.47Z" fill="#eaeaea" stroke="#002346" stroke-miterlimit="10"></path>
  <path d="M424.48,518.76l45.38-8.89c.77-.11,1.49,.42,1.6,1.19,.06,.41-.06,.83-.34,1.14l-30.78,34.85-15.86-28.29Z" fill="#fff" stroke="#002346" stroke-miterlimit="10"></path>
  <path d="M471.12,512.2c.51-.6,.44-1.49-.16-2-.32-.28-.75-.39-1.17-.32l-8.85,1.74h0c2.48,1.53,3.9,4.33,3.66,7.24v.81l6.52-7.47Z" fill="#002346" stroke="#002346" stroke-miterlimit="10"></path>
  <path d="M271.19,644.11l3.73-2.14,4.48-2.54,161-92.34c1.5-5,1.05-10.37-1.26-15.05-3.28-7.21-9.47-12.9-14.64-13.23l-160.82,92.3-8.57,4.92c5.65-2.89,21.83,25.12,16.08,28.08Z" fill="#f69074" stroke="#002346" stroke-miterlimit="10"></path>
  <path d="M285.35,636.05l8.21-4.78c2.45-1.29,1.05-7.3-1.82-13.52-3.78-8.2-11.23-16.25-14.48-14.54l-6.1,3.51-2.17,1.3c3.29-1.72,10.7,6.27,14.48,14.54,2.74,6,4.13,11.75,2.05,13.33h0c-.04,.07-.1,.12-.17,.16Z" fill="#fff" stroke="#002346" stroke-miterlimit="10"></path>
  <path d="M287.42,634.83c5.68-3-10.6-31-16.29-28l-8.31,4.74c5.7-3,22,25,16.28,28l8.32-4.74Z" fill="#002346" stroke="#002346" stroke-miterlimit="10"></path>
  <path d="M271.19,644.11l8.21-4.68c5.61-2.92-9.85-30.11-15.81-28.32-.12,.02-.23,.07-.34,.13l-8.21,4.77c5.72-2.87,21.9,25.14,16.15,28.1Z" fill="#fff" stroke="#002346" stroke-miterlimit="10"></path>
  <path d="M236.45,664.01l34.78-19.9c2.44-1.27,1.09-7.21-1.65-13.39-3.75-8.29-11.17-16.41-14.44-14.77h0l-35.1,20.07c-6.92,4-.56,19,7.17,25.76,2.94,2.54,6.16,3.66,9.24,2.23Z" fill="#fbe493" stroke="#002346" stroke-miterlimit="10"></path>
  <path d="M238.49,653.23c-2-7.84-8.34-15.52-14.18-17.18-1.74-.63-3.68-.36-5.2,.7-5.24,4.93,.85,18.68,8.2,25,2.81,2.5,6,3.61,9,2.3,2.54-1.5,3.54-5.5,2.18-10.82Z" fill="#fff" stroke="#002346" stroke-miterlimit="10"></path>
  <path d="M694.31,505.09c1.08,.43,1.31,2.53,1.37,6.67,0,3.13,.61,8.61-3.08,9.63s-9.06,.33-11.34-2.68c-2.86-3.75-4.76-7-8.85-11.63-3.54-4-7.4-7.71-8.74-13.21-1.22-4.93,0-7.09,3.28-8.45,4.68-1.87,11.81,4.74,15.43,5.84,3.13,.95,10.79,13.39,11.93,13.83Z" fill="#f69074" stroke="#002346" stroke-miterlimit="10"></path>
  <path d="M694.31,501.25l-.12,5.09c-3.95,2.38-8.9,2.38-12.85,0-.21-.49-1.16-7.3-1.16-7.3l14.13,2.21Z" fill="#f1b2c0" stroke="#002346" stroke-miterlimit="10"></path>
  <path d="M652.44,533.53s1.35,4.45,2,8.34c.56,3.08,1.33,8.2,.22,10.52s-5.37,3.69-11.87,3.49c-4.22-.13-10.85,2.58-15.41,4.93s-14.37,3.28-19.28,2.61c-5.78-.81-11.68-4.3-12.57-6.72s.41-4.92,14.19-10.38c.12,0,19.11-5.75,25.87-12.89l16.85,.1Z" fill="#f69074" stroke="#002346" stroke-miterlimit="10"></path>
  <path d="M652.56,527.95s-.1,3.78-.13,5.93-2.65,5.31-9.23,4.92c-4.62-.26-7.82-1.64-7.56-5.38l.13-5.5,16.79,.03Z" fill="#f1b2c0" stroke="#002346" stroke-miterlimit="10"></path>
  <path d="M699.23,433.89c-.72-7.02-1.97-13.97-3.75-20.79-1.09-4.19-1.37-8.54-.97-12.84,.79-8.41,2.11-23.16,3-37.4,1.47-23.37,2.83-35.39-1.76-69.15,0,0-71.65-6.43-73.6,20.58s.82,95.92,1.44,107.81,2.45,22.44,4.47,41.75c2,19.06,7.77,64,7.77,64,5.24,2.81,11.55,2.81,16.79,0,0,0,6.57-53.94,6.29-67.66-.18-8.64-1.31-17.23-3.36-25.61-.75-3.07-1.01-6.23-.73-9.38,.67-7.66,2-22.89,3.2-36.64,1.7-19.36,3.28-28.64,3.73-37.08l1.64-.75s.9,33.48,1.52,45.37,2.27,23.34,5.21,45.48c2.54,19.2,10.5,59.88,10.5,59.88,8.52,4.92,13.78-.3,13.78-.3,0,0,6.72-50.62,4.83-67.27Z" fill="#fbe493" stroke="#002346" stroke-miterlimit="10"></path>
  <polygon points="648.85 197.46 651.64 222.19 675.01 221.01 672.4 192.14 648.85 197.46" fill="#f1b2c0" stroke="#002346" stroke-miterlimit="10"></polygon>
  <path d="M683.8,206.96c8.7-.41,13.13,.91,17,8.4s5.45,29.92,6.79,41.47c1.34,11.55,1.65,19.7-3,20.89s-23.3,1.67-23.3,1.67l2.51-72.43Z" fill="#f69074" stroke="#002346" stroke-miterlimit="10"></path>
  <path d="M698.49,219.75c-1.26-6.93-10.37-14.2-18.89-12.82l-5.77,1c-1,4.16-12.43,6.77-23.32,4.21-3.29,.85-14.1,2.88-16.82,3.79-7.85,2.59-11.07,10.3-12.3,35.84,0,0,.63,57.81,.33,69.33,19.33,8.21,39.62,8.37,50.87,6.19,23.46-4.58,26.49-14.2,26.49-14.2l-3.49-26.45s5.74-51.25,2.9-66.89Z" fill="#f69074" stroke="#002346" stroke-miterlimit="10"></path>
  <path d="M649.77,205.62l.18,1.56c4.73,.99,9.61,.99,14.34,0,7.58-1.65,9.12-3.84,9.12-3.84l-.16-1.78s1.89-.69,2.89,2.22c.43,1.16,.79,2.34,1.1,3.54,0,0,.87,5.32-8.06,8-7.42,2.37-15.5,1.5-22.24-2.4l-3.49,.74s3-7,3.93-8.39c.44-.79,1.3-1.26,2.2-1.21l.19,1.56Z" fill="#fbe493" stroke="#002346" stroke-miterlimit="10"></path>
  <path d="M550.65,250.68l-.71-.38c-.57-.3-1.03-.76-1.33-1.33l-14.67-41.17c-.15-.39,.04-.83,.42-1h0l19.4-10.78c.61-.12,1.25-.02,1.79,.29l.71,.36c.57,.3,1.03,.77,1.32,1.35l14.64,41.17c.17,.41-.02,.88-.43,1.05,0,0,0,0,0,0h0l-19.34,10.74c-.61,.1-1.24,0-1.79-.3Z" fill="#f69074" stroke="#002346" stroke-miterlimit="10"></path>
  <path d="M536.76,209.26l14.66,41.13c.13,.42,.57,.67,1,.56l19.4-10.79c.4-.15,.6-.6,.46-1h0l-14.64-41.17c-.14-.42-.58-.65-1-.54l-19.42,10.74c-.42,.17-.62,.65-.46,1.07h0Z" fill="#f69074" stroke="#002346" stroke-miterlimit="10"></path>
  <path d="M539.71,210.61l17.03-8.57c.38-.11,.77,.1,.88,.48l11.78,33.18c.14,.35-.03,.76-.38,.9,0,0,0,0,0,0l-16.96,8.85c-.37,.12-.76-.09-.88-.46,0,0,0,0,0,0h0l-11.87-33.42c-.16-.35-.01-.77,.34-.93,0,0,0,0,0,0,0,0,.05-.02,.07-.03Z" fill="#fff" stroke="#002346" stroke-miterlimit="10"></path>
  <path d="M561.64,242.33c.58-.17,1.19,.15,1.38,.72,.23,.53-.02,1.15-.55,1.38,0,0-.02,0-.03,.01h0c-.59,.18-1.21-.14-1.4-.72-.22-.56,.06-1.18,.61-1.4,0,0,0,0,0,0h-.02Z" fill="#002346" stroke="#002346" stroke-miterlimit="10"></path>
  <path d="M551.22,211.64l2.81,3.71c.09,.14,.26,.2,.42,.15l3.47-1.5c.36-.16,.69,.41,.56,1l-1.3,5.28c-.08,.22-.08,.46,0,.68l2,4.79c.22,.51,0,1.16-.41,1.12l-3.61-.43c-.17,0-.32,.1-.37,.26l-2.22,4.47c-.23,.45-.71,.29-.8-.28l-.92-5.57c-.03-.2-.14-.39-.3-.51l-3.4-2c-.35-.35-.39-.9-.09-1.3l3-3c.14-.16,.21-.36,.22-.57l.09-5.73c.13-.65,.57-.96,.85-.57Z" fill="#eaeaea" stroke="#002346" stroke-miterlimit="10"></path>
  <path d="M586.29,301.45c-8.2-1-27.34-27-32.82-35.44-4.3-6.89-9.94-12.84-16.59-17.5-1.3-.87-2.41-1.98-3.28-3.28-.65-1.28-.98-2.7-.94-4.13,.12-1.87,.08-3.75-.1-5.62-.29-1.07-.46-2.17-.49-3.28,.1-1.06,.64-2.05,.82-3.12,.1-1.31,.05-2.62-.13-3.92-.06-.88,.11-1.76,.51-2.54,.49-.74,1.08-1.41,1.74-2,.86-.73,1.76-1.4,2.72-2l2.83,7.75,2.72,7.41c1,1,2.77,2.86,3.92,.92,.27-.51,.42-1.07,.44-1.64,.2-1.89,0-3.82,.38-5.68,.19-1.19,.68-2.32,1.41-3.28,.5-.59,2-2,2.76-1.25,.23,.23,.38,.53,.43,.86,.04,.86,.04,1.73,0,2.59,.14,1.1,.54,2.2,.75,3.28,.43,2.23,.69,4.49,.79,6.76-.04,1.67,.04,3.34,.25,5,.19,1.95,.87,3.81,2,5.41,2.13,3.06,30.71,30.43,30.71,30.43l-.83,24.27Z" fill="#f1b2c0" stroke="#002346" stroke-miterlimit="10"></path>
  <path d="M642.48,230.32c1.14-13.13-15.7-19.8-23.86-9.46-.06,.08-.12,.15-.18,.23-6.04,7.83-33.17,53.44-33.17,53.44l-13.53-12.14c-5.3,3.34-9.04,8.66-10.41,14.77,3.69,5.83,7.79,11.39,12.26,16.64,5.73,6.28,12.11,10.63,17.35,8.71s10.56-6.09,21.84-21.77c7.6-10.56,15.66-22.42,20.11-29.04,3.44-5.12,8.73-13.95,9.45-20.08,.05-.43,.1-.86,.13-1.3Z" fill="#f69074" stroke="#002346" stroke-miterlimit="10"></path>
  <rect x="632.1" y="141.54" width="39.26" height="57.55" rx="19.63" ry="19.63" fill="#f1b2c0" stroke="#002346" stroke-miterlimit="10"></rect>
  <path d="M631.54,150.46c-.28,1.79,.04,3.63,.91,5.22,1.62,2.79,4.69,4.41,7.9,4.17-.54,0,1.49,2.64,1.64,2.79,.82,.8,1.93,1.23,3.08,1.2,.32,1.94,1.61,4.9,3.45,6.79,.75,.77,2.06,.31,2.18-.76,.29-2.59,1.41-6.41,5.52-5.79,6.14,.92,7,8.75,3.11,13.49-1.93,2.36-3.78,3.11-5.16,3.27-1.15,.13-1.94,1.15-1.78,2.3,.02,.13,.04,.23,.05,.29,.41,1.39,.96,2.73,1.64,4,1.33,2.55,3.22,4.76,5.53,6.47,1.94,1.59,4.22,2.7,6.66,3.25,.55,.09,1.13,.1,1.72,.05,3.22-.26,6.12-2.08,7.93-4.75,4.5-6.63,8.34-13.68,11.47-21.06,1.91-3.87,3.06-8.07,3.4-12.37,0-3.5-.1-7.24-2.25-10.19-.91-1.25-2.06-2.29-3.36-3.06-2.32-1.38-4.37-3.19-5.68-5.55-1.17-2.1-2.96-3.84-5.17-4.95-3.49-1.72-7.38-2.49-11.26-2.23-3.87,.1-7.71,.77-11.48,1.16-7.97,.6-15.99,.43-23.93-.5-.28-.06-.58-.03-.84,.09-.26,.22-.43,.52-.47,.86-1.25,5.33,1.23,10.84,6.77,12.16-.83,1.06-1.38,2.32-1.6,3.65Z" fill="#002346" stroke="#002346" stroke-miterlimit="10"></path>
  <line x1="252.4" y1="301.98" x2="252.4" y2="538.7" fill="none" stroke="#002346" stroke-linecap="round" stroke-linejoin="round"></line>
  <line x1="298.91" y1="276.32" x2="298.91" y2="512.04" fill="none" stroke="#002346" stroke-linecap="round" stroke-linejoin="round"></line>
</svg>
